<svg width="768" height="464" viewBox="0 0 768 464" fill="none" xmlns="http://www.w3.org/2000/svg">
<g filter="url(#filter0_d_0_265)">
<rect x="60" y="50" width="648" height="344" rx="13" fill="#2B2B2B"/>
<rect x="60.5" y="50.5" width="647" height="343" rx="12.5" stroke="#CEA561"/>
<g clip-path="url(#clip0_0_265)">
<path d="M80.4575 94.2988C78.1333 94.2988 76.7471 92.896 76.6641 90.8457L76.6558 90.7544H78.7476L78.7559 90.8125C78.814 91.7339 79.3784 92.4229 80.4409 92.4229C81.5947 92.4229 82.209 91.7256 82.209 90.4307V82.022H84.3506V90.4473C84.3506 92.8711 82.9146 94.2988 80.4575 94.2988ZM89.6867 94.1826C87.6447 94.1826 86.5988 92.9541 86.5988 90.7959V84.9272H88.6657V90.3228C88.6657 91.7256 89.1887 92.4395 90.4338 92.4395C91.7702 92.4395 92.4841 91.5762 92.4841 90.2148V84.9272H94.551V94H92.4841V92.6221H92.343C91.9196 93.5933 90.9983 94.1826 89.6867 94.1826ZM96.6664 94V84.9272H98.7333V86.3135H98.8744C99.3061 85.3423 100.178 84.7529 101.489 84.7529C103.515 84.7529 104.619 85.9731 104.619 88.1313V94H102.552V88.6128C102.552 87.2017 101.979 86.4878 100.726 86.4878C99.497 86.4878 98.7333 87.3511 98.7333 88.7124V94H96.6664ZM110.536 94.1826C107.838 94.1826 106.203 92.373 106.203 89.4844V89.4761C106.203 86.6206 107.855 84.7529 110.436 84.7529C113.018 84.7529 114.611 86.5625 114.611 89.3018V89.9824H108.27C108.295 91.6094 109.174 92.5557 110.577 92.5557C111.698 92.5557 112.337 91.9912 112.536 91.5762L112.561 91.5181H114.528L114.504 91.5928C114.213 92.7632 113.001 94.1826 110.536 94.1826ZM110.461 86.3716C109.307 86.3716 108.444 87.1519 108.286 88.5962H112.594C112.453 87.1104 111.615 86.3716 110.461 86.3716ZM120.386 94V92.5557L124.321 88.5381C125.948 86.8945 126.404 86.2886 126.404 85.3672V85.3423C126.404 84.2383 125.649 83.4414 124.404 83.4414C123.134 83.4414 122.279 84.2798 122.279 85.5166L122.271 85.5498L120.278 85.5415L120.27 85.5166C120.27 83.2837 122.013 81.7231 124.512 81.7231C126.844 81.7231 128.521 83.1426 128.521 85.1597V85.1846C128.521 86.5459 127.865 87.625 125.682 89.7251L123.283 92.0493V92.2236H128.704V94H120.386ZM135.061 94.2988C132.214 94.2988 130.504 91.8833 130.504 88.0151V87.9985C130.504 84.1304 132.214 81.7231 135.061 81.7231C137.908 81.7231 139.635 84.1304 139.635 87.9985V88.0151C139.635 91.8833 137.908 94.2988 135.061 94.2988ZM135.061 92.564C136.588 92.564 137.476 90.854 137.476 88.0151V87.9985C137.476 85.1597 136.588 83.4663 135.061 83.4663C133.533 83.4663 132.662 85.1597 132.662 87.9985V88.0151C132.662 90.854 133.533 92.564 135.061 92.564ZM141.567 94V92.5557L145.502 88.5381C147.129 86.8945 147.585 86.2886 147.585 85.3672V85.3423C147.585 84.2383 146.83 83.4414 145.585 83.4414C144.315 83.4414 143.46 84.2798 143.46 85.5166L143.452 85.5498L141.459 85.5415L141.451 85.5166C141.451 83.2837 143.194 81.7231 145.693 81.7231C148.025 81.7231 149.702 83.1426 149.702 85.1597V85.1846C149.702 86.5459 149.046 87.625 146.863 89.7251L144.464 92.0493V92.2236H149.885V94H141.567ZM156.184 94.2407C153.561 94.2407 151.842 92.813 151.685 90.7627L151.676 90.6631H153.718L153.727 90.7544C153.843 91.7671 154.781 92.4893 156.184 92.4893C157.57 92.4893 158.491 91.7173 158.491 90.605V90.5884C158.491 89.3267 157.562 88.6294 156.026 88.6294H154.615V87.0356H155.985C157.304 87.0356 158.184 86.2886 158.184 85.2427V85.2261C158.184 84.1304 157.445 83.4829 156.167 83.4829C154.905 83.4829 154.034 84.1553 153.926 85.2261L153.918 85.3091H151.925L151.934 85.2178C152.116 83.1426 153.752 81.7812 156.167 81.7812C158.632 81.7812 160.235 83.0679 160.235 84.9438V84.9604C160.235 86.4463 159.164 87.4341 157.728 87.7329V87.7744C159.487 87.9404 160.658 88.9863 160.658 90.6465V90.6631C160.658 92.7715 158.84 94.2407 156.184 94.2407Z" fill="white"/>
<path d="M176.69 88C176.69 87.7271 176.595 87.5049 176.373 87.2954L171.504 82.5347C171.339 82.3633 171.136 82.2808 170.889 82.2808C170.4 82.2808 170 82.6743 170 83.1631C170 83.4043 170.102 83.6265 170.279 83.8042L174.596 87.9937L170.279 92.1958C170.102 92.3672 170 92.5894 170 92.8369C170 93.3257 170.4 93.7192 170.889 93.7192C171.13 93.7192 171.339 93.6367 171.504 93.4653L176.373 88.7046C176.595 88.4951 176.69 88.2666 176.69 88Z" fill="#CEA561"/>
</g>
<path d="M641 88C641 88.3418 641.127 88.6348 641.4 88.8887L648.998 96.3301C649.213 96.5449 649.486 96.6621 649.809 96.6621C650.453 96.6621 650.971 96.1543 650.971 95.5C650.971 95.1777 650.834 94.8945 650.619 94.6699L643.773 88L650.619 81.3301C650.834 81.1055 650.971 80.8125 650.971 80.5C650.971 79.8457 650.453 79.3379 649.809 79.3379C649.486 79.3379 649.213 79.4551 648.998 79.6699L641.4 87.1016C641.127 87.3652 641 87.6582 641 88Z" fill="#CEA561"/>
<path d="M692 88C691.99 87.6582 691.863 87.3652 691.6 87.1016L684.002 79.6699C683.777 79.4551 683.514 79.3379 683.191 79.3379C682.537 79.3379 682.029 79.8457 682.029 80.5C682.029 80.8125 682.156 81.1055 682.381 81.3301L689.217 88L682.381 94.6699C682.156 94.8945 682.029 95.1777 682.029 95.5C682.029 96.1543 682.537 96.6621 683.191 96.6621C683.504 96.6621 683.777 96.5449 684.002 96.3301L691.6 88.8887C691.873 88.6348 692 88.3418 692 88Z" fill="#CEA561"/>
<path d="M82.2709 126.229C80.1444 126.229 78.7924 125.181 78.6781 123.601L78.6718 123.512H80.2587L80.265 123.575C80.3412 124.343 81.16 124.851 82.3217 124.851C83.4261 124.851 84.2006 124.305 84.2006 123.518V123.512C84.2006 122.852 83.7245 122.452 82.5438 122.198L81.5599 121.995C79.6874 121.601 78.8749 120.725 78.8749 119.36V119.354C78.8749 117.716 80.2841 116.612 82.2645 116.612C84.2958 116.612 85.559 117.723 85.6732 119.195L85.6796 119.278H84.1117L84.099 119.202C83.9847 118.491 83.3055 117.983 82.2582 117.989C81.2426 117.989 80.5189 118.465 80.5189 119.246V119.252C80.5189 119.9 80.9823 120.306 82.1249 120.547L83.1088 120.757C85.0384 121.163 85.8446 121.938 85.8446 123.321V123.328C85.8446 125.111 84.4672 126.229 82.2709 126.229ZM91.3652 126.229C89.0483 126.229 87.6011 124.864 87.6011 122.845V116.84H89.2388V122.712C89.2388 123.975 90.0068 124.813 91.3716 124.813C92.73 124.813 93.4917 123.975 93.4917 122.712V116.84H95.1294V122.845C95.1294 124.864 93.6948 126.229 91.3652 126.229ZM97.3048 126V116.84H98.7267L103.227 123.15H103.329V116.84H104.903V126H103.487L98.9869 119.69H98.8854V126H97.3048Z" fill="#EBEBF5" fill-opacity="0.3"/>
<path d="M174.463 126V116.84H176.342L179.097 123.886H179.205L181.953 116.84H183.832V126H182.36V119.487H182.245L179.706 126H178.589L176.05 119.487H175.942V126H174.463ZM189.962 126.229C187.277 126.229 185.627 124.369 185.627 121.423V121.411C185.627 118.459 187.303 116.612 189.962 116.612C192.628 116.612 194.291 118.459 194.291 121.411V121.423C194.291 124.369 192.635 126.229 189.962 126.229ZM189.962 124.813C191.594 124.813 192.622 123.48 192.622 121.423V121.411C192.622 119.341 191.587 118.027 189.962 118.027C188.337 118.027 187.296 119.341 187.296 121.411V121.423C187.296 123.48 188.312 124.813 189.962 124.813ZM196.092 126V116.84H197.514L202.015 123.15H202.116V116.84H203.69V126H202.275L197.774 119.69H197.673V126H196.092Z" fill="#EBEBF5" fill-opacity="0.3"/>
<path d="M277.058 126V118.218H274.24V116.84H281.521V118.218H278.696V126H277.058ZM286.914 126.229C284.597 126.229 283.15 124.864 283.15 122.845V116.84H284.788V122.712C284.788 123.975 285.556 124.813 286.921 124.813C288.279 124.813 289.041 123.975 289.041 122.712V116.84H290.678V122.845C290.678 124.864 289.244 126.229 286.914 126.229ZM292.854 126V116.84H298.783V118.218H294.492V120.7H298.548V122.001H294.492V124.623H298.783V126H292.854Z" fill="#EBEBF5" fill-opacity="0.3"/>
<path d="M371.84 126L369.383 116.84H371.091L372.659 123.715H372.754L374.557 116.84H376.01L377.838 123.715H377.927L379.495 116.84H381.19L378.733 126H377.197L375.331 119.443H375.236L373.382 126H371.84ZM382.8 126V116.84H388.729V118.218H384.438V120.7H388.494V122.001H384.438V124.623H388.729V126H382.8ZM390.682 126V116.84H394.116C396.839 116.84 398.426 118.503 398.426 121.373V121.385C398.426 124.318 396.859 126 394.116 126H390.682ZM392.32 124.623H393.901C395.722 124.623 396.757 123.467 396.757 121.411V121.398C396.757 119.386 395.697 118.218 393.901 118.218H392.32V124.623Z" fill="#EBEBF5" fill-opacity="0.3"/>
<path d="M470.709 126V118.218H467.891V116.84H475.172V118.218H472.347V126H470.709ZM476.807 126V116.84H478.445V120.649H482.901V116.84H484.533V126H482.901V122.026H478.445V126H476.807ZM490.479 126.229C488.162 126.229 486.714 124.864 486.714 122.845V116.84H488.352V122.712C488.352 123.975 489.12 124.813 490.485 124.813C491.843 124.813 492.605 123.975 492.605 122.712V116.84H494.243V122.845C494.243 124.864 492.808 126.229 490.479 126.229Z" fill="#EBEBF5" fill-opacity="0.3"/>
<path d="M569.68 126V116.84H575.52V118.218H571.318V120.928H575.158V122.261H571.318V126H569.68ZM577.258 126V116.84H580.958C582.926 116.84 584.107 117.938 584.107 119.684V119.697C584.107 120.909 583.466 121.912 582.38 122.306L584.38 126H582.507L580.711 122.553H578.895V126H577.258ZM578.895 121.296H580.787C581.821 121.296 582.424 120.719 582.424 119.735V119.722C582.424 118.764 581.796 118.167 580.755 118.167H578.895V121.296ZM586.015 126V116.84H587.653V126H586.015Z" fill="#EBEBF5" fill-opacity="0.3"/>
<path d="M667.75 126.229C665.623 126.229 664.271 125.181 664.157 123.601L664.151 123.512H665.738L665.744 123.575C665.82 124.343 666.639 124.851 667.801 124.851C668.905 124.851 669.68 124.305 669.68 123.518V123.512C669.68 122.852 669.203 122.452 668.023 122.198L667.039 121.995C665.166 121.601 664.354 120.725 664.354 119.36V119.354C664.354 117.716 665.763 116.612 667.744 116.612C669.775 116.612 671.038 117.723 671.152 119.195L671.159 119.278H669.591L669.578 119.202C669.464 118.491 668.785 117.983 667.737 117.989C666.722 117.989 665.998 118.465 665.998 119.246V119.252C665.998 119.9 666.461 120.306 667.604 120.547L668.588 120.757C670.517 121.163 671.324 121.938 671.324 123.321V123.328C671.324 125.111 669.946 126.229 667.75 126.229ZM672.407 126L675.657 116.84H677.504L680.754 126H679.041L678.272 123.632H674.883L674.121 126H672.407ZM676.527 118.542L675.295 122.369H677.866L676.635 118.542H676.527ZM683.514 126V118.218H680.695V116.84H687.976V118.218H685.151V126H683.514Z" fill="#EBEBF5" fill-opacity="0.3"/>
<path d="M384.803 173V160.773H384.764L381.033 163.371V161.604L384.783 158.908H386.502V173H384.803Z" fill="white" fill-opacity="0.3"/>
<path d="M474.645 173V171.789L479.606 166.613C481.51 164.631 481.95 163.869 481.95 162.697V162.678C481.94 161.242 480.856 160.207 479.323 160.207C477.565 160.207 476.257 161.418 476.257 162.932V162.98H474.557V162.922C474.557 160.48 476.667 158.674 479.294 158.674C481.842 158.674 483.708 160.383 483.708 162.59V162.609C483.708 164.152 482.995 165.314 480.407 167.961L477.057 171.398V171.438H483.942V173H474.645Z" fill="white" fill-opacity="0.3"/>
<path d="M574.804 172.234C571.894 172.234 570.009 170.613 569.824 168.387L569.814 168.27H571.503L571.513 168.367C571.66 169.754 572.929 170.711 574.804 170.711C576.65 170.711 577.91 169.676 577.91 168.182V168.162C577.91 166.434 576.669 165.467 574.697 165.467H572.929V163.982H574.619C576.298 163.982 577.47 162.947 577.47 161.541V161.521C577.47 160.047 576.503 159.197 574.785 159.197C573.124 159.197 571.943 160.076 571.796 161.502L571.786 161.6H570.097L570.107 161.502C570.331 159.207 572.148 157.674 574.785 157.674C577.47 157.674 579.238 159.168 579.238 161.307V161.326C579.238 163.064 578.007 164.256 576.249 164.627V164.666C578.3 164.842 579.697 166.121 579.697 168.123V168.143C579.697 170.496 577.626 172.234 574.804 172.234Z" fill="white" fill-opacity="0.3"/>
<path d="M671.297 173V170.07H664.217V168.479L670.398 158.908H672.996V168.527H674.988V170.07H672.996V173H671.297ZM665.955 168.527H671.297V160.412H671.238L665.955 168.488V168.527Z" fill="white" fill-opacity="0.3"/>
<path d="M98.6367 219.234C95.9414 219.234 94.0176 217.555 93.8125 215.26L93.8027 215.152H95.5312L95.541 215.23C95.7168 216.627 96.9668 217.691 98.6562 217.691C100.57 217.691 101.898 216.363 101.898 214.469V214.449C101.889 212.594 100.551 211.266 98.6855 211.266C97.7285 211.266 96.9082 211.549 96.2832 212.115C96.0293 212.35 95.8047 212.623 95.6191 212.945H94.0664L94.7891 204.908H102.855V206.471H96.2344L95.7559 211.207H95.7949C96.459 210.26 97.6309 209.752 98.998 209.752C101.703 209.752 103.656 211.715 103.656 214.42V214.439C103.646 217.262 101.566 219.234 98.6367 219.234Z" fill="white" fill-opacity="0.3"/>
<path d="M194.294 219.244C191.178 219.244 188.6 217.066 188.6 212.125V212.105C188.6 207.447 190.758 204.664 194.352 204.664C196.96 204.664 198.903 206.168 199.352 208.297L199.372 208.404H196.872L196.833 208.316C196.462 207.35 195.592 206.725 194.333 206.725C192.067 206.725 191.12 208.893 191.022 211.559C191.012 211.705 191.012 211.852 191.012 212.008H191.061C191.618 210.719 193.024 209.742 194.938 209.742C197.653 209.742 199.557 211.695 199.557 214.342V214.361C199.557 217.203 197.331 219.244 194.294 219.244ZM191.442 214.4C191.442 215.963 192.682 217.184 194.255 217.184C195.827 217.184 197.077 215.973 197.077 214.449V214.43C197.077 212.828 195.895 211.686 194.284 211.686C192.673 211.686 191.442 212.818 191.442 214.391V214.4Z" fill="white" fill-opacity="0.3"/>
<path d="M285.318 219L291.695 206.51V206.471H284.107V204.908H293.433V206.539L287.163 219H285.318Z" fill="white" fill-opacity="0.3"/>
<path d="M384.5 219.234C381.512 219.234 379.383 217.555 379.383 215.191V215.172C379.383 213.434 380.604 211.988 382.41 211.568V211.529C380.867 211.051 379.891 209.879 379.891 208.395V208.375C379.891 206.246 381.834 204.674 384.5 204.674C387.166 204.674 389.109 206.246 389.109 208.375V208.395C389.109 209.879 388.133 211.051 386.59 211.529V211.568C388.396 211.988 389.617 213.434 389.617 215.172V215.191C389.617 217.555 387.488 219.234 384.5 219.234ZM384.5 210.875C386.199 210.875 387.361 209.908 387.361 208.541V208.521C387.361 207.154 386.199 206.188 384.5 206.188C382.801 206.188 381.639 207.154 381.639 208.521V208.541C381.639 209.908 382.801 210.875 384.5 210.875ZM384.5 217.701C386.443 217.701 387.83 216.607 387.83 215.084V215.064C387.83 213.521 386.453 212.418 384.5 212.418C382.547 212.418 381.17 213.521 381.17 215.064V215.084C381.17 216.607 382.557 217.701 384.5 217.701Z" fill="white" fill-opacity="0.3"/>
<path d="M479.098 204.674C481.696 204.674 484.45 206.471 484.45 211.695V211.715C484.45 216.461 482.428 219.234 478.981 219.234C476.589 219.234 474.801 217.867 474.333 215.816L474.303 215.689H476.091L476.13 215.797C476.549 216.959 477.555 217.682 479.001 217.682C481.628 217.682 482.663 215.133 482.741 212.174C482.751 212.076 482.751 211.979 482.751 211.871H482.712C482.145 213.121 480.7 214.137 478.786 214.137C476.1 214.137 474.108 212.154 474.108 209.479V209.459C474.108 206.686 476.217 204.674 479.098 204.674ZM479.089 212.594C480.934 212.594 482.331 211.285 482.331 209.488V209.479C482.331 207.672 480.924 206.236 479.118 206.236C477.321 206.236 475.895 207.643 475.895 209.42V209.439C475.895 211.275 477.233 212.594 479.089 212.594Z" fill="white"/>
<path d="M568.882 218V205.773H568.843L565.112 208.371V206.604L568.862 203.908H570.581V218H568.882ZM579.447 218.234C576.205 218.234 574.281 215.432 574.281 210.959V210.939C574.281 206.467 576.205 203.674 579.447 203.674C582.689 203.674 584.633 206.467 584.633 210.939V210.959C584.633 215.432 582.689 218.234 579.447 218.234ZM579.447 216.701C581.596 216.701 582.865 214.494 582.865 210.959V210.939C582.865 207.404 581.596 205.217 579.447 205.217C577.299 205.217 576.049 207.404 576.049 210.939V210.959C576.049 214.494 577.299 216.701 579.447 216.701Z" fill="white"/>
<rect x="649.5" y="191" width="40" height="40" rx="20" fill="#CEA561"/>
<path d="M665.179 219V206.773H665.14L661.41 209.371V207.604L665.16 204.908H666.878V219H665.179ZM674.426 219V206.773H674.387L670.657 209.371V207.604L674.407 204.908H676.126V219H674.426Z" fill="#151515"/>
<path d="M92.9487 265V252.773H92.9096L89.1791 255.371V253.604L92.9291 250.908H94.6479V265H92.9487ZM98.6021 265V263.789L103.563 258.613C105.467 256.631 105.907 255.869 105.907 254.697V254.678C105.897 253.242 104.813 252.207 103.28 252.207C101.522 252.207 100.213 253.418 100.213 254.932V254.98H98.5142V254.922C98.5142 252.48 100.624 250.674 103.251 250.674C105.799 250.674 107.665 252.383 107.665 254.59V254.609C107.665 256.152 106.952 257.314 104.364 259.961L101.014 263.398V263.438H107.899V265H98.6021Z" fill="white"/>
<path d="M188.361 265V252.773H188.322L184.592 255.371V253.604L188.342 250.908H190.061V265H188.361ZM198.761 265.234C195.851 265.234 193.966 263.613 193.781 261.387L193.771 261.27H195.46L195.47 261.367C195.616 262.754 196.886 263.711 198.761 263.711C200.607 263.711 201.866 262.676 201.866 261.182V261.162C201.866 259.434 200.626 258.467 198.654 258.467H196.886V256.982H198.575C200.255 256.982 201.427 255.947 201.427 254.541V254.521C201.427 253.047 200.46 252.197 198.741 252.197C197.081 252.197 195.9 253.076 195.753 254.502L195.743 254.6H194.054L194.064 254.502C194.288 252.207 196.105 250.674 198.741 250.674C201.427 250.674 203.195 252.168 203.195 254.307V254.326C203.195 256.064 201.964 257.256 200.206 257.627V257.666C202.257 257.842 203.654 259.121 203.654 261.123V261.143C203.654 263.496 201.583 265.234 198.761 265.234Z" fill="white"/>
<path d="M282.901 265V252.773H282.862L279.132 255.371V253.604L282.882 250.908H284.6V265H282.901ZM295.254 265V262.07H288.174V260.479L294.355 250.908H296.953V260.527H298.945V262.07H296.953V265H295.254ZM289.912 260.527H295.254V252.412H295.195L289.912 260.488V260.527Z" fill="white"/>
<path d="M378.763 265V252.773H378.724L374.994 255.371V253.604L378.744 250.908H380.462V265H378.763ZM389.26 265.234C386.565 265.234 384.641 263.555 384.436 261.26L384.426 261.152H386.155L386.165 261.23C386.34 262.627 387.59 263.691 389.28 263.691C391.194 263.691 392.522 262.363 392.522 260.469V260.449C392.512 258.594 391.174 257.266 389.309 257.266C388.352 257.266 387.532 257.549 386.907 258.115C386.653 258.35 386.428 258.623 386.243 258.945H384.69L385.413 250.908H393.479V252.471H386.858L386.379 257.207H386.419C387.083 256.26 388.254 255.752 389.622 255.752C392.327 255.752 394.28 257.715 394.28 260.42V260.439C394.27 263.262 392.19 265.234 389.26 265.234Z" fill="white"/>
<path d="M473.108 265V252.773H473.068L469.338 255.371V253.604L473.088 250.908H474.807V265H473.108ZM483.859 265.234C481.261 265.234 478.507 263.438 478.507 258.213V258.193C478.507 253.447 480.529 250.674 483.976 250.674C486.368 250.674 488.156 252.041 488.624 254.092L488.654 254.219H486.866L486.827 254.111C486.407 252.949 485.402 252.227 483.956 252.227C481.329 252.227 480.294 254.775 480.216 257.734C480.206 257.832 480.206 257.93 480.206 258.037H480.245C480.812 256.787 482.257 255.771 484.171 255.771C486.857 255.771 488.849 257.754 488.849 260.43V260.449C488.849 263.223 486.74 265.234 483.859 265.234ZM480.626 260.43C480.626 262.236 482.032 263.672 483.839 263.672C485.636 263.672 487.062 262.266 487.062 260.488V260.469C487.062 258.633 485.724 257.314 483.868 257.314C482.023 257.314 480.626 258.623 480.626 260.42V260.43Z" fill="white"/>
<path d="M569.477 264V251.773H569.438L565.708 254.371V252.604L569.458 249.908H571.177V264H569.477ZM575.941 264L582.318 251.51V251.471H574.73V249.908H584.057V251.539L577.787 264H575.941Z" fill="white"/>
<path d="M663.617 265V252.773H663.578L659.847 255.371V253.604L663.597 250.908H665.316V265H663.617ZM674.124 265.234C671.135 265.234 669.006 263.555 669.006 261.191V261.172C669.006 259.434 670.227 257.988 672.034 257.568V257.529C670.491 257.051 669.514 255.879 669.514 254.395V254.375C669.514 252.246 671.458 250.674 674.124 250.674C676.79 250.674 678.733 252.246 678.733 254.375V254.395C678.733 255.879 677.756 257.051 676.213 257.529V257.568C678.02 257.988 679.241 259.434 679.241 261.172V261.191C679.241 263.555 677.112 265.234 674.124 265.234ZM674.124 256.875C675.823 256.875 676.985 255.908 676.985 254.541V254.521C676.985 253.154 675.823 252.188 674.124 252.188C672.424 252.188 671.262 253.154 671.262 254.521V254.541C671.262 255.908 672.424 256.875 674.124 256.875ZM674.124 263.701C676.067 263.701 677.454 262.607 677.454 261.084V261.064C677.454 259.521 676.077 258.418 674.124 258.418C672.17 258.418 670.794 259.521 670.794 261.064V261.084C670.794 262.607 672.18 263.701 674.124 263.701Z" fill="white"/>
<path d="M92.4409 311V298.773H92.4018L88.6713 301.371V299.604L92.4213 296.908H94.1401V311H92.4409ZM103.055 296.674C105.653 296.674 108.407 298.471 108.407 303.695V303.715C108.407 308.461 106.385 311.234 102.938 311.234C100.545 311.234 98.7584 309.867 98.2896 307.816L98.2603 307.689H100.047L100.086 307.797C100.506 308.959 101.512 309.682 102.958 309.682C105.585 309.682 106.62 307.133 106.698 304.174C106.708 304.076 106.708 303.979 106.708 303.871H106.669C106.102 305.121 104.657 306.137 102.743 306.137C100.057 306.137 98.065 304.154 98.065 301.479V301.459C98.065 298.686 100.174 296.674 103.055 296.674ZM103.045 304.594C104.891 304.594 106.288 303.285 106.288 301.488V301.479C106.288 299.672 104.881 298.236 103.075 298.236C101.278 298.236 99.8521 299.643 99.8521 301.42V301.439C99.8521 303.275 101.19 304.594 103.045 304.594Z" fill="white"/>
<path d="M183.391 311V309.789L188.352 304.613C190.256 302.631 190.695 301.869 190.695 300.697V300.678C190.686 299.242 189.602 298.207 188.068 298.207C186.311 298.207 185.002 299.418 185.002 300.932V300.98H183.303V300.922C183.303 298.48 185.412 296.674 188.039 296.674C190.588 296.674 192.453 298.383 192.453 300.59V300.609C192.453 302.152 191.74 303.314 189.152 305.961L185.803 309.398V309.438H192.688V311H183.391ZM200.011 311.234C196.769 311.234 194.845 308.432 194.845 303.959V303.939C194.845 299.467 196.769 296.674 200.011 296.674C203.253 296.674 205.197 299.467 205.197 303.939V303.959C205.197 308.432 203.253 311.234 200.011 311.234ZM200.011 309.701C202.159 309.701 203.429 307.494 203.429 303.959V303.939C203.429 300.404 202.159 298.217 200.011 298.217C197.863 298.217 196.613 300.404 196.613 303.939V303.959C196.613 307.494 197.863 309.701 200.011 309.701Z" fill="white"/>
<path d="M279.688 311V309.789L284.649 304.613C286.554 302.631 286.993 301.869 286.993 300.697V300.678C286.983 299.242 285.899 298.207 284.366 298.207C282.608 298.207 281.3 299.418 281.3 300.932V300.98H279.6V300.922C279.6 298.48 281.71 296.674 284.337 296.674C286.886 296.674 288.751 298.383 288.751 300.59V300.609C288.751 302.152 288.038 303.314 285.45 305.961L282.1 309.398V309.438H288.985V311H279.688ZM294.99 311V298.773H294.951L291.221 301.371V299.604L294.971 296.908H296.689V311H294.99Z" fill="white"/>
<path d="M374.124 311V309.789L379.085 304.613C380.99 302.631 381.429 301.869 381.429 300.697V300.678C381.419 299.242 380.335 298.207 378.802 298.207C377.044 298.207 375.736 299.418 375.736 300.932V300.98H374.037V300.922C374.037 298.48 376.146 296.674 378.773 296.674C381.322 296.674 383.187 298.383 383.187 300.59V300.609C383.187 302.152 382.474 303.314 379.886 305.961L376.537 309.398V309.438H383.421V311H374.124ZM385.833 311V309.789L390.794 304.613C392.698 302.631 393.137 301.869 393.137 300.697V300.678C393.128 299.242 392.044 298.207 390.51 298.207C388.753 298.207 387.444 299.418 387.444 300.932V300.98H385.745V300.922C385.745 298.48 387.854 296.674 390.481 296.674C393.03 296.674 394.895 298.383 394.895 300.59V300.609C394.895 302.152 394.182 303.314 391.594 305.961L388.245 309.398V309.438H395.129V311H385.833Z" fill="white"/>
<path d="M468.537 311V309.789L473.498 304.613C475.402 302.631 475.842 301.869 475.842 300.697V300.678C475.832 299.242 474.748 298.207 473.215 298.207C471.457 298.207 470.149 299.418 470.149 300.932V300.98H468.449V300.922C468.449 298.48 470.559 296.674 473.186 296.674C475.734 296.674 477.6 298.383 477.6 300.59V300.609C477.6 302.152 476.887 303.314 474.299 305.961L470.949 309.398V309.438H477.834V311H468.537ZM484.991 311.234C482.081 311.234 480.197 309.613 480.011 307.387L480.001 307.27H481.691L481.7 307.367C481.847 308.754 483.116 309.711 484.991 309.711C486.837 309.711 488.097 308.676 488.097 307.182V307.162C488.097 305.434 486.857 304.467 484.884 304.467H483.116V302.982H484.806C486.486 302.982 487.657 301.947 487.657 300.541V300.521C487.657 299.047 486.691 298.197 484.972 298.197C483.312 298.197 482.13 299.076 481.984 300.502L481.974 300.6H480.284L480.294 300.502C480.519 298.207 482.335 296.674 484.972 296.674C487.657 296.674 489.425 298.168 489.425 300.307V300.326C489.425 302.064 488.195 303.256 486.437 303.627V303.666C488.488 303.842 489.884 305.121 489.884 307.123V307.143C489.884 309.496 487.814 311.234 484.991 311.234Z" fill="white"/>
<path d="M564.321 310V308.789L569.282 303.613C571.186 301.631 571.626 300.869 571.626 299.697V299.678C571.616 298.242 570.532 297.207 568.999 297.207C567.241 297.207 565.932 298.418 565.932 299.932V299.98H564.233V299.922C564.233 297.48 566.343 295.674 568.97 295.674C571.518 295.674 573.384 297.383 573.384 299.59V299.609C573.384 301.152 572.671 302.314 570.083 304.961L566.733 308.398V308.438H573.618V310H564.321ZM582.24 310V307.07H575.16V305.479L581.342 295.908H583.939V305.527H585.932V307.07H583.939V310H582.24ZM576.898 305.527H582.24V297.412H582.182L576.898 305.488V305.527Z" fill="white"/>
<path d="M658.939 311V309.789L663.9 304.613C665.804 302.631 666.244 301.869 666.244 300.697V300.678C666.234 299.242 665.15 298.207 663.617 298.207C661.859 298.207 660.55 299.418 660.55 300.932V300.98H658.851V300.922C658.851 298.48 660.96 296.674 663.587 296.674C666.136 296.674 668.001 298.383 668.001 300.59V300.609C668.001 302.152 667.289 303.314 664.701 305.961L661.351 309.398V309.438H668.236V311H658.939ZM675.491 311.234C672.795 311.234 670.872 309.555 670.667 307.26L670.657 307.152H672.385L672.395 307.23C672.571 308.627 673.821 309.691 675.51 309.691C677.424 309.691 678.753 308.363 678.753 306.469V306.449C678.743 304.594 677.405 303.266 675.54 303.266C674.583 303.266 673.762 303.549 673.137 304.115C672.883 304.35 672.659 304.623 672.473 304.945H670.92L671.643 296.908H679.71V298.471H673.088L672.61 303.207H672.649C673.313 302.26 674.485 301.752 675.852 301.752C678.557 301.752 680.51 303.715 680.51 306.42V306.439C680.501 309.262 678.42 311.234 675.491 311.234Z" fill="white"/>
<path d="M87.6166 357V355.789L92.5776 350.613C94.4819 348.631 94.9213 347.869 94.9213 346.697V346.678C94.9116 345.242 93.8276 344.207 92.2944 344.207C90.5366 344.207 89.228 345.418 89.228 346.932V346.98H87.5288V346.922C87.5288 344.48 89.6381 342.674 92.2651 342.674C94.8139 342.674 96.6791 344.383 96.6791 346.59V346.609C96.6791 348.152 95.9663 349.314 93.3784 351.961L90.0288 355.398V355.438H96.9135V357H87.6166ZM104.422 357.234C101.825 357.234 99.0709 355.438 99.0709 350.213V350.193C99.0709 345.447 101.092 342.674 104.54 342.674C106.932 342.674 108.719 344.041 109.188 346.092L109.217 346.219H107.43L107.391 346.111C106.971 344.949 105.965 344.227 104.52 344.227C101.893 344.227 100.858 346.775 100.78 349.734C100.77 349.832 100.77 349.93 100.77 350.037H100.809C101.376 348.787 102.821 347.771 104.735 347.771C107.42 347.771 109.413 349.754 109.413 352.43V352.449C109.413 355.223 107.303 357.234 104.422 357.234ZM101.19 352.43C101.19 354.236 102.596 355.672 104.403 355.672C106.2 355.672 107.626 354.266 107.626 352.488V352.469C107.626 350.633 106.288 349.314 104.432 349.314C102.586 349.314 101.19 350.623 101.19 352.42V352.43Z" fill="white"/>
<path d="M183.986 357V355.789L188.947 350.613C190.852 348.631 191.291 347.869 191.291 346.697V346.678C191.281 345.242 190.197 344.207 188.664 344.207C186.906 344.207 185.598 345.418 185.598 346.932V346.98H183.899V346.922C183.899 344.48 186.008 342.674 188.635 342.674C191.184 342.674 193.049 344.383 193.049 346.59V346.609C193.049 348.152 192.336 349.314 189.748 351.961L186.399 355.398V355.438H193.283V357H183.986ZM196.505 357L202.882 344.51V344.471H195.294V342.908H204.62V344.539L198.351 357H196.505Z" fill="white"/>
<path d="M278.126 357V355.789L283.087 350.613C284.991 348.631 285.43 347.869 285.43 346.697V346.678C285.421 345.242 284.337 344.207 282.804 344.207C281.046 344.207 279.737 345.418 279.737 346.932V346.98H278.038V346.922C278.038 344.48 280.147 342.674 282.774 342.674C285.323 342.674 287.188 344.383 287.188 346.59V346.609C287.188 348.152 286.475 349.314 283.888 351.961L280.538 355.398V355.438H287.423V357H278.126ZM294.687 357.234C291.699 357.234 289.57 355.555 289.57 353.191V353.172C289.57 351.434 290.791 349.988 292.598 349.568V349.529C291.055 349.051 290.078 347.879 290.078 346.395V346.375C290.078 344.246 292.021 342.674 294.687 342.674C297.353 342.674 299.297 344.246 299.297 346.375V346.395C299.297 347.879 298.32 349.051 296.777 349.529V349.568C298.584 349.988 299.805 351.434 299.805 353.172V353.191C299.805 355.555 297.676 357.234 294.687 357.234ZM294.687 348.875C296.387 348.875 297.549 347.908 297.549 346.541V346.521C297.549 345.154 296.387 344.188 294.687 344.188C292.988 344.188 291.826 345.154 291.826 346.521V346.541C291.826 347.908 292.988 348.875 294.687 348.875ZM294.687 355.701C296.631 355.701 298.018 354.607 298.018 353.084V353.064C298.018 351.521 296.641 350.418 294.687 350.418C292.734 350.418 291.357 351.521 291.357 353.064V353.084C291.357 354.607 292.744 355.701 294.687 355.701Z" fill="white"/>
<path d="M373.617 357V355.789L378.578 350.613C380.482 348.631 380.921 347.869 380.921 346.697V346.678C380.912 345.242 379.828 344.207 378.294 344.207C376.537 344.207 375.228 345.418 375.228 346.932V346.98H373.529V346.922C373.529 344.48 375.638 342.674 378.265 342.674C380.814 342.674 382.679 344.383 382.679 346.59V346.609C382.679 348.152 381.966 349.314 379.378 351.961L376.029 355.398V355.438H382.914V357H373.617ZM390.286 342.674C392.883 342.674 395.637 344.471 395.637 349.695V349.715C395.637 354.461 393.616 357.234 390.169 357.234C387.776 357.234 385.989 355.867 385.52 353.816L385.491 353.689H387.278L387.317 353.797C387.737 354.959 388.743 355.682 390.188 355.682C392.815 355.682 393.85 353.133 393.928 350.174C393.938 350.076 393.938 349.979 393.938 349.871H393.899C393.333 351.121 391.887 352.137 389.973 352.137C387.288 352.137 385.295 350.154 385.295 347.479V347.459C385.295 344.686 387.405 342.674 390.286 342.674ZM390.276 350.594C392.122 350.594 393.518 349.285 393.518 347.488V347.479C393.518 345.672 392.112 344.236 390.305 344.236C388.508 344.236 387.083 345.643 387.083 347.42V347.439C387.083 349.275 388.42 350.594 390.276 350.594Z" fill="white"/>
<path d="M472.883 357.234C469.973 357.234 468.088 355.613 467.902 353.387L467.893 353.27H469.582L469.592 353.367C469.738 354.754 471.008 355.711 472.883 355.711C474.729 355.711 475.988 354.676 475.988 353.182V353.162C475.988 351.434 474.748 350.467 472.776 350.467H471.008V348.982H472.697C474.377 348.982 475.549 347.947 475.549 346.541V346.521C475.549 345.047 474.582 344.197 472.863 344.197C471.203 344.197 470.022 345.076 469.875 346.502L469.865 346.6H468.176L468.186 346.502C468.41 344.207 470.227 342.674 472.863 342.674C475.549 342.674 477.317 344.168 477.317 346.307V346.326C477.317 348.064 476.086 349.256 474.328 349.627V349.666C476.379 349.842 477.776 351.121 477.776 353.123V353.143C477.776 355.496 475.705 357.234 472.883 357.234ZM485.265 357.234C482.023 357.234 480.099 354.432 480.099 349.959V349.939C480.099 345.467 482.023 342.674 485.265 342.674C488.507 342.674 490.45 345.467 490.45 349.939V349.959C490.45 354.432 488.507 357.234 485.265 357.234ZM485.265 355.701C487.413 355.701 488.683 353.494 488.683 349.959V349.939C488.683 346.404 487.413 344.217 485.265 344.217C483.116 344.217 481.866 346.404 481.866 349.939V349.959C481.866 353.494 483.116 355.701 485.265 355.701Z" fill="white"/>
<path d="M570.18 356.234C567.27 356.234 565.386 354.613 565.2 352.387L565.19 352.27H566.88L566.889 352.367C567.036 353.754 568.305 354.711 570.18 354.711C572.026 354.711 573.286 353.676 573.286 352.182V352.162C573.286 350.434 572.046 349.467 570.073 349.467H568.305V347.982H569.995C571.675 347.982 572.846 346.947 572.846 345.541V345.521C572.846 344.047 571.88 343.197 570.161 343.197C568.501 343.197 567.319 344.076 567.173 345.502L567.163 345.6H565.473L565.483 345.502C565.708 343.207 567.524 341.674 570.161 341.674C572.846 341.674 574.614 343.168 574.614 345.307V345.326C574.614 347.064 573.384 348.256 571.626 348.627V348.666C573.677 348.842 575.073 350.121 575.073 352.123V352.143C575.073 354.496 573.003 356.234 570.18 356.234ZM581.244 356V343.773H581.205L577.475 346.371V344.604L581.225 341.908H582.943V356H581.244Z" fill="white"/>
</g>
<defs>
<filter id="filter0_d_0_265" x="0" y="0" width="768" height="464" filterUnits="userSpaceOnUse" color-interpolation-filters="sRGB">
<feFlood flood-opacity="0" result="BackgroundImageFix"/>
<feColorMatrix in="SourceAlpha" type="matrix" values="0 0 0 0 0 0 0 0 0 0 0 0 0 0 0 0 0 0 127 0" result="hardAlpha"/>
<feOffset dy="10"/>
<feGaussianBlur stdDeviation="30"/>
<feColorMatrix type="matrix" values="0 0 0 0 0 0 0 0 0 0 0 0 0 0 0 0 0 0 0.1 0"/>
<feBlend mode="normal" in2="BackgroundImageFix" result="effect1_dropShadow_0_265"/>
<feBlend mode="normal" in="SourceGraphic" in2="effect1_dropShadow_0_265" result="shape"/>
</filter>
<clipPath id="clip0_0_265">
<rect width="100.69" height="22" fill="white" transform="translate(76 77)"/>
</clipPath>
</defs>
</svg>
