<svg width="43" height="35" viewBox="0 0 43 35" fill="none" xmlns="http://www.w3.org/2000/svg">
<g clip-path="url(#clip0_1_1548)">
<path d="M31.6131 15.0307C31.629 15.0408 32.5712 15.6928 34.0307 15.6937C35.5092 15.6902 36.5866 14.7842 36.6008 14.7749C36.671 14.7166 36.6807 14.6119 36.622 14.5417C36.5637 14.4714 36.459 14.4622 36.3887 14.5205L36.3795 14.5284C36.2726 14.6154 35.2844 15.3655 34.0307 15.3624C33.3514 15.3624 32.7908 15.2096 32.4012 15.0567C32.2064 14.9808 32.0544 14.9048 31.9524 14.8482C31.9011 14.82 31.8623 14.797 31.8371 14.7811L31.8092 14.763L31.8017 14.7581C31.7262 14.706 31.6233 14.725 31.5712 14.8001C31.519 14.8752 31.5376 14.9786 31.6131 15.0307Z" fill="#CEA561"/>
<path d="M36.2522 14.9061C36.2522 14.9061 36.5822 15.1018 37.0045 15.0139C37.4268 14.926 35.6669 16.2282 33.854 15.6125C33.854 15.6125 35.1651 15.7136 36.2522 14.9061Z" fill="#CEA561"/>
<path d="M25.2143 14.7581L25.2068 14.763C25.1176 14.8226 24.2575 15.3633 22.9853 15.3624C22.3161 15.3629 21.7237 15.1522 21.2992 14.9397C21.0867 14.8337 20.9171 14.7276 20.8013 14.6486C20.743 14.6088 20.6989 14.5761 20.6693 14.5536L20.6366 14.5284L20.6269 14.5205C20.5566 14.4622 20.4519 14.4714 20.3936 14.5417C20.3349 14.6119 20.3446 14.7166 20.4148 14.7749C20.429 14.7842 21.5064 15.6902 22.9853 15.6937C24.4444 15.6924 25.387 15.0408 25.4029 15.0307C25.4785 14.9786 25.497 14.8752 25.4449 14.8001C25.3928 14.725 25.2899 14.706 25.2143 14.7581Z" fill="#CEA561"/>
<path d="M20.7627 14.8911C20.7627 14.8911 20.4327 15.0868 20.0104 14.9989C19.8324 14.9618 20.0404 15.1703 20.4755 15.3792C21.0763 15.6668 22.11 15.9544 23.1609 15.5975C23.1609 15.5975 21.8493 15.6986 20.7627 14.8911Z" fill="#CEA561"/>
<path d="M34.4693 17.6092C32.7466 17.6061 31.352 16.7058 31.3542 15.5993C31.356 14.4923 32.7541 13.5977 34.4773 13.6013C36.1996 13.6044 37.5951 14.5046 37.5929 15.6112C37.5907 16.7177 36.1921 17.6127 34.4693 17.6092ZM28.6375 27.9118C26.9152 27.9083 25.5193 27.6375 25.5211 26.5305C25.5233 25.4235 26.9209 24.8475 28.6437 24.8506C30.3665 24.8541 31.7615 25.4359 31.7593 26.5424C31.7575 27.6494 30.3603 27.9149 28.6375 27.9118ZM22.8459 17.5866C21.1231 17.5835 19.7281 16.6837 19.7303 15.5767C19.7325 14.4697 21.1311 13.5757 22.8534 13.5787C24.5766 13.5818 25.9712 14.4821 25.969 15.5886C25.9668 16.6956 24.5687 17.5902 22.8459 17.5866ZM40.682 17.6211C40.6881 14.2515 39.8082 11.139 38.3173 8.62819L35.7826 9.66274L37.6366 7.58613C35.4412 4.50545 32.247 2.5618 28.6866 2.55517C25.1421 2.54855 21.9527 4.46172 19.7462 7.50971L21.6294 9.63535L19.0456 8.56944C17.5371 11.0776 16.6399 14.195 16.6333 17.5747C16.6267 21.1912 17.8538 24.5113 19.6963 27.1096L21.5145 26.3679L20.2251 27.812C22.576 30.7756 25.7357 32.6353 28.6287 32.6406C31.3829 32.6459 34.5842 30.7729 36.9952 27.7815L35.7672 26.3953L37.5067 27.1132C39.3872 24.5268 40.6749 21.2239 40.682 17.6211Z" fill="#151515"/>
<path d="M34.3038 17.4435L34.3042 17.2779C33.472 17.2765 32.7215 17.057 32.1901 16.7138C31.6564 16.3688 31.3534 15.9147 31.3538 15.4358V15.4349H31.2284L31.3538 15.4385V15.4349H31.2284L31.3538 15.4385V15.4336C31.3543 14.9552 31.6578 14.5029 32.1909 14.1596C32.7223 13.8182 33.4715 13.6008 34.3024 13.6013H34.3108C35.1431 13.6022 35.8936 13.8222 36.425 14.1649C36.9586 14.5099 37.2621 14.964 37.2612 15.4429L37.2616 15.453L37.4273 15.4455L37.2616 15.4451C37.2612 15.9235 36.9577 16.3763 36.4246 16.7195C35.8936 17.0605 35.1439 17.2783 34.3139 17.2779H34.3042L34.3038 17.4435V17.6092H34.3139C35.2014 17.6087 36.0075 17.3799 36.6035 16.9982C37.1967 16.6183 37.5907 16.0724 37.5929 15.446L37.5925 15.4376L37.4573 15.4442L37.5929 15.4433L37.5925 15.4376L37.4573 15.4442L37.5929 15.4433V15.4429C37.5921 14.8161 37.1985 14.2683 36.6048 13.8866C36.0084 13.5032 35.2014 13.2717 34.3122 13.27H34.3024C33.4141 13.2704 32.6079 13.4992 32.012 13.8809C31.4188 14.2604 31.0247 14.8068 31.023 15.4332L31.1886 15.4336L31.023 15.4283V15.4358C31.0234 16.0631 31.417 16.6108 32.0107 16.9925C32.6066 17.3759 33.4141 17.607 34.3038 17.6092V17.4435ZM28.4719 27.7462L28.4724 27.5805C27.6207 27.5792 26.8543 27.5085 26.3251 27.3141C26.0605 27.2174 25.8577 27.0915 25.7252 26.9396C25.5936 26.7863 25.5225 26.6087 25.5211 26.3671V26.3666L25.3842 26.3662L25.5211 26.3728V26.3666L25.3842 26.3662L25.5211 26.3728V26.3649C25.5225 26.1241 25.5958 25.92 25.7332 25.7363C25.939 25.4611 26.3021 25.2358 26.7774 25.0834C27.2519 24.9305 27.8341 24.8506 28.4636 24.8506H28.4768H28.4777C29.3201 24.8519 30.0777 24.9972 30.6073 25.2645C30.8719 25.3979 31.0786 25.56 31.2165 25.7442C31.3543 25.9289 31.4276 26.1329 31.4281 26.3741L31.4285 26.3843L31.5937 26.3768L31.4281 26.3763C31.4267 26.6171 31.3561 26.7942 31.2253 26.9462C31.03 27.1737 30.6722 27.3402 30.1965 27.4409C29.7221 27.5425 29.1368 27.5805 28.5029 27.5805H28.4719V27.7462V27.9118H28.5029C29.3665 27.9109 30.1514 27.846 30.7456 27.6296C31.042 27.5209 31.2938 27.372 31.4753 27.1635C31.6573 26.9559 31.7602 26.6869 31.7598 26.3772L31.7594 26.3693L31.6246 26.3755L31.7594 26.375V26.3693L31.6246 26.3755L31.7594 26.375V26.3741C31.7602 26.0627 31.6591 25.7804 31.4815 25.545C31.2151 25.1916 30.7893 24.9403 30.2716 24.772C29.753 24.6045 29.1381 24.521 28.4786 24.5193H28.479H28.4636C27.5871 24.5202 26.7894 24.6646 26.1926 24.9628C25.8948 25.1125 25.6457 25.302 25.4686 25.537C25.2914 25.7716 25.1898 26.0534 25.1898 26.3644L25.3555 26.3649L25.1903 26.3569L25.1898 26.3671C25.1889 26.678 25.2923 26.9488 25.4756 27.1573C25.7517 27.471 26.1802 27.6508 26.6948 27.7616C27.2108 27.8716 27.8195 27.9101 28.4715 27.9118L28.4719 27.7462ZM22.6803 17.421V17.2553C21.8485 17.2545 21.098 17.0345 20.5666 16.6917C20.033 16.3467 19.7295 15.8921 19.7304 15.4137V15.4124H19.6049L19.7304 15.4164V15.4124H19.6049L19.7304 15.4164V15.4115C19.7304 14.9331 20.0343 14.4803 20.5675 14.1371C21.0989 13.7961 21.8481 13.5783 22.6786 13.5788H22.6869H22.6878C23.5196 13.5796 24.2701 13.7996 24.8015 14.1429C25.3352 14.4879 25.6386 14.942 25.6378 15.4204L25.6382 15.431L25.8034 15.423L25.6378 15.4226C25.6378 15.901 25.3338 16.3538 24.8011 16.697C24.2701 17.038 23.5205 17.2558 22.69 17.2553H22.6803V17.421L22.6799 17.5866H22.69C23.5779 17.5862 24.3841 17.3574 24.98 16.9757C25.5733 16.5963 25.9673 16.0498 25.9691 15.4235V15.4155L25.8334 15.4217L25.9691 15.4212V15.4155L25.8334 15.4217L25.9691 15.4212V15.4204C25.9682 14.7935 25.5746 14.2458 24.9809 13.8641C24.385 13.4807 23.5779 13.2497 22.6883 13.2475H22.6887H22.6786C21.7907 13.2479 20.9845 13.4767 20.3886 13.8584C19.7953 14.2378 19.4009 14.7843 19.3991 15.4106L19.5647 15.4111L19.3991 15.4058V15.4137C19.4 16.0406 19.7936 16.5883 20.3873 16.97C20.9832 17.3534 21.7907 17.5844 22.6799 17.5866L22.6803 17.421ZM40.5164 17.4554L40.682 17.4559V17.4188C40.682 14.0342 39.7954 10.9067 38.2944 8.37818C38.2525 8.3075 38.165 8.27834 38.0895 8.30926L36.2178 9.07303L37.5947 7.53093C37.6464 7.47306 37.6508 7.38735 37.6062 7.32418C35.3869 4.20949 32.1441 2.23095 28.5214 2.22388H28.5029C24.9036 2.22388 21.6727 4.17018 19.4464 7.24688C19.4009 7.30961 19.4053 7.39575 19.457 7.45406L20.8648 9.04344L18.9432 8.25052C18.8677 8.21915 18.7802 8.24786 18.7383 8.31809C17.2134 10.8537 16.3087 14.0002 16.3021 17.4091V17.4395C16.3025 21.0821 17.5403 24.4234 19.3956 27.0398C19.4402 27.1026 19.5219 27.1264 19.5935 27.0973L20.7482 26.6259L19.9358 27.5359C19.8823 27.596 19.8797 27.6861 19.9296 27.7493C22.3048 30.7407 25.4977 32.6322 28.4627 32.6406H28.4746C31.3022 32.6366 34.5264 30.7341 36.9586 27.7197C37.0094 27.6569 37.0072 27.5668 36.9538 27.5063L36.2006 26.656L37.278 27.1008C37.3487 27.1299 37.4304 27.107 37.4754 27.0447C39.3736 24.4336 40.6745 21.098 40.682 17.4559L40.5164 17.4554H40.3507C40.3441 21.0181 39.0697 24.2882 37.2073 26.8503L37.3412 26.9475L37.4043 26.7942L35.6648 26.0764C35.5936 26.0468 35.511 26.0707 35.4664 26.1334C35.4218 26.1961 35.4262 26.2818 35.4775 26.3392L36.7055 27.7258L36.8296 27.6159L36.7006 27.512C34.3179 30.4721 31.1511 32.3133 28.4746 32.3093H28.4631C25.6422 32.3067 22.5155 30.4788 20.1894 27.543L20.0595 27.6463L20.1832 27.7563L21.4726 26.3123C21.5238 26.2549 21.5287 26.1696 21.4841 26.1064C21.4399 26.0437 21.3578 26.0194 21.2862 26.0486L19.468 26.7907L19.5307 26.944L19.6659 26.8481C17.8464 24.283 16.6334 21.0061 16.6334 17.4395V17.4095C16.64 14.0589 17.5297 10.9703 19.0223 8.48905L18.88 8.4038L18.8169 8.55664L21.4006 9.62299C21.4717 9.65215 21.5539 9.62873 21.5985 9.566C21.6431 9.50328 21.6387 9.41758 21.5879 9.35972L19.7048 7.23408L19.5806 7.34407L19.7149 7.44125C21.894 4.43213 25.0273 2.55519 28.5029 2.55519H28.521C32.0187 2.56181 35.1638 4.47012 37.3363 7.51679L37.471 7.42049L37.3473 7.31006L35.4934 9.38667C35.4421 9.44409 35.4373 9.52934 35.4819 9.59251C35.5261 9.65524 35.6082 9.67954 35.6798 9.65038L38.2145 8.61627L38.1517 8.46254L38.0095 8.54737C39.4787 11.022 40.3507 14.0921 40.3507 17.4188V17.4554H40.5164Z" fill="#CEA561"/>
<path d="M19.5685 15.0429C19.5861 15.0542 20.6294 15.7761 22.2454 15.7771C23.8825 15.7732 25.0754 14.77 25.0911 14.7597C25.1688 14.6952 25.1796 14.5793 25.1146 14.5015C25.05 14.4237 24.9341 14.4134 24.8563 14.478L24.846 14.4868C24.7277 14.5832 23.6335 15.4137 22.2454 15.4103C21.4931 15.4103 20.8725 15.241 20.4411 15.0718C20.2254 14.9877 20.0571 14.9035 19.9441 14.8409C19.8874 14.8096 19.8443 14.7842 19.8165 14.7666L19.7856 14.7465L19.7773 14.7412C19.6937 14.6834 19.5797 14.7045 19.522 14.7876C19.4643 14.8708 19.4848 14.9852 19.5685 15.0429Z" fill="#CEA561"/>
<path d="M24.7051 14.9051C24.7051 14.9051 25.0705 15.1218 25.5381 15.0244C26.0057 14.9271 24.057 16.369 22.0497 15.6872C22.0497 15.6872 23.5014 15.7992 24.7051 14.9051Z" fill="#CEA561"/>
<path d="M12.4831 14.7412L12.4748 14.7465C12.376 14.8126 11.4237 15.4112 10.015 15.4103C9.27404 15.4108 8.61812 15.1774 8.14809 14.9422C7.91282 14.8248 7.725 14.7074 7.59685 14.6199C7.53229 14.5758 7.48338 14.5396 7.45061 14.5147L7.41441 14.4868L7.40365 14.478C7.32589 14.4134 7.20996 14.4237 7.1454 14.5015C7.08035 14.5793 7.09111 14.6952 7.16888 14.7597C7.18453 14.77 8.37749 15.7732 10.015 15.7771C11.6306 15.7756 12.6744 15.0542 12.692 15.0429C12.7756 14.9852 12.7961 14.8708 12.7384 14.7876C12.6807 14.7045 12.5668 14.6834 12.4831 14.7412Z" fill="#CEA561"/>
<path d="M7.55324 14.8886C7.55324 14.8886 7.18787 15.1053 6.72027 15.008C6.52316 14.9669 6.75354 15.1977 7.23531 15.4291C7.90051 15.7475 9.04504 16.0659 10.2086 15.6707C10.2086 15.6707 8.75646 15.7827 7.55324 14.8886Z" fill="#CEA561"/>
<path d="M22.7304 17.898C20.8229 17.8946 19.2787 16.8978 19.2812 15.6726C19.2831 14.4468 20.8312 13.4564 22.7392 13.4603C24.6463 13.4637 26.1914 14.4605 26.1889 15.6858C26.1865 16.911 24.638 17.9019 22.7304 17.898ZM16.2731 29.3056C14.3661 29.3017 12.8205 29.0019 12.8224 27.7762C12.8249 26.5505 14.3724 25.9127 16.28 25.9161C18.1875 25.92 19.7322 26.5642 19.7297 27.7894C19.7278 29.0151 18.1807 29.3091 16.2731 29.3056ZM9.86036 17.8731C7.95281 17.8697 6.40819 16.8733 6.41063 15.6476C6.41308 14.4219 7.96161 13.4319 9.86867 13.4353C11.7767 13.4388 13.3208 14.4356 13.3184 15.6608C13.3159 16.8865 11.7679 17.877 9.86036 17.8731ZM29.6093 17.9112C29.6162 14.1803 28.6419 10.734 26.9911 7.95383L24.1846 9.09935L26.2374 6.80002C23.8065 3.38894 20.2697 1.23683 16.3274 1.22949C12.4028 1.22215 8.87136 3.34052 6.42823 6.71541L8.51333 9.06902L5.6525 7.88879C3.98218 10.666 2.98878 14.1177 2.98144 17.8599C2.97411 21.8643 4.33287 25.5404 6.37297 28.4174L8.38616 27.5962L6.95844 29.1951C9.5615 32.4766 13.0601 34.5357 16.2634 34.5416C19.313 34.5475 22.8576 32.4736 25.5272 29.1614L24.1674 27.6265L26.0936 28.4213C28.1757 25.5576 29.6015 21.9004 29.6093 17.9112Z" fill="#483A22"/>
<path d="M22.547 17.7146L22.5474 17.5312C21.626 17.5297 20.795 17.2866 20.2066 16.9066C19.6157 16.5246 19.2802 16.0218 19.2807 15.4916V15.4906H19.1418L19.2807 15.4945V15.4906H19.1418L19.2807 15.4945V15.4891C19.2811 14.9594 19.6172 14.4586 20.2075 14.0785C20.7959 13.7005 21.6255 13.4598 22.5455 13.4603H22.5548C23.4763 13.4613 24.3073 13.7049 24.8957 14.0844C25.4865 14.4664 25.8226 14.9692 25.8216 15.4994L25.8221 15.5107L26.0055 15.5024L25.8221 15.5019C25.8216 16.0316 25.4856 16.5329 24.8952 16.913C24.3073 17.2906 23.4773 17.5317 22.5582 17.5312H22.5474L22.547 17.7146V17.898H22.5582C23.5408 17.8975 24.4335 17.6442 25.0933 17.2216C25.7502 16.8009 26.1865 16.1964 26.1889 15.5028L26.1884 15.4936L26.0388 15.5009L26.1889 15.4999L26.1884 15.4936L26.0388 15.5009L26.1889 15.4999V15.4994C26.1879 14.8054 25.7521 14.1989 25.0947 13.7763C24.4344 13.3517 23.5408 13.0954 22.5562 13.0935H22.5455C21.5619 13.094 20.6693 13.3473 20.0094 13.7699C19.3526 14.1901 18.9163 14.7951 18.9143 15.4887L19.0977 15.4891L18.9143 15.4833V15.4916C18.9148 16.1861 19.3506 16.7926 20.008 17.2152C20.6678 17.6398 21.5619 17.8956 22.547 17.898V17.7146ZM16.0897 29.1222L16.0902 28.9388C15.1471 28.9373 14.2985 28.8591 13.7126 28.6439C13.4196 28.5368 13.1951 28.3974 13.0484 28.2291C12.9026 28.0594 12.8238 27.8628 12.8224 27.5952V27.5947L12.6708 27.5942L12.8224 27.6016V27.5947L12.6708 27.5942L12.8224 27.6016V27.5928C12.8238 27.3262 12.905 27.1002 13.0572 26.8968C13.2851 26.592 13.6871 26.3426 14.2134 26.1739C14.7387 26.0046 15.3834 25.9161 16.0804 25.9161H16.0951H16.096C17.0288 25.9176 17.8676 26.0785 18.4541 26.3744C18.747 26.5221 18.9759 26.7016 19.1285 26.9056C19.2811 27.11 19.3623 27.336 19.3628 27.603L19.3633 27.6143L19.5462 27.606L19.3628 27.6055C19.3614 27.8721 19.2831 28.0682 19.1383 28.2365C18.9221 28.4883 18.5259 28.6727 17.9992 28.7843C17.4739 28.8968 16.8258 28.9388 16.1239 28.9388H16.0897V29.1222V29.3057H16.1239C17.0801 29.3047 17.9493 29.2328 18.6071 28.9931C18.9353 28.8728 19.2141 28.708 19.4152 28.4771C19.6167 28.2472 19.7306 27.9493 19.7302 27.6065L19.7297 27.5977L19.5805 27.6045L19.7297 27.604V27.5977L19.5805 27.6045L19.7297 27.604V27.603C19.7306 27.2582 19.6186 26.9457 19.422 26.685C19.1271 26.2937 18.6556 26.0154 18.0823 25.829C17.5081 25.6437 16.8273 25.5512 16.097 25.5493H16.0975H16.0804C15.11 25.5502 14.2266 25.7102 13.5658 26.0403C13.2362 26.2061 12.9603 26.416 12.7642 26.6762C12.568 26.9359 12.4555 27.2479 12.4555 27.5923L12.639 27.5928L12.456 27.584L12.4555 27.5952C12.4546 27.9396 12.569 28.2394 12.772 28.4703C13.0777 28.8175 13.5521 29.0166 14.122 29.1394C14.6932 29.2611 15.3672 29.3037 16.0892 29.3057L16.0897 29.1222ZM9.67689 17.6897V17.5063C8.75589 17.5053 7.92488 17.2617 7.33648 16.8821C6.74563 16.5001 6.40961 15.9968 6.41059 15.4671V15.4657H6.27167L6.41059 15.4701V15.4657H6.27167L6.41059 15.4701V15.4647C6.41059 14.935 6.74709 14.4336 7.33746 14.0536C7.92586 13.676 8.7554 13.4349 9.67494 13.4354H9.68423H9.68521C10.6062 13.4363 11.4372 13.6799 12.0256 14.06C12.6165 14.442 12.9525 14.9448 12.9515 15.4745L12.952 15.4862L13.1349 15.4774L12.9515 15.4769C12.9515 16.0066 12.615 16.508 12.0251 16.888C11.4372 17.2656 10.6072 17.5067 9.68765 17.5063H9.67689V17.6897L9.6764 17.8731H9.68765C10.6708 17.8726 11.5634 17.6192 12.2232 17.1967C12.8801 16.7765 13.3164 16.1715 13.3183 15.4779V15.4691L13.1682 15.4759L13.3183 15.4755V15.4691L13.1682 15.4759L13.3183 15.4755V15.4745C13.3174 14.7804 12.8816 14.1739 12.2242 13.7513C11.5644 13.3268 10.6708 13.071 9.6857 13.0685H9.68618H9.67494C8.69182 13.069 7.79918 13.3224 7.13936 13.745C6.48248 14.1651 6.04571 14.7701 6.04375 15.4637L6.22717 15.4642L6.04375 15.4583V15.4671C6.04473 16.1612 6.48052 16.7677 7.13789 17.1903C7.79771 17.6148 8.69182 17.8706 9.6764 17.8731L9.67689 17.6897ZM29.4259 17.7278L29.6093 17.7283V17.6872C29.6093 13.9396 28.6276 10.4767 26.9656 7.67701C26.9191 7.59875 26.8223 7.56647 26.7387 7.60071L24.6663 8.44639L26.1909 6.73889C26.2481 6.67482 26.253 6.57992 26.2036 6.50998C23.7463 3.06123 20.1557 0.870491 16.1445 0.862663H16.1239C12.1386 0.862663 8.56123 3.0177 6.09609 6.42438C6.04571 6.49384 6.0506 6.58922 6.10783 6.65379L7.66663 8.41362L5.53898 7.53566C5.45534 7.50093 5.3585 7.53272 5.31204 7.61049C3.62361 10.418 2.6219 13.902 2.61456 17.6765V17.7102C2.61505 21.7435 3.98555 25.4431 6.03983 28.3401C6.08923 28.4096 6.17972 28.436 6.25896 28.4037L7.53751 27.8818L6.63802 28.8894C6.57884 28.9559 6.57591 29.0557 6.63118 29.1257C9.26115 32.4379 12.7965 34.5323 16.0794 34.5416H16.0926C19.2234 34.5372 22.7935 32.4306 25.4865 29.0929C25.5428 29.0234 25.5404 28.9237 25.4812 28.8566L24.6472 27.9151L25.8402 28.4076C25.9184 28.4399 26.0089 28.4145 26.0588 28.3455C28.1605 25.4544 29.601 21.7611 29.6093 17.7283L29.4259 17.7278H29.2425C29.2351 21.6725 27.824 25.2934 25.7619 28.1303L25.9101 28.2379L25.9801 28.0682L24.0539 27.2734C23.9752 27.2406 23.8837 27.267 23.8343 27.3365C23.7849 27.4059 23.7898 27.5008 23.8465 27.5644L25.2063 29.0997L25.3437 28.9779L25.2009 28.863C22.5626 32.1406 19.0562 34.1792 16.0926 34.1748H16.0799C12.9564 34.1719 9.49445 32.1479 6.91877 28.8972L6.77497 29.0117L6.91193 29.1335L8.33965 27.5346C8.39639 27.471 8.40177 27.3766 8.35237 27.3066C8.30346 27.2372 8.21248 27.2103 8.13325 27.2426L6.12005 28.0643L6.18951 28.234L6.33918 28.1279C4.32451 25.2876 2.9814 21.6593 2.9814 17.7102V17.677C2.98874 13.967 3.97382 10.5471 5.62653 7.79978L5.46904 7.70538L5.3991 7.87461L8.25993 9.05533C8.33868 9.08761 8.42965 9.06169 8.47905 8.99224C8.52845 8.92278 8.52356 8.8279 8.46732 8.76382L6.38221 6.41021L6.24477 6.532L6.39346 6.6396C8.80626 3.30775 12.2756 1.2295 16.1239 1.2295H16.144C20.0168 1.23684 23.4993 3.34982 25.9047 6.72324L26.0539 6.61661L25.917 6.49434L23.8642 8.79366C23.8074 8.85725 23.802 8.95164 23.8514 9.02159C23.9003 9.09104 23.9913 9.11794 24.0705 9.08566L26.8771 7.94064L26.8076 7.77043L26.6501 7.86435C28.2769 10.6044 29.2425 14.0037 29.2425 17.6872V17.7278H29.4259Z" fill="#CEA561"/>
</g>
<defs>
<clipPath id="clip0_1_1548">
<rect width="41.8229" height="34.2188" fill="white" transform="translate(0.713531 0.322876)"/>
</clipPath>
</defs>
</svg>
