<svg width="43" height="35" viewBox="0 0 43 35" fill="none" xmlns="http://www.w3.org/2000/svg">
<path d="M35.8244 22.3424C36.2467 23.1995 35.8926 24.2372 35.0346 24.6593L25.1619 29.5171C24.305 29.9384 23.2678 29.5853 22.8452 28.728L13.5401 9.81692C13.1179 8.95947 13.4718 7.92195 14.3296 7.50046L24.2024 2.64222C25.0595 2.22036 26.0981 2.57352 26.5198 3.43061L35.8244 22.3424Z" fill="#151515" fill-opacity="0.7"/>
<path d="M35.8244 22.3423L35.5275 22.4885C35.6255 22.6878 35.6713 22.897 35.6713 23.1041C35.6709 23.6211 35.3839 24.1186 34.8884 24.3622L25.0157 29.2201C24.8166 29.3179 24.6072 29.3635 24.4 29.3637C23.8829 29.3633 23.3858 29.0767 23.1421 28.5817L13.8371 9.67063C13.7388 9.47097 13.6927 9.26141 13.6927 9.05442C13.6931 8.53731 13.9798 8.04035 14.4755 7.79727L24.3484 2.93922C24.548 2.84104 24.7576 2.79506 24.9649 2.79487C25.4822 2.79524 25.9796 3.08191 26.2226 3.57667L35.5273 22.4883L35.8244 22.3423L36.1214 22.1961L26.8167 3.28432C26.4578 2.55582 25.7255 2.1325 24.9649 2.13287C24.659 2.13287 24.3478 2.20156 24.056 2.34517L14.1835 7.20323C13.4545 7.56152 13.0303 8.29368 13.0307 9.05442C13.0306 9.36014 13.0994 9.67136 13.243 9.96298L22.5483 28.8741C22.9075 29.6024 23.6395 30.0261 24.4 30.0257C24.7054 30.0257 25.0162 29.9574 25.3078 29.8141L35.1808 24.9561C35.9094 24.597 36.3339 23.8649 36.3333 23.1041C36.3335 22.7988 36.265 22.4876 36.1214 22.1961L35.8244 22.3423Z" fill="#CEA561"/>
<path d="M33.9205 21.7925C34.2896 22.5415 34.0342 23.4213 33.3499 23.7578L25.4758 27.6324C24.7905 27.9693 23.938 27.634 23.57 26.8858L15.4418 10.3679C15.0743 9.61925 15.3276 8.73981 16.0131 8.40259L23.8882 4.52801C24.5723 4.19151 25.426 4.52636 25.793 5.27483L33.9205 21.7925Z" fill="#151515" fill-opacity="0.7"/>
<path d="M33.9205 21.7924L33.6236 21.9387C33.7157 22.1258 33.7586 22.3207 33.7586 22.5081C33.7586 22.7158 33.7054 22.9132 33.61 23.0777C33.5144 23.2424 33.3785 23.3743 33.2037 23.4608L25.3296 27.3353C25.1952 27.4013 25.054 27.432 24.91 27.4322C24.5092 27.4335 24.084 27.1824 23.8672 26.7396L15.7388 10.2216C15.647 10.0348 15.6041 9.83949 15.6041 9.65228C15.6041 9.44456 15.657 9.24709 15.7524 9.0826C15.848 8.91792 15.9837 8.78585 16.1592 8.69957L24.0342 4.82482C24.1685 4.75887 24.3093 4.7281 24.4533 4.72791C24.8539 4.72663 25.2795 4.97777 25.496 5.42051L25.4962 5.42088L33.6236 21.9386L33.9205 21.7924L34.2174 21.6464L26.09 5.12871L26.0902 5.12908C25.7662 4.46964 25.1243 4.06701 24.4533 4.06591C24.2128 4.06573 23.969 4.11903 23.742 4.23096L15.867 8.10535C15.5697 8.25134 15.3354 8.48068 15.1794 8.75086C15.0229 9.02142 14.9422 9.33282 14.9422 9.65228C14.9422 9.94042 15.0081 10.2357 15.1447 10.5138L23.2731 27.0318C23.5973 27.6901 24.2386 28.093 24.91 28.0942C25.1503 28.0944 25.3943 28.0411 25.6216 27.9294L33.4959 24.0546C33.7928 23.9088 34.0267 23.6797 34.183 23.4095C34.3394 23.1391 34.4204 22.8277 34.4204 22.5081C34.4204 22.2199 34.3544 21.9244 34.2174 21.6462L33.9205 21.7924Z" fill="#CEA561"/>
<path d="M16.9562 9.62111C17.0753 9.8629 16.9752 10.156 16.7329 10.2747C16.4917 10.3939 16.199 10.2943 16.0796 10.0523C15.9609 9.80996 16.0593 9.51816 16.3018 9.39909C16.5436 9.27984 16.8373 9.37913 16.9562 9.62111Z" fill="#CEA561"/>
<path d="M18.9464 8.6411C19.0648 8.8829 18.9653 9.17598 18.7224 9.29505C18.4804 9.41411 18.1897 9.31391 18.0698 9.07211C17.9509 8.83014 18.0496 8.53834 18.2921 8.41891C18.5337 8.29984 18.8268 8.39912 18.9464 8.6411Z" fill="#CEA561"/>
<path d="M20.9346 7.66199C21.0535 7.90378 20.9537 8.19687 20.7115 8.31575C20.4691 8.43445 20.1777 8.33443 20.0586 8.09264C19.939 7.85066 20.0392 7.55867 20.2814 7.43961C20.5215 7.32054 20.8159 7.41982 20.9346 7.66199Z" fill="#CEA561"/>
<path d="M22.9271 6.68219C23.046 6.92398 22.9466 7.21689 22.7051 7.33614C22.463 7.45502 22.1706 7.355 22.0517 7.11339C21.9323 6.87123 22.0321 6.57906 22.2739 6.45981C22.5157 6.34111 22.8084 6.44039 22.9271 6.68219Z" fill="#CEA561"/>
<path d="M24.9164 5.70328C25.0356 5.94507 24.9361 6.23761 24.6945 6.35686C24.4527 6.47592 24.1598 6.37609 24.0402 6.13448C23.9208 5.89269 24.0217 5.60034 24.2624 5.4809C24.5055 5.36166 24.7967 5.46112 24.9164 5.70328Z" fill="#CEA561"/>
<path d="M18.6961 10.3462C18.8159 10.5884 18.7157 10.8807 18.4728 11.0005C18.2314 11.1194 17.9389 11.0194 17.8199 10.7776C17.7016 10.5354 17.8005 10.2429 18.0427 10.1236C18.2849 10.0046 18.5782 10.104 18.6961 10.3462Z" fill="#CEA561"/>
<path d="M20.6884 9.36701C20.8074 9.60917 20.7076 9.90152 20.4656 10.0211C20.2231 10.1398 19.9318 10.0398 19.8117 9.79784C19.693 9.55587 19.7925 9.26333 20.0341 9.14427C20.2768 9.0252 20.5695 9.12467 20.6884 9.36701Z" fill="#CEA561"/>
<path d="M22.6763 8.38772C22.7961 8.6297 22.6956 8.92297 22.4543 9.0413C22.2123 9.16055 21.9196 9.06053 21.8006 8.81837C21.6817 8.5764 21.7808 8.28423 22.022 8.16461C22.2635 8.0461 22.5578 8.14538 22.6763 8.38772Z" fill="#CEA561"/>
<path d="M24.6668 7.40851C24.786 7.65031 24.6869 7.94302 24.4457 8.06172C24.2026 8.18115 23.911 8.08096 23.7928 7.83898C23.6732 7.59664 23.7714 7.30465 24.0132 7.1854C24.2559 7.06633 24.5473 7.16617 24.6668 7.40851Z" fill="#CEA561"/>
<path d="M18.2281 12.2091C18.3463 12.4512 18.2461 12.7432 18.0038 12.8623C17.7629 12.9813 17.4704 12.8822 17.3515 12.6404C17.2318 12.3979 17.3306 12.1052 17.5729 11.9865C17.8151 11.8672 18.1089 11.9669 18.2281 12.2091Z" fill="#CEA561"/>
<path d="M20.2184 11.23C20.3378 11.4715 20.2367 11.7635 19.9955 11.8827C19.7531 12.002 19.4621 11.9027 19.3428 11.6605C19.2238 11.4182 19.3221 11.1256 19.5639 11.0069C19.8059 10.8877 20.0992 10.9873 20.2184 11.23Z" fill="#CEA561"/>
<path d="M22.2087 10.2503C22.327 10.4921 22.2274 10.7841 21.9856 10.9028C21.7438 11.0221 21.4518 10.9229 21.3331 10.6812C21.2135 10.4384 21.3128 10.1459 21.5555 10.0272C21.7964 9.90833 22.0896 10.0078 22.2087 10.2503Z" fill="#CEA561"/>
<path d="M24.1984 9.27101C24.3173 9.51244 24.2182 9.80479 23.976 9.92368C23.7348 10.0429 23.441 9.94382 23.323 9.70203C23.2036 9.4595 23.3038 9.16679 23.5448 9.0479C23.787 8.92865 24.0795 9.02867 24.1984 9.27101Z" fill="#CEA561"/>
<path d="M26.1908 8.29121C26.3097 8.53283 26.2097 8.82499 25.9686 8.94442C25.7259 9.06312 25.4323 8.96458 25.3141 8.72278C25.1954 8.48044 25.2958 8.18717 25.5365 8.06829C25.7783 7.94886 26.0712 8.04887 26.1908 8.29121Z" fill="#CEA561"/>
<path d="M19.9709 12.934C20.0899 13.1756 19.9901 13.4679 19.7474 13.5875C19.5056 13.7066 19.2131 13.6066 19.0942 13.3653C18.976 13.1235 19.0744 12.831 19.3166 12.7121C19.5585 12.5923 19.8513 12.6923 19.9709 12.934Z" fill="#CEA561"/>
<path d="M21.9611 11.9547C22.0806 12.1962 21.9804 12.4883 21.7375 12.6081C21.4951 12.7268 21.2039 12.6276 21.0841 12.3859C20.9661 12.1443 21.0652 11.8512 21.3072 11.7326C21.5494 11.6128 21.8432 11.713 21.9611 11.9547Z" fill="#CEA561"/>
<path d="M23.9506 10.9757C24.0699 11.2169 23.9693 11.5096 23.7275 11.6289C23.485 11.7479 23.1937 11.6485 23.0756 11.4069C22.9554 11.1649 23.0549 10.8724 23.2965 10.7533C23.5383 10.634 23.8323 10.7339 23.9506 10.9757Z" fill="#CEA561"/>
<path d="M25.9415 9.99644C26.0595 10.2379 25.9609 10.5302 25.718 10.6495C25.4766 10.768 25.1854 10.668 25.0668 10.4269C24.9474 10.1851 25.0465 9.89276 25.2872 9.77406C25.5301 9.65463 25.8224 9.75465 25.9415 9.99644Z" fill="#CEA561"/>
<path d="M19.5012 14.7959C19.6208 15.0383 19.5203 15.3314 19.2776 15.4503C19.0367 15.5693 18.7454 15.4698 18.6249 15.2273C18.5068 14.9859 18.6049 14.6939 18.8475 14.5747C19.09 14.456 19.3831 14.5549 19.5012 14.7959Z" fill="#CEA561"/>
<path d="M21.4919 13.8165C21.6119 14.0591 21.5119 14.352 21.2697 14.471C21.0276 14.5899 20.7371 14.4899 20.6167 14.2476C20.4984 14.0067 20.5964 13.7143 20.8385 13.5953C21.0801 13.476 21.3738 13.5751 21.4919 13.8165Z" fill="#CEA561"/>
<path d="M23.4811 12.8373C23.6 13.0799 23.4994 13.3726 23.2578 13.4913C23.0171 13.6105 22.7247 13.5107 22.6062 13.2682C22.4864 13.0273 22.5848 12.7349 22.8277 12.6157C23.0693 12.497 23.362 12.5965 23.4811 12.8373Z" fill="#CEA561"/>
<path d="M25.473 11.8575C25.5918 12.1001 25.4922 12.3926 25.2495 12.5119C25.0077 12.6311 24.7152 12.5309 24.5972 12.2886C24.4781 12.0477 24.5776 11.7553 24.8196 11.6359C25.0606 11.5174 25.3537 11.6169 25.473 11.8575Z" fill="#CEA561"/>
<path d="M27.4642 10.8784C27.5845 11.121 27.4836 11.4133 27.242 11.5329C26.9991 11.6516 26.7071 11.5522 26.589 11.3098C26.4694 11.0688 26.5699 10.7762 26.8113 10.6568C27.0524 10.5379 27.3451 10.6374 27.4642 10.8784Z" fill="#CEA561"/>
<path d="M21.2424 15.5221C21.3607 15.7641 21.2622 16.0564 21.0195 16.1758C20.7777 16.2949 20.4853 16.1951 20.3663 15.9531C20.2463 15.7115 20.3469 15.4191 20.5874 15.2997C20.8312 15.1806 21.1234 15.2803 21.2424 15.5221Z" fill="#CEA561"/>
<path d="M23.2338 14.5427C23.3543 14.7845 23.2545 15.0774 23.0112 15.1966C22.7693 15.3153 22.4773 15.2153 22.3575 14.9735C22.2382 14.7321 22.3384 14.4395 22.5806 14.3203C22.8228 14.201 23.1149 14.3007 23.2338 14.5427Z" fill="#CEA561"/>
<path d="M25.2242 13.5632C25.3435 13.8048 25.2433 14.0985 25.0004 14.2168C24.7597 14.3362 24.4664 14.2358 24.3475 13.994C24.2286 13.7526 24.3283 13.4603 24.5701 13.3406C24.8119 13.2221 25.1052 13.3212 25.2242 13.5632Z" fill="#CEA561"/>
<path d="M27.2151 12.5838C27.3327 12.8258 27.2342 13.1185 26.9924 13.237C26.7498 13.3563 26.4582 13.2559 26.3393 13.0145C26.2203 12.7729 26.3197 12.4805 26.5608 12.3618C26.8033 12.2422 27.0948 12.3422 27.2151 12.5838Z" fill="#CEA561"/>
<path d="M20.7736 17.3845C20.8923 17.6257 20.7918 17.9192 20.5496 18.0382C20.3084 18.1573 20.0162 18.0576 19.8962 17.8157C19.7779 17.5739 19.8766 17.2813 20.1195 17.1626C20.3615 17.0432 20.6555 17.1427 20.7736 17.3845Z" fill="#CEA561"/>
<path d="M22.7652 16.4051C22.8839 16.6467 22.7846 16.9398 22.5421 17.059C22.3004 17.1779 22.0086 17.0773 21.8894 16.8359C21.7712 16.5941 21.8692 16.3021 22.1112 16.1831C22.3523 16.0638 22.6459 16.1635 22.7652 16.4051Z" fill="#CEA561"/>
<path d="M24.7553 15.4256C24.8738 15.6672 24.7741 15.9601 24.5327 16.079C24.2913 16.1979 23.9991 16.0982 23.8802 15.8564C23.761 15.6148 23.8593 15.3225 24.1017 15.2032C24.3431 15.0843 24.6366 15.184 24.7553 15.4256Z" fill="#CEA561"/>
<path d="M26.7448 14.4461C26.8643 14.6877 26.7646 14.9806 26.5226 15.0999C26.2809 15.2189 25.9887 15.1189 25.8698 14.8771C25.7513 14.6353 25.85 14.3432 26.0916 14.2237C26.3334 14.1047 26.6265 14.2043 26.7448 14.4461Z" fill="#CEA561"/>
<path d="M28.7363 13.4669C28.8567 13.7083 28.7554 14.001 28.5136 14.1205C28.2716 14.2392 27.9783 14.1399 27.8602 13.8979C27.7406 13.6565 27.8417 13.3634 28.0829 13.2445C28.3251 13.1249 28.6173 13.2249 28.7363 13.4669Z" fill="#CEA561"/>
<path d="M22.5152 18.11C22.6341 18.3514 22.5352 18.6447 22.293 18.7641C22.0507 18.8834 21.7587 18.7832 21.6386 18.5414C21.5197 18.2994 21.6193 18.007 21.8607 17.8878C22.1049 17.768 22.3971 17.8678 22.5152 18.11Z" fill="#CEA561"/>
<path d="M24.5063 17.1306C24.6259 17.372 24.5273 17.6651 24.2841 17.7843C24.0423 17.9034 23.7492 17.8034 23.6303 17.5614C23.5116 17.3194 23.61 17.0271 23.8525 16.9078C24.0958 16.7882 24.3881 16.8884 24.5063 17.1306Z" fill="#CEA561"/>
<path d="M26.4988 16.1515C26.6168 16.3926 26.5171 16.6862 26.275 16.8049C26.0339 16.9245 25.7401 16.8242 25.6221 16.5822C25.5032 16.3404 25.6012 16.048 25.8447 15.9286C26.0861 15.8097 26.3786 15.9092 26.4988 16.1515Z" fill="#CEA561"/>
<path d="M28.4877 15.1723C28.6051 15.4134 28.5073 15.7065 28.2652 15.8257C28.023 15.9452 27.7317 15.8441 27.6129 15.6026C27.4923 15.3605 27.5929 15.0683 27.834 14.9494C28.0756 14.8302 28.3679 14.9302 28.4877 15.1723Z" fill="#CEA561"/>
<path d="M22.0491 19.972C22.1687 20.2138 22.0668 20.5071 21.8254 20.626C21.5833 20.7448 21.292 20.645 21.1724 20.4034C21.0533 20.1614 21.1524 19.8685 21.3953 19.7496C21.636 19.6309 21.9295 19.7306 22.0491 19.972Z" fill="#CEA561"/>
<path d="M24.0371 18.9929C24.1553 19.2348 24.0554 19.5279 23.8127 19.6466C23.5722 19.7653 23.2797 19.6653 23.161 19.4237C23.0423 19.1819 23.1408 18.8894 23.3821 18.7705C23.6246 18.6516 23.9179 18.7509 24.0371 18.9929Z" fill="#CEA561"/>
<path d="M26.0296 18.0133C26.1488 18.2553 26.0495 18.5484 25.8068 18.6669C25.5659 18.7859 25.2747 18.6861 25.1542 18.4439C25.0349 18.2023 25.1349 17.9098 25.3763 17.7911C25.6174 17.6722 25.9107 17.7715 26.0296 18.0133Z" fill="#CEA561"/>
<path d="M28.0181 17.0331C28.1377 17.2754 28.0379 17.5681 27.7967 17.687C27.5543 17.8061 27.2627 17.7062 27.1422 17.4641C27.0242 17.2225 27.1233 16.9299 27.3655 16.8111C27.6065 16.692 27.9 16.7916 28.0181 17.0331Z" fill="#CEA561"/>
<path d="M30.0093 16.0544C30.1294 16.2966 30.0289 16.5891 29.7871 16.708C29.5451 16.8267 29.2514 16.7278 29.1327 16.4858C29.0137 16.2442 29.1142 15.9507 29.3559 15.832C29.5986 15.713 29.8904 15.8126 30.0093 16.0544Z" fill="#CEA561"/>
<path d="M23.7893 20.6976C23.9089 20.9401 23.8093 21.2319 23.5666 21.3515C23.3241 21.4709 23.0322 21.3711 22.9126 21.1288C22.7945 20.8875 22.8927 20.5948 23.1356 20.4761C23.3779 20.3563 23.6715 20.4563 23.7893 20.6976Z" fill="#CEA561"/>
<path d="M25.7802 19.718C25.8994 19.9604 25.8005 20.2525 25.557 20.3721C25.3158 20.4912 25.0236 20.3914 24.9048 20.149C24.7859 19.9076 24.8839 19.6151 25.1258 19.4965C25.3684 19.3766 25.6616 19.4769 25.7802 19.718Z" fill="#CEA561"/>
<path d="M27.7706 18.7383C27.8898 18.9806 27.7894 19.2733 27.5476 19.3924C27.3049 19.5115 27.0137 19.4116 26.8944 19.1695C26.7763 18.9282 26.8746 18.6355 27.1166 18.5168C27.3584 18.3976 27.6519 18.4974 27.7706 18.7383Z" fill="#CEA561"/>
<path d="M29.7604 17.7598C29.8793 18.0019 29.7813 18.2945 29.5389 18.4135C29.2967 18.5322 29.0055 18.4322 28.8866 18.1902C28.7674 17.949 28.8666 17.6563 29.1068 17.5376C29.3497 17.4185 29.6424 17.5183 29.7604 17.7598Z" fill="#CEA561"/>
<path d="M23.3216 22.5599C23.4422 22.8022 23.3418 23.0955 23.0998 23.2143C22.858 23.3338 22.566 23.2338 22.4468 22.9912C22.3277 22.75 22.4264 22.4569 22.6686 22.3378C22.9108 22.219 23.2037 22.319 23.3216 22.5599Z" fill="#CEA561"/>
<path d="M25.3129 21.5803C25.4311 21.8227 25.3309 22.1156 25.0887 22.2346C24.848 22.3541 24.5555 22.2533 24.4368 22.011C24.3181 21.7703 24.4165 21.4774 24.6577 21.3583C24.9008 21.2392 25.1931 21.3394 25.3129 21.5803Z" fill="#CEA561"/>
<path d="M27.3026 20.6008C27.4208 20.8431 27.3219 21.136 27.0804 21.2547C26.8374 21.374 26.5461 21.274 26.4269 21.0316C26.308 20.7906 26.4073 20.4977 26.6491 20.3784C26.8901 20.2599 27.1838 20.3599 27.3026 20.6008Z" fill="#CEA561"/>
<path d="M29.2945 19.6213C29.4132 19.8637 29.3149 20.1566 29.0723 20.2757C28.8311 20.3949 28.5375 20.2947 28.4186 20.0524C28.2997 19.8115 28.3986 19.5184 28.6408 19.3991C28.8824 19.2797 29.176 19.3803 29.2945 19.6213Z" fill="#CEA561"/>
<path d="M31.2838 18.642C31.4031 18.8843 31.3034 19.1769 31.062 19.2963C30.8199 19.4152 30.5264 19.3157 30.4068 19.0734C30.2881 18.8325 30.3888 18.5387 30.6295 18.42C30.8721 18.3002 31.1653 18.4009 31.2838 18.642Z" fill="#CEA561"/>
<path d="M25.0612 23.2853C25.1817 23.5271 25.081 23.8195 24.8385 23.9393C24.5968 24.0585 24.3047 23.9585 24.186 23.7161C24.0667 23.4747 24.1658 23.1825 24.4083 23.0633C24.6503 22.9439 24.943 23.0433 25.0612 23.2853Z" fill="#CEA561"/>
<path d="M27.0541 22.3063C27.1728 22.5485 27.0736 22.8405 26.8298 22.9603C26.5894 23.0792 26.2967 22.9795 26.178 22.7374C26.058 22.4956 26.1575 22.2034 26.3998 22.0843C26.6427 21.9647 26.9349 22.0644 27.0541 22.3063Z" fill="#CEA561"/>
<path d="M29.0448 21.3264C29.1629 21.5685 29.0644 21.8616 28.822 21.9805C28.58 22.0999 28.2873 21.9999 28.169 21.7578C28.0501 21.516 28.1494 21.2238 28.3912 21.1044C28.6323 20.9857 28.9268 21.0848 29.0448 21.3264Z" fill="#CEA561"/>
<path d="M31.034 20.3475C31.1522 20.5899 31.0533 20.8822 30.8124 21.0011C30.5697 21.1206 30.2781 21.02 30.1597 20.7782C30.0403 20.5364 30.1383 20.2444 30.3805 20.1253C30.6219 20.0063 30.9142 20.1057 31.034 20.3475Z" fill="#CEA561"/>
<path d="M24.594 25.1484C24.713 25.3897 24.6136 25.6829 24.3708 25.802C24.1294 25.9207 23.8378 25.8207 23.718 25.5794C23.5993 25.3375 23.6973 25.0446 23.94 24.926C24.1825 24.8068 24.4758 24.9066 24.594 25.1484Z" fill="#CEA561"/>
<path d="M26.5852 24.1689C26.7041 24.4103 26.6035 24.7037 26.3617 24.8226C26.119 24.9411 25.8281 24.8411 25.7094 24.5999C25.5913 24.3581 25.6887 24.0652 25.9309 23.9465C26.1721 23.8274 26.4647 23.9271 26.5852 24.1689Z" fill="#CEA561"/>
<path d="M28.5742 23.1895C28.6938 23.4311 28.5936 23.7243 28.3523 23.843C28.11 23.9617 27.818 23.8617 27.6999 23.6201C27.581 23.3783 27.6792 23.0856 27.9221 22.9671C28.1629 22.8482 28.4564 22.9475 28.5742 23.1895Z" fill="#CEA561"/>
<path d="M30.5668 22.2099C30.6858 22.4515 30.5853 22.7444 30.3435 22.8639C30.1028 22.9826 29.8097 22.8827 29.6915 22.6409C29.5723 22.399 29.6716 22.1062 29.9134 21.9875C30.1553 21.8685 30.4484 21.9679 30.5668 22.2099Z" fill="#CEA561"/>
<path d="M32.5581 21.2306C32.6768 21.4718 32.5766 21.7647 32.3363 21.884C32.0934 22.0025 31.8 21.9035 31.6811 21.6616C31.5624 21.42 31.6631 21.1265 31.9038 21.0078C32.146 20.8887 32.4393 20.9882 32.5581 21.2306Z" fill="#CEA561"/>
<path d="M26.3367 25.8735C26.4554 26.1151 26.3565 26.4075 26.1134 26.5275C25.8722 26.6462 25.5793 26.5462 25.46 26.3045C25.3409 26.0628 25.4408 25.7699 25.6828 25.6515C25.9253 25.5317 26.2176 25.6314 26.3367 25.8735Z" fill="#CEA561"/>
<path d="M28.326 24.8943C28.4452 25.1359 28.3456 25.4283 28.1019 25.5481C27.8603 25.6666 27.5685 25.5671 27.4485 25.325C27.3297 25.0832 27.4295 24.7903 27.672 24.6721C27.9146 24.5519 28.2062 24.6525 28.326 24.8943Z" fill="#CEA561"/>
<path d="M30.318 23.9145C30.4361 24.1563 30.3372 24.4492 30.095 24.5684C29.8527 24.6871 29.5607 24.5878 29.4426 24.3455C29.3224 24.1039 29.4219 23.8115 29.664 23.6923C29.9055 23.5732 30.1987 23.6729 30.318 23.9145Z" fill="#CEA561"/>
<path d="M32.3088 22.9357C32.4268 23.1775 32.3282 23.4703 32.0864 23.5891C31.8439 23.7077 31.5534 23.6078 31.4343 23.3662C31.314 23.1242 31.4136 22.8323 31.6547 22.713C31.8974 22.5939 32.1885 22.694 32.3088 22.9357Z" fill="#CEA561"/>
<path d="M24.5589 32.164H8.19347V30.6436H24.5589V32.164Z" fill="#151515" fill-opacity="0.7"/>
<path d="M24.5588 32.164V31.8328H8.52428V30.9746H24.2276L24.2278 32.164H24.5588H24.8896V30.3126H7.86226V32.4948H24.8896V32.164H24.5588Z" fill="#CEA561"/>
<path d="M24.5589 19.2407H8.19347V17.7207H24.5589V19.2407Z" fill="#151515" fill-opacity="0.7"/>
<path d="M24.5588 19.2408V18.9098H8.52413V18.0518H24.2276L24.2278 19.2408H24.5588H24.8896V17.3898H7.86226V19.5718H24.8896V19.2408H24.5588Z" fill="#CEA561"/>
<path d="M25.401 17.7206H7.35136C7.35136 17.7206 7.35136 15.7527 7.35136 14.8132C7.35136 12.9805 25.401 13.3381 25.401 14.8132C25.401 16.0656 25.401 17.7206 25.401 17.7206Z" fill="#151515" fill-opacity="0.7"/>
<path d="M25.4009 17.7208V17.3898H7.35124V17.7208H7.68209C7.68209 17.7208 7.68209 15.7529 7.68209 14.8134H7.63145L7.68017 14.8278L7.68209 14.8134H7.63145L7.68017 14.8278L7.65828 14.8212L7.67916 14.8306L7.68017 14.8278L7.65828 14.8212L7.67916 14.8306L7.68482 14.822C7.70085 14.7972 7.77784 14.7304 7.91414 14.6657C8.15193 14.5492 8.5527 14.432 9.06008 14.3351C9.82285 14.188 10.8307 14.0783 11.9661 14.0066C13.1018 13.9347 14.3665 13.9002 15.6515 13.9002C18.0104 13.9 20.4397 14.0167 22.2656 14.2287C23.1777 14.334 23.941 14.4648 24.4544 14.6097C24.7101 14.6809 24.9038 14.7588 25.0069 14.8211C25.0584 14.8513 25.0851 14.8775 25.0875 14.8813H25.0877L25.1826 14.8134H25.0697C25.0692 14.8502 25.0858 14.8804 25.0877 14.8813L25.1826 14.8134H25.0697C25.0697 16.0657 25.0697 17.7208 25.0697 17.7208H25.4009H25.7317C25.7317 17.7208 25.7317 16.0657 25.7317 14.8134C25.7325 14.673 25.6716 14.5476 25.5993 14.4613C25.5306 14.3783 25.4509 14.3175 25.3634 14.2631C25.199 14.1627 25.0008 14.0843 24.7616 14.0101C24.344 13.8819 23.8014 13.7729 23.1577 13.6777C21.2299 13.3934 18.3989 13.2386 15.6515 13.2382C13.5119 13.2384 11.428 13.3324 9.86119 13.5379C9.07668 13.6414 8.42369 13.7705 7.93906 13.9409C7.69605 14.0275 7.49399 14.122 7.32876 14.2505C7.24648 14.3153 7.17227 14.3902 7.11483 14.4844C7.05729 14.5778 7.01958 14.6941 7.02016 14.8134C7.02016 15.7529 7.02016 17.7208 7.02016 17.7208V18.0518H25.7317V17.7208H25.4009Z" fill="#CEA561"/>
<path d="M25.9461 29.615C25.9461 30.5783 25.1659 31.3594 24.2013 31.3594H8.37161C7.40921 31.3594 6.62807 30.5783 6.62807 29.615V20.2244C6.62807 19.2616 7.40921 18.4805 8.37161 18.4805H24.2013C25.1659 18.4805 25.9461 19.2616 25.9461 20.2244V29.615Z" fill="#151515" fill-opacity="0.7"/>
<path d="M25.946 29.6152H25.615C25.6148 30.0067 25.4574 30.3578 25.2012 30.6146C24.9445 30.8709 24.5932 31.0284 24.2012 31.0286H8.37149C7.98074 31.0286 7.62962 30.8711 7.3729 30.6146C7.11659 30.3578 6.95903 30.0065 6.95881 29.6152V20.2246C6.95903 19.8335 7.11652 19.4824 7.37282 19.2257C7.62955 18.9695 7.98074 18.8119 8.37149 18.8118H24.2012C24.5932 18.8119 24.9445 18.9695 25.2014 19.2257C25.4574 19.4824 25.6148 19.8335 25.615 20.2246V29.6152H25.946H26.277V20.2246C26.2768 19.0788 25.3486 18.1499 24.2012 18.1498H8.37149C7.22599 18.1501 6.29715 19.0787 6.29688 20.2246V29.6152C6.29715 30.7615 7.22592 31.6904 8.37149 31.6906H24.2012C25.3486 31.6906 26.2768 30.7612 26.277 29.6152H25.946Z" fill="#CEA561"/>
<path d="M8.39656 17.1171C8.39656 17.203 8.3014 17.2731 8.18605 17.2731C8.06964 17.2731 7.97662 17.203 7.97662 17.1171V15.3723C7.97662 15.2862 8.06964 15.2162 8.18605 15.2162C8.3014 15.2162 8.39656 15.2862 8.39656 15.3723V17.1171Z" fill="#CEA561"/>
<path d="M9.58445 17.1171C9.58445 17.203 9.48943 17.2731 9.37374 17.2731C9.25674 17.2731 9.16328 17.203 9.16328 17.1171V15.3723C9.16328 15.2862 9.25674 15.2162 9.37374 15.2162C9.48943 15.2162 9.58445 15.2862 9.58445 15.3723V17.1171Z" fill="#CEA561"/>
<path d="M10.7709 17.1171C10.7709 17.203 10.6758 17.2731 10.5606 17.2731C10.4434 17.2731 10.3499 17.203 10.3499 17.1171V15.3723C10.3499 15.2862 10.4434 15.2162 10.5606 15.2162C10.6758 15.2162 10.7709 15.2862 10.7709 15.3723V17.1171Z" fill="#CEA561"/>
<path d="M11.9568 17.1171C11.9568 17.203 11.8627 17.2731 11.7465 17.2731C11.6313 17.2731 11.5366 17.203 11.5366 17.1171V15.3723C11.5366 15.2862 11.6313 15.2162 11.7465 15.2162C11.8627 15.2162 11.9568 15.2862 11.9568 15.3723V17.1171Z" fill="#CEA561"/>
<path d="M13.141 17.1171C13.141 17.203 13.0459 17.2731 12.9312 17.2731C12.8153 17.2731 12.7218 17.203 12.7218 17.1171V15.3723C12.7218 15.2862 12.8153 15.2162 12.9312 15.2162C13.0459 15.2162 13.141 15.2862 13.141 15.3723V17.1171Z" fill="#CEA561"/>
<path d="M14.3252 17.1171C14.3252 17.203 14.2301 17.2731 14.1156 17.2731C14.0004 17.2731 13.907 17.203 13.907 17.1171V15.3723C13.907 15.2862 14.0004 15.2162 14.1156 15.2162C14.2301 15.2162 14.3252 15.2862 14.3252 15.3723V17.1171Z" fill="#CEA561"/>
<path d="M15.5116 17.1171C15.5116 17.203 15.4173 17.2731 15.3018 17.2731C15.186 17.2731 15.0907 17.203 15.0907 17.1171V15.3723C15.0907 15.2862 15.186 15.2162 15.3018 15.2162C15.4173 15.2162 15.5116 15.2862 15.5116 15.3723V17.1171Z" fill="#CEA561"/>
<path d="M16.6983 17.1171C16.6983 17.203 16.6048 17.2731 16.4891 17.2731C16.3731 17.2731 16.2789 17.203 16.2789 17.1171V15.3723C16.2789 15.2862 16.3731 15.2162 16.4891 15.2162C16.6048 15.2162 16.6983 15.2862 16.6983 15.3723V17.1171Z" fill="#CEA561"/>
<path d="M17.8839 17.1171C17.8839 17.203 17.7887 17.2731 17.6735 17.2731C17.5586 17.2731 17.464 17.203 17.464 17.1171V15.3723C17.464 15.2862 17.5586 15.2162 17.6735 15.2162C17.7887 15.2162 17.8839 15.2862 17.8839 15.3723V17.1171Z" fill="#CEA561"/>
<path d="M19.0685 17.1171C19.0685 17.203 18.9747 17.2731 18.8593 17.2731C18.7426 17.2731 18.6492 17.203 18.6492 17.1171V15.3723C18.6492 15.2862 18.7426 15.2162 18.8593 15.2162C18.9747 15.2162 19.0685 15.2862 19.0685 15.3723V17.1171Z" fill="#CEA561"/>
<path d="M20.2538 17.1171C20.2538 17.203 20.1604 17.2731 20.0443 17.2731C19.9291 17.2731 19.8344 17.203 19.8344 17.1171V15.3723C19.8344 15.2862 19.9291 15.2162 20.0443 15.2162C20.1604 15.2162 20.2538 15.2862 20.2538 15.3723V17.1171Z" fill="#CEA561"/>
<path d="M21.4405 17.1171C21.4405 17.203 21.3463 17.2731 21.2298 17.2731C21.1141 17.2731 21.0195 17.203 21.0195 17.1171V15.3723C21.0195 15.2862 21.1141 15.2162 21.2298 15.2162C21.3463 15.2162 21.4405 15.2862 21.4405 15.3723V17.1171Z" fill="#CEA561"/>
<path d="M22.6255 17.1171C22.6255 17.203 22.5324 17.2731 22.4156 17.2731C22.3003 17.2731 22.2047 17.203 22.2047 17.1171V15.3723C22.2047 15.2862 22.3003 15.2162 22.4156 15.2162C22.5324 15.2162 22.6255 15.2862 22.6255 15.3723V17.1171Z" fill="#CEA561"/>
<path d="M23.8116 17.1171C23.8116 17.203 23.7176 17.2731 23.6017 17.2731C23.4859 17.2731 23.3914 17.203 23.3914 17.1171V15.3723C23.3914 15.2862 23.4859 15.2162 23.6017 15.2162C23.7176 15.2162 23.8116 15.2862 23.8116 15.3723V17.1171Z" fill="#CEA561"/>
<path d="M24.997 17.1171C24.997 17.203 24.9034 17.2731 24.7876 17.2731C24.6715 17.2731 24.5781 17.203 24.5781 17.1171V15.3723C24.5781 15.2862 24.6715 15.2162 24.7876 15.2162C24.9034 15.2162 24.997 15.2862 24.997 15.3723V17.1171Z" fill="#CEA561"/>
<path d="M9.16328 24.4677C9.16328 26.7607 12.4434 28.6189 16.4885 28.6189C20.5328 28.6189 23.8124 26.7607 23.8124 24.4677C23.8124 22.1758 20.5328 20.3173 16.4885 20.3173C12.4434 20.3173 9.16328 22.1758 9.16328 24.4677Z" fill="#CEA561"/>
<path d="M16.1223 24.2079L15.7037 27.4705H14.8551L14.598 25.6709L14.3556 27.4705H13.6244L13.2193 24.2079H13.8635L14.0434 25.7141L14.2909 24.2079H15.0985L15.2937 25.7141L15.5352 24.2079H16.1223Z" fill="#151515" fill-opacity="0.7"/>
<path d="M17.0833 26.9771V26.2968C16.9347 26.3332 16.8604 26.3999 16.8604 26.497V26.9771C16.8604 27.0575 16.8991 27.0976 16.9763 27.0976C17.0477 27.0976 17.0833 27.0575 17.0833 26.9771ZM17.7317 27.4707H17.1584V27.3684C17.1098 27.4609 16.971 27.5072 16.742 27.5072C16.3885 27.5072 16.212 27.3691 16.212 27.093V26.5629C16.212 26.4446 16.2547 26.3415 16.3404 26.2535C16.4261 26.1656 16.5988 26.0557 16.8581 25.9236C17.0082 25.848 17.0833 25.7872 17.0833 25.7417V25.3503C17.0833 25.264 17.0461 25.2208 16.9719 25.2208C16.8869 25.2208 16.8443 25.3261 16.8443 25.5369C16.8443 25.5749 16.8467 25.6311 16.8513 25.7053C16.8572 25.7797 16.8604 25.8357 16.8604 25.8736H16.2347V25.3459C16.2347 24.9894 16.4925 24.8112 17.0082 24.8112C17.4904 24.8112 17.7317 24.9969 17.7317 25.3686V27.4707Z" fill="#151515" fill-opacity="0.7"/>
<path d="M19.6215 27.4705H18.907L18.6842 26.7539L18.4748 27.4705H17.8264L18.3338 26.0735L17.8401 24.8292H18.5249L18.7456 25.5139L18.9209 24.8292H19.5373L19.1028 26.1054L19.6215 27.4705Z" fill="#151515" fill-opacity="0.7"/>
<path d="M13.2691 21.9932C13.2959 22.0408 13.3262 22.0938 13.3601 22.1522C13.3942 22.2105 13.4302 22.272 13.4685 22.3369C13.5068 22.4015 13.5469 22.4684 13.5884 22.5374C13.6299 22.6067 13.6719 22.6759 13.7147 22.7457C13.7573 22.8153 13.7995 22.884 13.8414 22.952C13.8832 23.0199 13.9237 23.0851 13.9628 23.1474C14.0019 23.2099 14.0392 23.2685 14.0743 23.3229C14.1093 23.3777 14.1412 23.4264 14.1696 23.4693C14.1696 23.3137 14.1699 23.1721 14.1705 23.0443C14.171 22.9166 14.1722 22.8014 14.1741 22.6986C14.1757 22.5959 14.1778 22.5047 14.1802 22.4248C14.1825 22.3449 14.1855 22.2749 14.1893 22.2149C14.1931 22.1548 14.1973 22.1037 14.2024 22.0615C14.2072 22.0196 14.2129 21.9848 14.2193 21.9575C14.2245 21.9342 14.2318 21.915 14.2415 21.8996L14.2746 21.8626L14.3155 21.843L14.3621 21.8373C14.4009 21.8373 14.4414 21.8458 14.4832 21.8626V21.8714C14.4547 21.9113 14.4302 21.9637 14.4094 22.028C14.3889 22.0925 14.3714 22.1641 14.3568 22.2427C14.3424 22.3215 14.3306 22.4043 14.3216 22.4913C14.3125 22.5785 14.3055 22.6647 14.3002 22.7505C14.2949 22.836 14.2911 22.9183 14.2886 22.9974C14.2859 23.0763 14.2837 23.1467 14.2819 23.209C14.2809 23.2636 14.2796 23.3169 14.2786 23.3687C14.2773 23.4207 14.2764 23.4727 14.2755 23.5246C14.2746 23.5766 14.2738 23.6292 14.2732 23.6823C14.2726 23.7354 14.2725 23.79 14.2725 23.8464L14.1661 23.8603L14.1505 23.8585C14.1331 23.8342 14.1109 23.8015 14.0839 23.7607C14.0569 23.7197 14.0265 23.6728 13.9928 23.62C13.9592 23.5671 13.9227 23.5094 13.8835 23.4467C13.8444 23.3839 13.8038 23.3187 13.7615 23.2507C13.7195 23.1828 13.6767 23.1134 13.6332 23.0426C13.5897 22.9718 13.5465 22.9016 13.5038 22.8318C13.4612 22.7622 13.4197 22.6942 13.3793 22.6281C13.3391 22.562 13.3011 22.4997 13.2657 22.4413C13.2302 22.383 13.1981 22.3297 13.1691 22.2815C13.1399 22.2334 13.1152 22.1923 13.0951 22.1586C13.0938 22.287 13.092 22.412 13.0893 22.5336C13.0868 22.6552 13.0834 22.7721 13.0792 22.884C13.0752 22.9961 13.0707 23.1025 13.0659 23.2033C13.0609 23.304 13.0555 23.3976 13.0498 23.4841C13.0456 23.5451 13.0414 23.5969 13.0371 23.64C13.0327 23.683 13.0274 23.7189 13.0213 23.7475C13.0152 23.7763 13.0078 23.7992 12.9988 23.8158C12.9897 23.8329 12.9786 23.8453 12.9652 23.8538C12.9519 23.8622 12.9358 23.8677 12.9174 23.8699C12.8988 23.8723 12.8766 23.8734 12.8512 23.8734H12.8276L12.8103 23.873L12.7832 23.8717L12.7711 23.8629C12.7959 23.8067 12.8181 23.7437 12.8376 23.6739C12.8571 23.6043 12.8741 23.5304 12.8886 23.4522C12.9031 23.3742 12.9158 23.2936 12.9265 23.2102C12.9372 23.1269 12.946 23.0436 12.953 22.9598C12.96 22.8763 12.9657 22.7939 12.97 22.7129C12.9745 22.632 12.9776 22.555 12.98 22.4818C12.9823 22.4087 12.9837 22.3407 12.9845 22.2781C12.985 22.2154 12.9852 22.1608 12.9852 22.1143C12.9852 22.0894 12.9834 22.068 12.9797 22.0504C12.9759 22.0326 12.9689 22.0179 12.9587 22.0068C12.9485 21.9954 12.9348 21.9872 12.9174 21.9819C12.8999 21.9767 12.8773 21.9742 12.8494 21.9742C12.8297 21.9742 12.8074 21.9753 12.7829 21.9776C12.7582 21.9798 12.7301 21.9833 12.6988 21.9879L12.6891 21.9113C12.7379 21.9003 12.782 21.8905 12.8215 21.8818C12.861 21.8731 12.8967 21.8657 12.9287 21.86C12.9605 21.8542 12.9895 21.8496 13.0152 21.8465C13.0412 21.8434 13.0644 21.8417 13.0853 21.8417C13.1068 21.8417 13.1256 21.8443 13.1416 21.8494L13.1861 21.8749C13.1997 21.8864 13.2129 21.902 13.2259 21.9214C13.239 21.9408 13.2536 21.9648 13.2691 21.9932Z" fill="#151515" fill-opacity="0.7"/>
<path d="M14.822 23.5494C14.822 23.572 14.8244 23.5936 14.8293 23.6143C14.8342 23.635 14.8421 23.6531 14.8528 23.6687L14.8938 23.7057C14.9104 23.7147 14.9303 23.719 14.9535 23.719C14.9796 23.719 15.0066 23.713 15.0344 23.7009C15.0623 23.6886 15.0899 23.672 15.1167 23.6504C15.1437 23.6289 15.1696 23.6033 15.1943 23.5734C15.219 23.5434 15.2412 23.5108 15.2609 23.4752C15.2805 23.4399 15.297 23.4025 15.31 23.3635C15.323 23.3243 15.3316 23.284 15.3358 23.2428C15.2929 23.2441 15.2501 23.2466 15.2077 23.251C15.1654 23.2554 15.1251 23.2622 15.0871 23.2715C15.049 23.2809 15.0138 23.293 14.9812 23.3082C14.9489 23.3232 14.9208 23.3419 14.8973 23.3642C14.8737 23.3868 14.8553 23.4131 14.8421 23.4435C14.8286 23.4741 14.822 23.5093 14.822 23.5494ZM15.3567 22.9512C15.3567 22.9052 15.349 22.8654 15.334 22.8317C15.319 22.7982 15.2992 22.7706 15.2748 22.7491C15.2504 22.7275 15.223 22.7116 15.1922 22.7011C15.1612 22.6907 15.1304 22.6854 15.0999 22.6854C15.0585 22.6854 15.0237 22.6898 14.9952 22.6986C14.9667 22.7074 14.9437 22.7193 14.926 22.7343C14.9083 22.7493 14.8955 22.7673 14.8877 22.7878C14.8798 22.8085 14.8758 22.8306 14.8758 22.8545C14.8758 22.8823 14.8811 22.9103 14.8912 22.9385C14.9013 22.9667 14.9163 22.994 14.936 23.0208L14.9326 23.0303C14.8995 23.0466 14.866 23.0548 14.8324 23.0548C14.8127 23.0548 14.7943 23.0515 14.7772 23.0455C14.7599 23.0395 14.7451 23.0307 14.7328 23.0189C14.7202 23.0074 14.7104 22.9933 14.7031 22.9763C14.6957 22.9596 14.6922 22.9405 14.6922 22.9197C14.6922 22.8856 14.7004 22.8532 14.717 22.8231C14.7335 22.7929 14.7555 22.7652 14.7827 22.7403C14.81 22.7154 14.8417 22.6931 14.8777 22.6733C14.9136 22.6535 14.9508 22.6368 14.9891 22.6233C15.0274 22.6095 15.0658 22.5991 15.1045 22.592C15.1431 22.5846 15.1791 22.581 15.2122 22.581C15.273 22.581 15.3252 22.5892 15.3683 22.6053C15.4116 22.6216 15.4467 22.6453 15.4737 22.6764C15.5007 22.7074 15.5206 22.7451 15.5329 22.7891C15.5454 22.8332 15.5517 22.8832 15.5517 22.9389C15.5517 22.9772 15.5501 23.0193 15.5469 23.0651C15.5436 23.1111 15.5401 23.1591 15.5359 23.2093C15.5321 23.2595 15.5283 23.3113 15.5252 23.3648C15.5221 23.4181 15.5204 23.4712 15.5204 23.5241C15.5204 23.6077 15.5359 23.6705 15.5669 23.7126C15.598 23.7548 15.6388 23.7758 15.6893 23.7758C15.734 23.7758 15.7839 23.7592 15.8392 23.7262L15.8644 23.7636C15.8254 23.8026 15.783 23.8321 15.7372 23.8524C15.6914 23.8727 15.6431 23.883 15.5927 23.883C15.555 23.883 15.52 23.8764 15.4882 23.8638C15.4562 23.8509 15.4287 23.8319 15.4054 23.8068C15.3822 23.7815 15.3642 23.7496 15.3513 23.7114C15.3387 23.6731 15.3322 23.6286 15.3322 23.578L15.3336 23.5328C15.3344 23.5177 15.3364 23.5018 15.3392 23.4849H15.334C15.309 23.535 15.2802 23.584 15.2474 23.6326C15.2145 23.6809 15.1786 23.7242 15.1394 23.7623C15.1002 23.8004 15.0583 23.8312 15.0139 23.8546C14.9696 23.878 14.9229 23.89 14.8743 23.89C14.8342 23.89 14.7976 23.883 14.7644 23.8689C14.7314 23.855 14.7031 23.8359 14.6796 23.8116C14.656 23.7872 14.6378 23.7582 14.6247 23.7249C14.6117 23.6916 14.605 23.6549 14.605 23.6156C14.605 23.5644 14.6145 23.5179 14.6335 23.4762C14.6522 23.4344 14.6784 23.397 14.7118 23.3639C14.7451 23.3307 14.785 23.3021 14.8315 23.2781C14.878 23.254 14.9284 23.234 14.983 23.2181C15.0375 23.2021 15.0954 23.1902 15.1564 23.1823C15.2174 23.1745 15.2794 23.1706 15.3428 23.1706C15.3467 23.134 15.3501 23.0986 15.3527 23.0644C15.3553 23.0301 15.3567 22.9924 15.3567 22.9512Z" fill="#151515" fill-opacity="0.7"/>
<path d="M16.3528 21.964C16.3283 22.0742 16.3079 22.1882 16.2914 22.3056C16.2748 22.4232 16.2607 22.5391 16.2491 22.6536C16.2764 22.6547 16.3029 22.6556 16.3288 22.6562C16.3545 22.6567 16.3787 22.6573 16.4011 22.658C16.4234 22.6584 16.4438 22.6588 16.4621 22.6588C16.4803 22.6588 16.4956 22.6588 16.5077 22.6588C16.5606 22.6588 16.6037 22.6556 16.6376 22.6492L16.6445 22.6762L16.647 22.6989C16.647 22.7243 16.6364 22.741 16.6154 22.7485C16.5941 22.756 16.5635 22.7599 16.5234 22.7599C16.4851 22.7599 16.4423 22.7575 16.395 22.7529C16.3476 22.7481 16.2958 22.7438 16.2395 22.7397C16.2331 22.802 16.2277 22.8624 16.2234 22.9214C16.2191 22.9802 16.2156 23.0359 16.2128 23.0881C16.2103 23.1403 16.2084 23.1889 16.2073 23.2336C16.2061 23.2783 16.2056 23.3171 16.2056 23.3503C16.2056 23.4124 16.2088 23.4679 16.2152 23.5166C16.2215 23.5653 16.233 23.6067 16.2491 23.6406C16.2653 23.6747 16.2876 23.7007 16.3161 23.7186C16.3446 23.7366 16.3806 23.7457 16.4241 23.7457C16.4554 23.7457 16.4905 23.7401 16.5292 23.7291C16.5676 23.7181 16.6116 23.7003 16.661 23.6759C16.6767 23.6917 16.6857 23.7107 16.688 23.7335C16.6521 23.7573 16.6157 23.7789 16.5792 23.7983C16.5426 23.8177 16.5066 23.8344 16.4712 23.8483C16.4357 23.8622 16.4014 23.873 16.3683 23.8806C16.3353 23.8881 16.3039 23.8919 16.2744 23.8919C16.2355 23.8919 16.1998 23.8848 16.1676 23.8707C16.1354 23.8564 16.1075 23.8311 16.0841 23.7948C16.0607 23.7586 16.0423 23.7096 16.0292 23.6481C16.0162 23.5866 16.0096 23.5087 16.0096 23.4147C16.0096 23.3618 16.0106 23.3074 16.0121 23.2513C16.014 23.1955 16.0163 23.1387 16.0192 23.0812C16.022 23.0236 16.026 22.9661 16.0306 22.9088C16.035 22.8513 16.0404 22.7947 16.0462 22.7388C16.0004 22.7395 15.9578 22.7414 15.9186 22.7447C15.8795 22.7478 15.8458 22.7529 15.8181 22.7599L15.8154 22.7476L15.8333 22.7132C15.8451 22.7025 15.8617 22.6928 15.8829 22.684C15.9042 22.6752 15.9295 22.6681 15.9591 22.6622C15.9887 22.6566 16.0213 22.6523 16.0567 22.6501C16.07 22.5287 16.0843 22.4142 16.0993 22.3061C16.1143 22.1981 16.1295 22.1017 16.1446 22.0171L16.1607 21.9795L16.1882 21.9561L16.2222 21.9438L16.2578 21.9403C16.2769 21.9403 16.2943 21.9423 16.3097 21.9464L16.3528 21.964Z" fill="#151515" fill-opacity="0.7"/>
<path d="M17.8654 22.5985C17.8602 22.6536 17.8553 22.7121 17.8509 22.774C17.8466 22.8359 17.8427 22.8976 17.8392 22.9595C17.8357 23.0213 17.8332 23.0819 17.8314 23.1411C17.8297 23.2002 17.8287 23.2548 17.8287 23.3048C17.8287 23.3993 17.8343 23.4768 17.8453 23.5369C17.8563 23.597 17.8706 23.6443 17.8879 23.6789C17.9054 23.7133 17.9253 23.7371 17.9476 23.7501C17.97 23.7633 17.9926 23.7697 18.0151 23.7697L18.0548 23.7646L18.0917 23.752L18.1235 23.7358L18.1483 23.7201L18.1772 23.7602C18.1602 23.7776 18.1411 23.7941 18.1196 23.8095C18.0981 23.8249 18.0756 23.8382 18.0518 23.8494C18.0278 23.8608 18.003 23.8697 17.9768 23.876C17.9507 23.8824 17.9242 23.8857 17.8976 23.8857C17.864 23.8857 17.8312 23.8789 17.7995 23.8655C17.7679 23.8523 17.7398 23.8298 17.7152 23.7981C17.6904 23.7664 17.6706 23.7243 17.6556 23.6719C17.6404 23.6193 17.6329 23.5541 17.6329 23.4763C17.6329 23.4514 17.6334 23.4263 17.6346 23.401C17.6357 23.3757 17.6377 23.349 17.6402 23.3204C17.6429 23.292 17.6463 23.2614 17.6502 23.229C17.6543 23.1964 17.6589 23.1605 17.6642 23.1211L17.6546 23.1193C17.6151 23.2651 17.5724 23.3873 17.5262 23.486C17.4801 23.5847 17.4327 23.6642 17.3841 23.7245C17.3357 23.7849 17.2871 23.828 17.2384 23.8538C17.1895 23.8796 17.143 23.8926 17.0991 23.8926C17.0468 23.8926 17.0033 23.8785 16.9689 23.8503C16.9343 23.8221 16.9067 23.784 16.886 23.7355C16.8654 23.6869 16.8509 23.6307 16.8425 23.5666C16.8341 23.5023 16.8298 23.4341 16.8298 23.3623C16.8298 23.3013 16.8318 23.2387 16.8355 23.1746C16.8393 23.1105 16.8444 23.0475 16.8504 22.9857C16.8565 22.9238 16.8635 22.8648 16.8713 22.8088C16.879 22.7529 16.8871 22.7027 16.8953 22.6586L16.9096 22.6194L16.9327 22.5968L16.9615 22.5862L16.9928 22.5837C17.0124 22.5837 17.0309 22.586 17.0481 22.5906C17.0652 22.5954 17.0822 22.602 17.0991 22.6108C17.0885 22.6763 17.0788 22.7417 17.0699 22.8068C17.0607 22.8718 17.0529 22.9348 17.0463 22.996C17.0397 23.0574 17.0345 23.1163 17.0308 23.1733C17.0268 23.2303 17.025 23.2834 17.025 23.3327C17.025 23.3862 17.0277 23.4347 17.0332 23.4785C17.0388 23.5224 17.0479 23.56 17.0607 23.5913C17.0735 23.6226 17.0899 23.6468 17.11 23.664C17.13 23.6811 17.1545 23.6897 17.1834 23.6897C17.2329 23.6897 17.2833 23.6631 17.335 23.61C17.3867 23.5569 17.436 23.4792 17.4831 23.377C17.53 23.275 17.5701 23.1601 17.6032 23.0326C17.6362 22.9053 17.6575 22.7677 17.6668 22.6203L17.8514 22.5976L17.8654 22.5985Z" fill="#151515" fill-opacity="0.7"/>
<path d="M18.3486 23.8693L18.3345 23.8684C18.3393 23.8134 18.3435 23.7533 18.3477 23.6883C18.3517 23.6233 18.3556 23.5571 18.3589 23.4901C18.3625 23.423 18.3654 23.3566 18.368 23.2906C18.3708 23.2248 18.373 23.1633 18.375 23.106C18.3772 23.0488 18.3786 22.9977 18.3795 22.9523C18.3803 22.907 18.3806 22.8713 18.3806 22.8453C18.3806 22.8237 18.3799 22.8052 18.3781 22.7894L18.3664 22.7502L18.3398 22.7272C18.3281 22.7224 18.3125 22.7198 18.2927 22.7198L18.2623 22.7217L18.2274 22.7268L18.1843 22.7359C18.1684 22.7396 18.1499 22.7442 18.129 22.7495L18.116 22.6867C18.2124 22.6519 18.2903 22.6273 18.3502 22.613C18.4101 22.5989 18.4503 22.5918 18.4713 22.5918C18.5096 22.5918 18.5371 22.603 18.5536 22.6253C18.5702 22.6477 18.5783 22.681 18.5783 22.725C18.5783 22.7292 18.5779 22.7411 18.5766 22.7609C18.5755 22.7805 18.5739 22.8063 18.5719 22.8378C18.5699 22.8695 18.5673 22.9063 18.5644 22.9481C18.5616 22.9898 18.5581 23.0347 18.5545 23.0825C18.5506 23.1305 18.5466 23.1803 18.5418 23.2324C18.5373 23.2844 18.5323 23.336 18.527 23.3877L18.5358 23.3886C18.5635 23.2749 18.595 23.1688 18.6303 23.0704C18.6653 22.9719 18.7049 22.8865 18.7487 22.814C18.7924 22.7413 18.8406 22.6843 18.8932 22.6427C18.9458 22.6013 19.0035 22.5804 19.0661 22.5804C19.0883 22.5804 19.1088 22.5839 19.1278 22.5909C19.1471 22.5978 19.1637 22.6077 19.1775 22.6202C19.1914 22.6326 19.2026 22.6473 19.2106 22.6645C19.2189 22.6815 19.2229 22.7004 19.2229 22.7207C19.2229 22.7468 19.2172 22.772 19.2059 22.796C19.1945 22.82 19.1767 22.8415 19.1522 22.8601H19.1452C19.1209 22.8396 19.0978 22.8252 19.076 22.816C19.0544 22.807 19.0313 22.8026 19.0067 22.8026C18.9807 22.8026 18.9555 22.8074 18.9311 22.8175C18.9066 22.8272 18.8842 22.8415 18.8641 22.8601C18.8309 22.8902 18.8001 22.9301 18.7717 22.9798C18.7433 23.0294 18.7173 23.0844 18.6937 23.1448C18.6703 23.2052 18.649 23.2686 18.6303 23.3351C18.6113 23.4016 18.595 23.4663 18.5814 23.5293C18.5679 23.5923 18.5567 23.6515 18.5483 23.707C18.54 23.7623 18.534 23.809 18.5305 23.8467L18.3486 23.8693Z" fill="#151515" fill-opacity="0.7"/>
<path d="M19.4185 23.5494C19.4185 23.572 19.4209 23.5936 19.4259 23.6143C19.4308 23.635 19.4387 23.6531 19.4493 23.6687L19.4903 23.7057C19.507 23.7147 19.5268 23.719 19.5501 23.719C19.5763 23.719 19.6032 23.713 19.631 23.7009C19.6589 23.6886 19.6863 23.672 19.7133 23.6504C19.7402 23.6289 19.7662 23.6033 19.7909 23.5734C19.8155 23.5434 19.8377 23.5108 19.8574 23.4752C19.877 23.4399 19.8935 23.4025 19.9065 23.3635C19.9197 23.3243 19.9283 23.284 19.9324 23.2428C19.8895 23.2441 19.8466 23.2466 19.8043 23.251C19.7618 23.2554 19.7217 23.2622 19.6838 23.2715C19.6457 23.2809 19.6103 23.293 19.5779 23.3082C19.5455 23.3232 19.5173 23.3419 19.494 23.3642C19.4704 23.3868 19.4519 23.4131 19.4387 23.4435C19.4253 23.4741 19.4185 23.5093 19.4185 23.5494ZM19.9532 22.9512C19.9532 22.9052 19.9455 22.8654 19.9305 22.8317C19.9155 22.7982 19.8957 22.7706 19.8714 22.7491C19.847 22.7275 19.8195 22.7116 19.7887 22.7011C19.7578 22.6907 19.727 22.6854 19.6964 22.6854C19.655 22.6854 19.6202 22.6898 19.5918 22.6986C19.5633 22.7074 19.5402 22.7193 19.5226 22.7343C19.5048 22.7493 19.4922 22.7673 19.4843 22.7878C19.4764 22.8085 19.4724 22.8306 19.4724 22.8545C19.4724 22.8823 19.4777 22.9103 19.4878 22.9385C19.4979 22.9667 19.5129 22.994 19.5325 23.0208L19.5292 23.0303C19.496 23.0466 19.4627 23.0548 19.429 23.0548C19.4094 23.0548 19.3909 23.0515 19.3737 23.0455C19.3566 23.0395 19.3416 23.0307 19.3293 23.0189C19.3169 23.0074 19.307 22.9933 19.2997 22.9763C19.2923 22.9596 19.2887 22.9405 19.2887 22.9197C19.2887 22.8856 19.2969 22.8532 19.3136 22.8231C19.3301 22.7929 19.352 22.7652 19.3793 22.7403C19.4066 22.7154 19.4383 22.6931 19.4742 22.6733C19.5101 22.6535 19.5475 22.6368 19.5856 22.6233C19.6239 22.6095 19.6624 22.5991 19.701 22.592C19.7397 22.5846 19.7757 22.581 19.8087 22.581C19.8695 22.581 19.9217 22.5892 19.965 22.6053C20.0082 22.6216 20.0434 22.6453 20.0703 22.6764C20.0972 22.7074 20.1172 22.7451 20.1295 22.7891C20.1421 22.8332 20.1483 22.8832 20.1483 22.9389C20.1483 22.9772 20.1467 23.0193 20.1434 23.0651C20.1403 23.1111 20.1366 23.1591 20.1326 23.2093C20.1285 23.2595 20.1249 23.3113 20.1218 23.3648C20.1186 23.4181 20.117 23.4712 20.117 23.5241C20.117 23.6077 20.1326 23.6705 20.1635 23.7126C20.1947 23.7548 20.2353 23.7758 20.2859 23.7758C20.3306 23.7758 20.3804 23.7592 20.4357 23.7262L20.461 23.7636C20.422 23.8026 20.3795 23.8321 20.3337 23.8524C20.2879 23.8727 20.2397 23.883 20.1892 23.883C20.1514 23.883 20.1166 23.8764 20.0848 23.8638C20.0527 23.8509 20.0252 23.8319 20.002 23.8068C19.9787 23.7815 19.9607 23.7496 19.9479 23.7114C19.9353 23.6731 19.9289 23.6286 19.9289 23.578L19.9302 23.5328C19.9309 23.5177 19.9329 23.5018 19.9358 23.4849H19.9305C19.9056 23.535 19.8767 23.584 19.8441 23.6326C19.8111 23.6809 19.7752 23.7242 19.736 23.7623C19.6968 23.8004 19.6548 23.8312 19.6105 23.8546C19.5662 23.878 19.5195 23.89 19.4709 23.89C19.4308 23.89 19.3942 23.883 19.361 23.8689C19.3279 23.855 19.2997 23.8359 19.2762 23.8116C19.2526 23.7872 19.2344 23.7582 19.2213 23.7249C19.2083 23.6916 19.2017 23.6549 19.2017 23.6156C19.2017 23.5644 19.2112 23.5179 19.2301 23.4762C19.2489 23.4344 19.2749 23.397 19.3085 23.3639C19.3416 23.3307 19.3815 23.3021 19.4281 23.2781C19.4746 23.254 19.525 23.234 19.5796 23.2181C19.6341 23.2021 19.692 23.1902 19.753 23.1823C19.814 23.1745 19.8759 23.1706 19.9393 23.1706C19.9433 23.134 19.9466 23.0986 19.9494 23.0644C19.952 23.0301 19.9532 22.9924 19.9532 22.9512Z" fill="#151515" fill-opacity="0.7"/>
<path d="M20.926 21.5092C20.9143 21.6079 20.9029 21.709 20.8916 21.8127C20.8804 21.9162 20.8696 22.021 20.8593 22.1271C20.8493 22.2329 20.8397 22.3394 20.8311 22.4461C20.8223 22.5529 20.8148 22.6583 20.8084 22.7618C20.802 22.8654 20.7972 22.9673 20.7936 23.0671C20.7903 23.167 20.7885 23.2628 20.7885 23.3545C20.7885 23.412 20.7892 23.4613 20.7906 23.5025C20.7919 23.5437 20.7943 23.5786 20.7976 23.6069C20.8007 23.6355 20.8051 23.6584 20.8106 23.6758C20.8161 23.6932 20.8229 23.7066 20.8311 23.7159L20.8597 23.7346L20.8989 23.7394C20.9269 23.7394 20.957 23.7352 20.9892 23.7267C21.0213 23.7183 21.0541 23.7066 21.0872 23.6916L21.1037 23.7368C21.0828 23.7537 21.0566 23.7707 21.0249 23.7881C20.9932 23.8055 20.9599 23.8216 20.9251 23.8361C20.8903 23.8506 20.8562 23.8623 20.8227 23.8713C20.7896 23.8802 20.7604 23.8848 20.7362 23.8848C20.7049 23.8848 20.68 23.8768 20.6617 23.8608C20.6436 23.8449 20.6296 23.8189 20.6199 23.783C20.6104 23.7469 20.6044 23.7002 20.6016 23.6423C20.599 23.5846 20.5978 23.5141 20.5978 23.4311C20.5978 23.4009 20.5987 23.3578 20.6003 23.3018C20.602 23.2459 20.6045 23.1807 20.6077 23.1063C20.611 23.032 20.6146 22.9508 20.6186 22.8625C20.6229 22.7742 20.6271 22.683 20.6317 22.5887C20.6364 22.4941 20.6412 22.3989 20.6465 22.3029C20.6518 22.2069 20.6569 22.1139 20.6621 22.0243C20.6674 21.9345 20.6723 21.8499 20.6769 21.7704C20.6817 21.6909 20.6859 21.6206 20.6901 21.5596L20.7022 21.5235L20.7313 21.4991L20.7714 21.4856L20.8163 21.4814C20.8513 21.4814 20.8877 21.4905 20.926 21.5092Z" fill="#151515" fill-opacity="0.7"/>
</svg>
