<svg width="88" height="32" viewBox="0 0 88 32" fill="none" xmlns="http://www.w3.org/2000/svg">
<circle cx="16" cy="15.9996" r="16" fill="#CEA561"/>
<path d="M19.5537 21.3311C20.0252 21.3311 20.4774 21.5184 20.8108 21.8518C21.1442 22.1852 21.3315 22.6374 21.3315 23.1089C21.3315 23.5804 21.1442 24.0325 20.8108 24.3659C20.4774 24.6993 20.0252 24.8866 19.5537 24.8866C19.0822 24.8866 18.63 24.6993 18.2966 24.3659C17.9632 24.0325 17.7759 23.5804 17.7759 23.1089C17.7759 22.6374 17.9632 22.1852 18.2966 21.8518C18.63 21.5184 19.0822 21.3311 19.5537 21.3311ZM19.5537 22.22C19.3179 22.22 19.0918 22.3136 18.9251 22.4803C18.7584 22.647 18.6648 22.8731 18.6648 23.1089C18.6648 23.3446 18.7584 23.5707 18.9251 23.7374C19.0918 23.9041 19.3179 23.9978 19.5537 23.9978C19.7894 23.9978 20.0155 23.9041 20.1822 23.7374C20.3489 23.5707 20.4426 23.3446 20.4426 23.1089C20.4426 22.8731 20.3489 22.647 20.1822 22.4803C20.0155 22.3136 19.7894 22.22 19.5537 22.22ZM11.5537 21.3311C12.0252 21.3311 12.4774 21.5184 12.8108 21.8518C13.1442 22.1852 13.3315 22.6374 13.3315 23.1089C13.3315 23.5804 13.1442 24.0325 12.8108 24.3659C12.4774 24.6993 12.0252 24.8866 11.5537 24.8866C11.0822 24.8866 10.63 24.6993 10.2966 24.3659C9.9632 24.0325 9.7759 23.5804 9.7759 23.1089C9.7759 22.6374 9.9632 22.1852 10.2966 21.8518C10.63 21.5184 11.0822 21.3311 11.5537 21.3311ZM11.5537 22.22C11.3179 22.22 11.0918 22.3136 10.9251 22.4803C10.7584 22.647 10.6648 22.8731 10.6648 23.1089C10.6648 23.3446 10.7584 23.5707 10.9251 23.7374C11.0918 23.9041 11.3179 23.9978 11.5537 23.9978C11.7894 23.9978 12.0155 23.9041 12.1822 23.7374C12.3489 23.5707 12.4426 23.3446 12.4426 23.1089C12.4426 22.8731 12.3489 22.647 12.1822 22.4803C12.0155 22.3136 11.7894 22.22 11.5537 22.22ZM21.3315 10.6644H9.12701L11.3937 15.9977H18.6648C18.9581 15.9977 19.2159 15.8555 19.3759 15.6422L22.0426 12.0866C22.1581 11.9355 22.2204 11.7489 22.2204 11.5533C22.2204 11.3176 22.1267 11.0915 21.96 10.9248C21.7933 10.7581 21.5672 10.6644 21.3315 10.6644ZM18.6648 16.8866H11.4381L10.7537 18.2733L10.6648 18.6644C10.6648 18.9002 10.7584 19.1263 10.9251 19.293C11.0918 19.4597 11.3179 19.5533 11.5537 19.5533H21.3315V20.4422H11.5537C11.0822 20.4422 10.63 20.2549 10.2966 19.9215C9.9632 19.5881 9.7759 19.1359 9.7759 18.6644C9.77563 18.3628 9.8521 18.0661 9.99812 17.8022L10.6381 16.4955L7.41145 8.88663H6.22034V7.99774H7.99812L8.75367 9.77552H21.3315C21.803 9.77552 22.2551 9.96282 22.5885 10.2962C22.9219 10.6296 23.1092 11.0818 23.1092 11.5533C23.1092 11.9977 22.9581 12.3711 22.7092 12.6733L20.1226 16.1311C19.8026 16.5844 19.2692 16.8866 18.6648 16.8866Z" fill="#151515"/>
<circle cx="72" cy="15.9996" r="16" fill="#CEA561"/>
<path d="M79.9981 23.9978L76.1377 20.1373M76.1377 20.1373C76.798 19.477 77.3218 18.693 77.6792 17.8302C78.0366 16.9675 78.2205 16.0427 78.2205 15.1089C78.2205 14.175 78.0366 13.2503 77.6792 12.3875C77.3218 11.5247 76.798 10.7408 76.1377 10.0804C75.4773 9.42006 74.6934 8.89625 73.8306 8.53887C72.9678 8.1815 72.0431 7.99756 71.1092 7.99756C70.1753 7.99756 69.2506 8.1815 68.3878 8.53887C67.5251 8.89625 66.7411 9.42006 66.0808 10.0804C64.7471 11.414 63.9979 13.2228 63.9979 15.1089C63.9979 16.9949 64.7471 18.8037 66.0808 20.1373C67.4144 21.4709 69.2232 22.2202 71.1092 22.2202C72.9952 22.2202 74.804 21.4709 76.1377 20.1373Z" stroke="#151515" stroke-linecap="round" stroke-linejoin="round"/>
</svg>
