<svg width="78" height="16" viewBox="0 0 78 16" fill="none" xmlns="http://www.w3.org/2000/svg">
<mask id="path-1-outside-1_1_1787" maskUnits="userSpaceOnUse" x="0.0625" y="1.77625" width="45" height="11" fill="black">
<rect fill="white" x="0.0625" y="1.77625" width="45" height="11"/>
<path d="M5.13937 11.9493C4.52301 11.9493 3.9499 11.8321 3.42004 11.5978C2.89019 11.3599 2.42522 11.0319 2.02512 10.6138C1.62863 10.1921 1.31865 9.70008 1.09517 9.13779C0.875303 8.57549 0.765368 7.96995 0.765368 7.32115C0.765368 6.70479 0.868094 6.11906 1.07355 5.56398C1.279 5.00529 1.57637 4.51148 1.96565 4.08255C2.35493 3.65362 2.82531 3.3148 3.37679 3.06609C3.93188 2.81739 4.55545 2.69303 5.2475 2.69303C5.66562 2.69303 6.07472 2.74169 6.47482 2.83901C6.87491 2.93633 7.25157 3.07511 7.60481 3.25533C7.96165 3.43555 8.28245 3.65362 8.5672 3.90954L7.88596 5.00168C7.56156 4.67728 7.16507 4.42317 6.69649 4.23934C6.22791 4.05191 5.74852 3.95819 5.25831 3.95819C4.78613 3.95819 4.36621 4.0429 3.99856 4.21231C3.6309 4.38172 3.31912 4.61961 3.0632 4.92599C2.81089 5.22876 2.61805 5.5802 2.48469 5.98029C2.35493 6.37678 2.29005 6.80391 2.29005 7.26167C2.29005 7.75548 2.36394 8.20964 2.51172 8.62415C2.65951 9.03506 2.86496 9.3937 3.12808 9.70008C3.39481 10.0029 3.7048 10.2371 4.05803 10.403C4.41127 10.5652 4.79154 10.6463 5.19884 10.6463C5.53045 10.6463 5.85125 10.5922 6.16123 10.4841C6.47121 10.3759 6.74875 10.2209 6.99386 10.0191C7.23896 9.81723 7.4336 9.57753 7.57778 9.29999C7.72195 9.02245 7.79404 8.71607 7.79404 8.38085V8.18621H5.11233V7.07785H9.23762V8.22947C9.23762 8.80618 9.12228 9.32342 8.8916 9.78118C8.66091 10.2389 8.34913 10.63 7.95624 10.9544C7.56696 11.2752 7.12902 11.5221 6.64242 11.6951C6.15582 11.8646 5.6548 11.9493 5.13937 11.9493ZM10.8832 11.7762V2.47677H12.2295V11.7762H10.8832ZM16.9807 11.9493C16.3823 11.9493 15.8417 11.8249 15.3587 11.5762C14.8793 11.3275 14.499 10.9815 14.2178 10.5381C13.9367 10.0948 13.7961 9.58474 13.7961 9.00803C13.7961 8.42771 13.9367 7.91768 14.2178 7.47794C14.499 7.03459 14.8793 6.68857 15.3587 6.43986C15.838 6.19115 16.3787 6.0668 16.9807 6.0668C17.579 6.0668 18.1179 6.19115 18.5973 6.43986C19.0802 6.68857 19.4605 7.03459 19.7381 7.47794C20.0192 7.91768 20.1598 8.42771 20.1598 9.00803C20.1598 9.58474 20.0192 10.0948 19.7381 10.5381C19.4605 10.9815 19.0802 11.3275 18.5973 11.5762C18.1179 11.8249 17.579 11.9493 16.9807 11.9493ZM16.9807 10.7922C17.3195 10.7922 17.6222 10.7165 17.889 10.5652C18.1593 10.4102 18.372 10.1993 18.527 9.93257C18.682 9.66224 18.7595 9.35406 18.7595 9.00803C18.7595 8.6584 18.682 8.35022 18.527 8.08349C18.372 7.81315 18.1593 7.60229 17.889 7.45091C17.6222 7.29952 17.3195 7.22383 16.9807 7.22383C16.6454 7.22383 16.3427 7.29952 16.0723 7.45091C15.802 7.60229 15.5893 7.81315 15.4343 8.08349C15.2794 8.35022 15.2019 8.6584 15.2019 9.00803C15.2019 9.35406 15.2794 9.66224 15.4343 9.93257C15.5893 10.1993 15.802 10.4102 16.0723 10.5652C16.3427 10.7165 16.6454 10.7922 16.9807 10.7922ZM23.2187 11.9493C22.7537 11.9493 22.3392 11.8628 21.9752 11.6897C21.6147 11.5131 21.3209 11.2608 21.0939 10.9328L21.6886 10.0569C21.9013 10.3381 22.1374 10.5561 22.3969 10.7111C22.66 10.8661 22.9321 10.9436 23.2133 10.9436C23.3863 10.9436 23.5395 10.913 23.6729 10.8517C23.8062 10.7868 23.9125 10.6949 23.9918 10.576C24.0711 10.4534 24.1108 10.3092 24.1108 10.1434C24.1108 9.97042 24.0657 9.83525 23.9756 9.73793C23.8855 9.64061 23.7503 9.5523 23.5701 9.473C23.3899 9.3937 23.1628 9.29999 22.8889 9.19186C22.6582 9.09454 22.4383 8.9864 22.2293 8.86745C22.0202 8.74851 21.8472 8.59892 21.7102 8.4187C21.5769 8.23487 21.5102 8.00239 21.5102 7.72124C21.5102 7.40044 21.5985 7.11569 21.7751 6.86699C21.9553 6.61828 22.2004 6.42364 22.5104 6.28306C22.824 6.14249 23.1808 6.0722 23.5809 6.0722C23.8693 6.0722 24.1595 6.12447 24.4514 6.229C24.7434 6.32992 25.0353 6.4777 25.3273 6.67235L24.8407 7.52119C24.419 7.17156 24.0027 6.99675 23.5918 6.99675C23.3503 6.99675 23.1556 7.05442 23.0078 7.16976C22.8637 7.2851 22.7916 7.43288 22.7916 7.61311C22.7916 7.76089 22.8546 7.88704 22.9808 7.99157C23.107 8.0961 23.2637 8.18802 23.4512 8.26731C23.6386 8.34661 23.826 8.42231 24.0135 8.49439C24.309 8.60253 24.5686 8.71787 24.792 8.84042C25.0155 8.96297 25.1903 9.12157 25.3165 9.31621C25.4426 9.51085 25.5057 9.77037 25.5057 10.0948C25.5057 10.4841 25.412 10.8175 25.2246 11.095C25.0407 11.3725 24.7776 11.5852 24.4352 11.733C24.0928 11.8772 23.6873 11.9493 23.2187 11.9493ZM28.6347 11.9493C28.1697 11.9493 27.7552 11.8628 27.3911 11.6897C27.0307 11.5131 26.7369 11.2608 26.5098 10.9328L27.1046 10.0569C27.3172 10.3381 27.5533 10.5561 27.8128 10.7111C28.076 10.8661 28.3481 10.9436 28.6292 10.9436C28.8023 10.9436 28.9555 10.913 29.0888 10.8517C29.2222 10.7868 29.3285 10.6949 29.4078 10.576C29.4871 10.4534 29.5268 10.3092 29.5268 10.1434C29.5268 9.97042 29.4817 9.83525 29.3916 9.73793C29.3015 9.64061 29.1663 9.5523 28.9861 9.473C28.8059 9.3937 28.5788 9.29999 28.3048 9.19186C28.0742 9.09454 27.8543 8.9864 27.6452 8.86745C27.4362 8.74851 27.2632 8.59892 27.1262 8.4187C26.9928 8.23487 26.9261 8.00239 26.9261 7.72124C26.9261 7.40044 27.0145 7.11569 27.1911 6.86699C27.3713 6.61828 27.6164 6.42364 27.9264 6.28306C28.24 6.14249 28.5968 6.0722 28.9969 6.0722C29.2853 6.0722 29.5754 6.12447 29.8674 6.229C30.1593 6.32992 30.4513 6.4777 30.7433 6.67235L30.2567 7.52119C29.8349 7.17156 29.4186 6.99675 29.0077 6.99675C28.7662 6.99675 28.5716 7.05442 28.4238 7.16976C28.2796 7.2851 28.2075 7.43288 28.2075 7.61311C28.2075 7.76089 28.2706 7.88704 28.3968 7.99157C28.5229 8.0961 28.6797 8.18802 28.8671 8.26731C29.0546 8.34661 29.242 8.42231 29.4294 8.49439C29.725 8.60253 29.9845 8.71787 30.208 8.84042C30.4315 8.96297 30.6063 9.12157 30.7324 9.31621C30.8586 9.51085 30.9217 9.77037 30.9217 10.0948C30.9217 10.4841 30.828 10.8175 30.6405 11.095C30.4567 11.3725 30.1936 11.5852 29.8512 11.733C29.5087 11.8772 29.1032 11.9493 28.6347 11.9493Z"/>
<path d="M37.8531 11.9493C37.3125 11.9493 36.8295 11.8519 36.4041 11.6573C35.9824 11.4591 35.649 11.1797 35.4039 10.8193C35.1624 10.4552 35.0417 10.0263 35.0417 9.53248C35.0417 8.94855 35.2201 8.43853 35.5769 8.00239C35.9374 7.56625 36.4762 7.19319 37.1935 6.88321C36.934 6.59125 36.7267 6.33172 36.5717 6.10464C36.4167 5.87396 36.305 5.65589 36.2365 5.45044C36.1716 5.24138 36.1392 5.02872 36.1392 4.81245C36.1392 4.3691 36.2473 3.98883 36.4636 3.67164C36.6835 3.35445 36.9772 3.11115 37.3449 2.94174C37.7162 2.77233 38.1289 2.68763 38.583 2.68763C38.9759 2.68763 39.3219 2.7471 39.6211 2.86605C39.9239 2.98139 40.1762 3.14179 40.378 3.34724C40.5835 3.54909 40.7385 3.77797 40.843 4.03389C40.9475 4.2862 40.9998 4.54752 40.9998 4.81786C40.9998 5.28283 40.8448 5.69554 40.5348 6.05598C40.2248 6.41282 39.7743 6.74443 39.1832 7.05081L40.9998 8.99721C41.0899 8.92152 41.189 8.826 41.2972 8.71066C41.4089 8.59532 41.5206 8.47637 41.6324 8.35382C41.7477 8.22766 41.8523 8.10872 41.946 7.99698C42.0433 7.88164 42.1208 7.78972 42.1785 7.72124L43.0597 8.53765C42.8759 8.77194 42.6777 9.01524 42.465 9.26755C42.2524 9.51626 42.0595 9.72712 41.8865 9.90013L43.6437 11.7762H41.8703L40.843 10.6733C40.4141 11.0806 39.9473 11.396 39.4427 11.6195C38.9417 11.8393 38.4118 11.9493 37.8531 11.9493ZM38.0369 10.6084C38.3613 10.6084 38.6839 10.5327 39.0047 10.3813C39.3291 10.2263 39.6355 10.0047 39.9239 9.7163L37.9288 7.64555C37.5143 7.82216 37.1917 8.05826 36.961 8.35382C36.7303 8.64939 36.615 8.97559 36.615 9.33243C36.615 9.60276 36.6781 9.83345 36.8042 10.0245C36.934 10.2155 37.107 10.3615 37.3233 10.4624C37.5395 10.5597 37.7774 10.6084 38.0369 10.6084ZM38.4533 6.26684C38.7344 6.11906 38.9723 5.97308 39.1669 5.8289C39.3652 5.68473 39.513 5.52973 39.6103 5.36393C39.7112 5.19813 39.7617 5.01069 39.7617 4.80164C39.7617 4.58537 39.7112 4.39433 39.6103 4.22853C39.513 4.06272 39.3796 3.93477 39.2102 3.84465C39.0444 3.75094 38.857 3.70408 38.6479 3.70408C38.4352 3.70408 38.2478 3.75094 38.0856 3.84465C37.9234 3.93477 37.7954 4.06092 37.7017 4.22312C37.608 4.38532 37.5612 4.56915 37.5612 4.7746C37.5612 4.9332 37.59 5.08639 37.6477 5.23417C37.7089 5.38195 37.8045 5.53875 37.9342 5.70455C38.064 5.87036 38.237 6.05779 38.4533 6.26684Z"/>
</mask>
<path d="M5.13937 11.9493C4.52301 11.9493 3.9499 11.8321 3.42004 11.5978C2.89019 11.3599 2.42522 11.0319 2.02512 10.6138C1.62863 10.1921 1.31865 9.70008 1.09517 9.13779C0.875303 8.57549 0.765368 7.96995 0.765368 7.32115C0.765368 6.70479 0.868094 6.11906 1.07355 5.56398C1.279 5.00529 1.57637 4.51148 1.96565 4.08255C2.35493 3.65362 2.82531 3.3148 3.37679 3.06609C3.93188 2.81739 4.55545 2.69303 5.2475 2.69303C5.66562 2.69303 6.07472 2.74169 6.47482 2.83901C6.87491 2.93633 7.25157 3.07511 7.60481 3.25533C7.96165 3.43555 8.28245 3.65362 8.5672 3.90954L7.88596 5.00168C7.56156 4.67728 7.16507 4.42317 6.69649 4.23934C6.22791 4.05191 5.74852 3.95819 5.25831 3.95819C4.78613 3.95819 4.36621 4.0429 3.99856 4.21231C3.6309 4.38172 3.31912 4.61961 3.0632 4.92599C2.81089 5.22876 2.61805 5.5802 2.48469 5.98029C2.35493 6.37678 2.29005 6.80391 2.29005 7.26167C2.29005 7.75548 2.36394 8.20964 2.51172 8.62415C2.65951 9.03506 2.86496 9.3937 3.12808 9.70008C3.39481 10.0029 3.7048 10.2371 4.05803 10.403C4.41127 10.5652 4.79154 10.6463 5.19884 10.6463C5.53045 10.6463 5.85125 10.5922 6.16123 10.4841C6.47121 10.3759 6.74875 10.2209 6.99386 10.0191C7.23896 9.81723 7.4336 9.57753 7.57778 9.29999C7.72195 9.02245 7.79404 8.71607 7.79404 8.38085V8.18621H5.11233V7.07785H9.23762V8.22947C9.23762 8.80618 9.12228 9.32342 8.8916 9.78118C8.66091 10.2389 8.34913 10.63 7.95624 10.9544C7.56696 11.2752 7.12902 11.5221 6.64242 11.6951C6.15582 11.8646 5.6548 11.9493 5.13937 11.9493ZM10.8832 11.7762V2.47677H12.2295V11.7762H10.8832ZM16.9807 11.9493C16.3823 11.9493 15.8417 11.8249 15.3587 11.5762C14.8793 11.3275 14.499 10.9815 14.2178 10.5381C13.9367 10.0948 13.7961 9.58474 13.7961 9.00803C13.7961 8.42771 13.9367 7.91768 14.2178 7.47794C14.499 7.03459 14.8793 6.68857 15.3587 6.43986C15.838 6.19115 16.3787 6.0668 16.9807 6.0668C17.579 6.0668 18.1179 6.19115 18.5973 6.43986C19.0802 6.68857 19.4605 7.03459 19.7381 7.47794C20.0192 7.91768 20.1598 8.42771 20.1598 9.00803C20.1598 9.58474 20.0192 10.0948 19.7381 10.5381C19.4605 10.9815 19.0802 11.3275 18.5973 11.5762C18.1179 11.8249 17.579 11.9493 16.9807 11.9493ZM16.9807 10.7922C17.3195 10.7922 17.6222 10.7165 17.889 10.5652C18.1593 10.4102 18.372 10.1993 18.527 9.93257C18.682 9.66224 18.7595 9.35406 18.7595 9.00803C18.7595 8.6584 18.682 8.35022 18.527 8.08349C18.372 7.81315 18.1593 7.60229 17.889 7.45091C17.6222 7.29952 17.3195 7.22383 16.9807 7.22383C16.6454 7.22383 16.3427 7.29952 16.0723 7.45091C15.802 7.60229 15.5893 7.81315 15.4343 8.08349C15.2794 8.35022 15.2019 8.6584 15.2019 9.00803C15.2019 9.35406 15.2794 9.66224 15.4343 9.93257C15.5893 10.1993 15.802 10.4102 16.0723 10.5652C16.3427 10.7165 16.6454 10.7922 16.9807 10.7922ZM23.2187 11.9493C22.7537 11.9493 22.3392 11.8628 21.9752 11.6897C21.6147 11.5131 21.3209 11.2608 21.0939 10.9328L21.6886 10.0569C21.9013 10.3381 22.1374 10.5561 22.3969 10.7111C22.66 10.8661 22.9321 10.9436 23.2133 10.9436C23.3863 10.9436 23.5395 10.913 23.6729 10.8517C23.8062 10.7868 23.9125 10.6949 23.9918 10.576C24.0711 10.4534 24.1108 10.3092 24.1108 10.1434C24.1108 9.97042 24.0657 9.83525 23.9756 9.73793C23.8855 9.64061 23.7503 9.5523 23.5701 9.473C23.3899 9.3937 23.1628 9.29999 22.8889 9.19186C22.6582 9.09454 22.4383 8.9864 22.2293 8.86745C22.0202 8.74851 21.8472 8.59892 21.7102 8.4187C21.5769 8.23487 21.5102 8.00239 21.5102 7.72124C21.5102 7.40044 21.5985 7.11569 21.7751 6.86699C21.9553 6.61828 22.2004 6.42364 22.5104 6.28306C22.824 6.14249 23.1808 6.0722 23.5809 6.0722C23.8693 6.0722 24.1595 6.12447 24.4514 6.229C24.7434 6.32992 25.0353 6.4777 25.3273 6.67235L24.8407 7.52119C24.419 7.17156 24.0027 6.99675 23.5918 6.99675C23.3503 6.99675 23.1556 7.05442 23.0078 7.16976C22.8637 7.2851 22.7916 7.43288 22.7916 7.61311C22.7916 7.76089 22.8546 7.88704 22.9808 7.99157C23.107 8.0961 23.2637 8.18802 23.4512 8.26731C23.6386 8.34661 23.826 8.42231 24.0135 8.49439C24.309 8.60253 24.5686 8.71787 24.792 8.84042C25.0155 8.96297 25.1903 9.12157 25.3165 9.31621C25.4426 9.51085 25.5057 9.77037 25.5057 10.0948C25.5057 10.4841 25.412 10.8175 25.2246 11.095C25.0407 11.3725 24.7776 11.5852 24.4352 11.733C24.0928 11.8772 23.6873 11.9493 23.2187 11.9493ZM28.6347 11.9493C28.1697 11.9493 27.7552 11.8628 27.3911 11.6897C27.0307 11.5131 26.7369 11.2608 26.5098 10.9328L27.1046 10.0569C27.3172 10.3381 27.5533 10.5561 27.8128 10.7111C28.076 10.8661 28.3481 10.9436 28.6292 10.9436C28.8023 10.9436 28.9555 10.913 29.0888 10.8517C29.2222 10.7868 29.3285 10.6949 29.4078 10.576C29.4871 10.4534 29.5268 10.3092 29.5268 10.1434C29.5268 9.97042 29.4817 9.83525 29.3916 9.73793C29.3015 9.64061 29.1663 9.5523 28.9861 9.473C28.8059 9.3937 28.5788 9.29999 28.3048 9.19186C28.0742 9.09454 27.8543 8.9864 27.6452 8.86745C27.4362 8.74851 27.2632 8.59892 27.1262 8.4187C26.9928 8.23487 26.9261 8.00239 26.9261 7.72124C26.9261 7.40044 27.0145 7.11569 27.1911 6.86699C27.3713 6.61828 27.6164 6.42364 27.9264 6.28306C28.24 6.14249 28.5968 6.0722 28.9969 6.0722C29.2853 6.0722 29.5754 6.12447 29.8674 6.229C30.1593 6.32992 30.4513 6.4777 30.7433 6.67235L30.2567 7.52119C29.8349 7.17156 29.4186 6.99675 29.0077 6.99675C28.7662 6.99675 28.5716 7.05442 28.4238 7.16976C28.2796 7.2851 28.2075 7.43288 28.2075 7.61311C28.2075 7.76089 28.2706 7.88704 28.3968 7.99157C28.5229 8.0961 28.6797 8.18802 28.8671 8.26731C29.0546 8.34661 29.242 8.42231 29.4294 8.49439C29.725 8.60253 29.9845 8.71787 30.208 8.84042C30.4315 8.96297 30.6063 9.12157 30.7324 9.31621C30.8586 9.51085 30.9217 9.77037 30.9217 10.0948C30.9217 10.4841 30.828 10.8175 30.6405 11.095C30.4567 11.3725 30.1936 11.5852 29.8512 11.733C29.5087 11.8772 29.1032 11.9493 28.6347 11.9493Z" fill="white"/>
<path d="M3.42004 11.5978L3.28715 11.8938L3.28884 11.8946L3.42004 11.5978ZM2.02512 10.6138L1.78873 10.8361L1.79071 10.8381L2.02512 10.6138ZM1.09517 9.13779L0.793005 9.25594L0.79367 9.25762L1.09517 9.13779ZM1.07355 5.56398L1.37782 5.6766L1.37806 5.67596L1.07355 5.56398ZM1.96565 4.08255L1.7254 3.8645V3.8645L1.96565 4.08255ZM3.37679 3.06609L3.24413 2.77001L3.24341 2.77033L3.37679 3.06609ZM6.47482 2.83901L6.5515 2.52376H6.5515L6.47482 2.83901ZM7.60481 3.25533L7.45736 3.54433L7.45854 3.54493L7.60481 3.25533ZM8.5672 3.90953L8.84248 4.08125L8.98658 3.85023L8.78407 3.66823L8.5672 3.90953ZM7.88596 5.00168L7.65654 5.2311L7.94519 5.51975L8.16124 5.17339L7.88596 5.00168ZM6.69649 4.23934L6.57599 4.54059L6.578 4.54138L6.69649 4.23934ZM3.99856 4.21231L4.13434 4.50698H4.13434L3.99856 4.21231ZM3.0632 4.92599L2.8142 4.718L2.81396 4.71829L3.0632 4.92599ZM2.48469 5.98029L2.17689 5.87769L2.17634 5.87938L2.48469 5.98029ZM2.51172 8.62415L2.20612 8.73311L2.20642 8.73396L2.51172 8.62415ZM3.12808 9.70008L2.88193 9.91148L2.88463 9.91455L3.12808 9.70008ZM4.05803 10.403L3.92017 10.6967L3.92264 10.6978L4.05803 10.403ZM6.16123 10.484L6.05436 10.1777L6.16123 10.484ZM7.57778 9.29999L7.86569 9.44955L7.57778 9.29999ZM7.79404 8.18621H8.11849V7.86177H7.79404V8.18621ZM5.11233 8.18621H4.78789V8.51066H5.11233V8.18621ZM5.11233 7.07785V6.7534H4.78789V7.07785H5.11233ZM9.23763 7.07785H9.56207V6.7534H9.23763V7.07785ZM8.8916 9.78118L9.18133 9.92719V9.92719L8.8916 9.78118ZM7.95624 10.9544L8.16258 11.2048L8.16282 11.2046L7.95624 10.9544ZM6.64242 11.6951L6.7491 12.0016L6.75111 12.0008L6.64242 11.6951ZM5.13937 11.6248C4.56526 11.6248 4.03717 11.516 3.55125 11.3011L3.28884 11.8946C3.86262 12.1483 4.48075 12.2737 5.13937 12.2737V11.6248ZM3.55293 11.3018C3.06108 11.081 2.63061 10.7773 2.25954 10.3895L1.79071 10.8381C2.21982 11.2866 2.7193 11.6389 3.28716 11.8938L3.55293 11.3018ZM2.2615 10.3916C1.89423 10.0009 1.60578 9.54407 1.39668 9.01796L0.79367 9.25762C1.03153 9.85609 1.36304 10.3833 1.78874 10.836L2.2615 10.3916ZM1.39734 9.01963C1.19326 8.49772 1.08981 7.93256 1.08981 7.32115H0.440923C0.440923 8.00734 0.557347 8.65327 0.79301 9.25594L1.39734 9.01963ZM1.08981 7.32115C1.08981 6.74161 1.18626 6.19415 1.37782 5.6766L0.769277 5.45136C0.549933 6.04397 0.440923 6.66796 0.440923 7.32115H1.08981ZM1.37806 5.67596C1.56952 5.15532 1.84544 4.69777 2.2059 4.30059L1.7254 3.8645C1.3073 4.32519 0.988487 4.85526 0.769041 5.452L1.37806 5.67596ZM2.2059 4.30059C2.56394 3.90609 2.99743 3.59309 3.51017 3.36185L3.24341 2.77033C2.65319 3.03651 2.14592 3.40115 1.7254 3.8645L2.2059 4.30059ZM3.50945 3.36218C4.01743 3.13458 4.59488 3.01748 5.2475 3.01748V2.36859C4.51601 2.36859 3.84633 2.5002 3.24413 2.77001L3.50945 3.36218ZM5.2475 3.01748C5.64018 3.01748 6.02353 3.06315 6.39813 3.15427L6.5515 2.52376C6.12591 2.42024 5.69105 2.36859 5.2475 2.36859V3.01748ZM6.39813 3.15427C6.77464 3.24585 7.12746 3.37601 7.45736 3.54433L7.75226 2.96632C7.37569 2.7742 6.97518 2.62682 6.5515 2.52376L6.39813 3.15427ZM7.45854 3.54493C7.79095 3.71281 8.0878 3.9149 8.35032 4.15084L8.78407 3.66823C8.47709 3.39234 8.13235 3.15829 7.75108 2.96572L7.45854 3.54493ZM8.29192 3.73782L7.61068 4.82997L8.16124 5.17339L8.84248 4.08125L8.29192 3.73782ZM8.11537 4.77227C7.75644 4.41333 7.32107 4.13585 6.81498 3.93731L6.578 4.54138C7.00907 4.71049 7.36667 4.94123 7.65654 5.2311L8.11537 4.77227ZM6.81698 3.9381C6.31124 3.7358 5.79102 3.63375 5.25831 3.63375V4.28264C5.70602 4.28264 6.14458 4.36802 6.57599 4.54058L6.81698 3.9381ZM5.25831 3.63375C4.747 3.63375 4.27953 3.72561 3.86278 3.91764L4.13434 4.50698C4.4529 4.36019 4.82526 4.28264 5.25831 4.28264V3.63375ZM3.86278 3.91764C3.45206 4.1069 3.10141 4.37416 2.8142 4.718L3.31221 5.13398C3.53683 4.86507 3.80975 4.65654 4.13434 4.50698L3.86278 3.91764ZM2.81396 4.71829C2.53398 5.05426 2.32215 5.44193 2.17689 5.87769L2.79248 6.08289C2.91396 5.71846 3.08781 5.40327 3.31245 5.13369L2.81396 4.71829ZM2.17634 5.87938C2.03493 6.31145 1.96561 6.77295 1.96561 7.26167H2.61449C2.61449 6.83487 2.67493 6.44211 2.79304 6.08121L2.17634 5.87938ZM1.96561 7.26167C1.96561 7.78812 2.04444 8.27963 2.20612 8.73311L2.81733 8.5152C2.68344 8.13966 2.61449 7.72285 2.61449 7.26167H1.96561ZM2.20642 8.73396C2.36649 9.17901 2.59106 9.57276 2.88195 9.91147L3.37422 9.4887C3.13886 9.21465 2.95252 8.89111 2.81702 8.51435L2.20642 8.73396ZM2.88463 9.91455C3.17973 10.2495 3.5253 10.5113 3.92017 10.6966L4.19589 10.1093C3.88429 9.96299 3.60989 9.75618 3.37153 9.48561L2.88463 9.91455ZM3.92264 10.6978C4.32038 10.8804 4.74709 10.9707 5.19884 10.9707V10.3218C4.83598 10.3218 4.50215 10.2499 4.19342 10.1081L3.92264 10.6978ZM5.19884 10.9707C5.56646 10.9707 5.9234 10.9106 6.26809 10.7904L6.05436 10.1777C5.77909 10.2737 5.49444 10.3218 5.19884 10.3218V10.9707ZM6.26809 10.7904C6.613 10.6701 6.92443 10.4966 7.20011 10.2695L6.7876 9.76863C6.57307 9.9453 6.32943 10.0818 6.05436 10.1777L6.26809 10.7904ZM7.20011 10.2695C7.47842 10.0403 7.70105 9.76648 7.86569 9.44955L7.28986 9.15042C7.16615 9.38858 6.9995 9.59413 6.7876 9.76863L7.20011 10.2695ZM7.86569 9.44955C8.03558 9.12252 8.11849 8.7643 8.11849 8.38085H7.4696C7.4696 8.66784 7.40833 8.92237 7.28986 9.15042L7.86569 9.44955ZM8.11849 8.38085V8.18621H7.4696V8.38085H8.11849ZM7.79404 7.86177H5.11233V8.51066H7.79404V7.86177ZM5.43678 8.18621V7.07785H4.78789V8.18621H5.43678ZM5.11233 7.40229H9.23763V6.7534H5.11233V7.40229ZM8.91318 7.07785V8.22947H9.56207V7.07785H8.91318ZM8.91318 8.22947C8.91318 8.76187 8.80701 9.22809 8.60186 9.63517L9.18133 9.92719C9.43756 9.41875 9.56207 8.85049 9.56207 8.22947H8.91318ZM8.60186 9.63517C8.39126 10.0531 8.10771 10.4086 7.74967 10.7042L8.16282 11.2046C8.59055 10.8514 8.93056 10.4248 9.18133 9.92719L8.60186 9.63517ZM7.74991 10.704C7.39041 11.0003 6.98568 11.2288 6.53373 11.3894L6.75111 12.0008C7.27237 11.8155 7.74351 11.5502 8.16258 11.2048L7.74991 10.704ZM6.53575 11.3887C6.08346 11.5462 5.6185 11.6248 5.13937 11.6248V12.2737C5.69111 12.2737 6.22818 12.1829 6.7491 12.0016L6.53575 11.3887ZM10.8832 11.7762H10.5588V12.1007H10.8832V11.7762ZM10.8832 2.47677V2.15232H10.5588V2.47677H10.8832ZM12.2295 2.47677H12.5539V2.15232H12.2295V2.47677ZM12.2295 11.7762V12.1007H12.5539V11.7762H12.2295ZM11.2076 11.7762V2.47677H10.5588V11.7762H11.2076ZM10.8832 2.80121H12.2295V2.15232H10.8832V2.80121ZM11.905 2.47677V11.7762H12.5539V2.47677H11.905ZM12.2295 11.4518H10.8832V12.1007H12.2295V11.4518ZM15.3587 11.5762L15.2092 11.8642L15.2101 11.8646L15.3587 11.5762ZM14.2178 10.5381L13.9439 10.7119L14.2178 10.5381ZM14.2178 7.47794L14.4912 7.65271L14.4918 7.65169L14.2178 7.47794ZM15.3587 6.43986L15.2092 6.15186L15.3587 6.43986ZM18.5973 6.43986L18.4478 6.72785L18.4487 6.72831L18.5973 6.43986ZM19.7381 7.47794L19.463 7.6501L19.4647 7.65271L19.7381 7.47794ZM19.7381 10.5381L19.4641 10.3644L19.4631 10.366L19.7381 10.5381ZM18.5973 11.5762L18.4487 11.2877L18.4478 11.2882L18.5973 11.5762ZM17.889 10.5652L18.0491 10.8473L18.0504 10.8466L17.889 10.5652ZM18.527 9.93257L18.8075 10.0956L18.8084 10.0939L18.527 9.93257ZM18.527 8.08349L18.2455 8.24486L18.2464 8.24649L18.527 8.08349ZM17.889 7.45091L17.7288 7.73308L17.7305 7.73399L17.889 7.45091ZM16.0723 7.45091L16.2309 7.73399L16.0723 7.45091ZM15.4343 8.08349L15.7149 8.2465L15.7158 8.24486L15.4343 8.08349ZM15.4343 9.93257L15.1529 10.0939L15.1538 10.0956L15.4343 9.93257ZM16.0723 10.5652L15.911 10.8466L15.9138 10.8482L16.0723 10.5652ZM16.9807 11.6248C16.4287 11.6248 15.9397 11.5105 15.5072 11.2877L15.2101 11.8646C15.7436 12.1393 16.336 12.2737 16.9807 12.2737V11.6248ZM15.5081 11.2882C15.078 11.0651 14.7414 10.7579 14.4918 10.3644L13.9439 10.7119C14.2566 11.2051 14.6805 11.5899 15.2092 11.8642L15.5081 11.2882ZM14.4918 10.3644C14.2469 9.97804 14.1206 9.5295 14.1206 9.00803H13.4717C13.4717 9.63998 13.6265 10.2115 13.9439 10.7119L14.4918 10.3644ZM14.1206 9.00803C14.1206 8.48249 14.2471 8.03454 14.4912 7.65271L13.9445 7.30317C13.6263 7.80082 13.4717 8.37294 13.4717 9.00803H14.1206ZM14.4918 7.65169C14.7414 7.2582 15.078 6.95095 15.5081 6.72785L15.2092 6.15186C14.6805 6.42618 14.2566 6.81098 13.9439 7.30419L14.4918 7.65169ZM15.5081 6.72785C15.9362 6.50573 16.4247 6.39124 16.9807 6.39124V5.74235C16.3328 5.74235 15.7399 5.87657 15.2092 6.15186L15.5081 6.72785ZM16.9807 6.39124C17.5327 6.39124 18.0194 6.50559 18.4478 6.72785L18.7467 6.15186C18.2163 5.87671 17.6253 5.74235 16.9807 5.74235V6.39124ZM18.4487 6.72831C18.882 6.9514 19.2177 7.25813 19.4631 7.6501L20.0131 7.30578C19.7034 6.81105 19.2785 6.42573 18.7458 6.15141L18.4487 6.72831ZM19.4647 7.65271C19.7088 8.03454 19.8353 8.48249 19.8353 9.00803H20.4842C20.4842 8.37294 20.3296 7.80082 20.0114 7.30317L19.4647 7.65271ZM19.8353 9.00803C19.8353 9.5295 19.709 9.97804 19.4641 10.3644L20.0121 10.7119C20.3294 10.2115 20.4842 9.63998 20.4842 9.00803H19.8353ZM19.4631 10.366C19.2177 10.7579 18.882 11.0647 18.4487 11.2877L18.7458 11.8646C19.2785 11.5903 19.7034 11.205 20.0131 10.7103L19.4631 10.366ZM18.4478 11.2882C18.0194 11.5105 17.5327 11.6248 16.9807 11.6248V12.2737C17.6253 12.2737 18.2163 12.1393 18.7467 11.8642L18.4478 11.2882ZM16.9807 11.1167C17.3696 11.1167 17.7286 11.0292 18.0491 10.8473L17.7288 10.283C17.5159 10.4038 17.2694 10.4678 16.9807 10.4678V11.1167ZM18.0504 10.8466C18.3696 10.6636 18.6236 10.4121 18.8075 10.0956L18.2464 9.76956C18.1204 9.98651 17.949 10.1567 17.7276 10.2837L18.0504 10.8466ZM18.8084 10.0939C18.9946 9.76922 19.0839 9.40427 19.0839 9.00803H18.435C18.435 9.30384 18.3693 9.55525 18.2455 9.7712L18.8084 10.0939ZM19.0839 9.00803C19.0839 8.60892 18.9949 8.24304 18.8075 7.92048L18.2464 8.24649C18.369 8.4574 18.435 8.70787 18.435 9.00803H19.0839ZM18.8084 7.92211C18.6244 7.60114 18.3694 7.34808 18.0475 7.16783L17.7305 7.73399C17.9492 7.85651 18.1195 8.02517 18.2455 8.24486L18.8084 7.92211ZM18.0491 7.16874C17.7286 6.98681 17.3696 6.89938 16.9807 6.89938V7.54827C17.2694 7.54827 17.5159 7.61222 17.7288 7.73307L18.0491 7.16874ZM16.9807 6.89938C16.5946 6.89938 16.2365 6.98712 15.9138 7.16783L16.2309 7.73399C16.4488 7.61192 16.6963 7.54827 16.9807 7.54827V6.89938ZM15.9138 7.16783C15.5919 7.34808 15.3369 7.60114 15.1529 7.92211L15.7158 8.24486C15.8418 8.02517 16.0121 7.85651 16.2309 7.73399L15.9138 7.16783ZM15.1538 7.92048C14.9664 8.24304 14.8774 8.60892 14.8774 9.00803H15.5263C15.5263 8.70787 15.5923 8.4574 15.7149 8.24649L15.1538 7.92048ZM14.8774 9.00803C14.8774 9.40427 14.9667 9.76922 15.1529 10.0939L15.7158 9.7712C15.592 9.55525 15.5263 9.30384 15.5263 9.00803H14.8774ZM15.1538 10.0956C15.3377 10.4121 15.5917 10.6636 15.911 10.8466L16.2337 10.2837C16.0123 10.1567 15.8409 9.98651 15.7149 9.76956L15.1538 10.0956ZM15.9138 10.8482C16.2365 11.0289 16.5946 11.1167 16.9807 11.1167V10.4678C16.6963 10.4678 16.4488 10.4041 16.2309 10.2821L15.9138 10.8482ZM21.9752 11.6897L21.8324 11.9811L21.8359 11.9828L21.9752 11.6897ZM21.0939 10.9328L20.8255 10.7505L20.7005 10.9346L20.8271 11.1175L21.0939 10.9328ZM21.6886 10.0569L21.9474 9.8612L21.6744 9.50031L21.4202 9.87467L21.6886 10.0569ZM22.3969 10.7111L22.2305 10.9897L22.2322 10.9907L22.3969 10.7111ZM23.6729 10.8517L23.8083 11.1466L23.8148 11.1435L23.6729 10.8517ZM23.9918 10.576L24.2618 10.7559L24.2642 10.7522L23.9918 10.576ZM23.9756 9.73793L23.7376 9.95836V9.95836L23.9756 9.73793ZM23.5701 9.473L23.7008 9.17603L23.5701 9.473ZM22.8889 9.19186L22.7627 9.49087L22.7698 9.49364L22.8889 9.19186ZM22.2293 8.86745L22.3897 8.58546L22.2293 8.86745ZM21.7102 8.4187L21.4476 8.60927L21.4519 8.61502L21.7102 8.4187ZM21.7751 6.86699L21.5124 6.6766L21.5106 6.67913L21.7751 6.86699ZM22.5104 6.28306L22.3777 5.987L22.3764 5.98758L22.5104 6.28306ZM24.4514 6.229L24.342 6.53447L24.3454 6.53564L24.4514 6.229ZM25.3273 6.67235L25.6088 6.8337L25.7596 6.57061L25.5073 6.40239L25.3273 6.67235ZM24.8407 7.52119L24.6336 7.77096L24.9304 8.01703L25.1222 7.68255L24.8407 7.52119ZM23.0078 7.16976L22.8082 6.91398L22.8052 6.91641L23.0078 7.16976ZM22.9808 7.99157L23.1878 7.74174V7.74174L22.9808 7.99157ZM23.4512 8.26731L23.5776 7.96851L23.4512 8.26731ZM24.0135 8.49439L23.897 8.79725L23.902 8.79909L24.0135 8.49439ZM24.792 8.84042L24.948 8.55594L24.792 8.84042ZM25.3165 9.31621L25.0442 9.49267V9.49267L25.3165 9.31621ZM25.2246 11.095L24.9557 10.9134L24.9541 10.9158L25.2246 11.095ZM24.4352 11.733L24.5611 12.032L24.5638 12.0309L24.4352 11.733ZM23.2187 11.6248C22.7945 11.6248 22.4287 11.5461 22.1144 11.3967L21.8359 11.9828C22.2497 12.1794 22.7129 12.2737 23.2187 12.2737V11.6248ZM22.1179 11.3984C21.8069 11.246 21.556 11.0303 21.3606 10.7481L20.8271 11.1175C21.0859 11.4913 21.4225 11.7802 21.8324 11.9811L22.1179 11.3984ZM21.3623 11.1151L21.957 10.2392L21.4202 9.87467L20.8255 10.7505L21.3623 11.1151ZM21.4298 10.2526C21.6636 10.5616 21.9297 10.81 22.2305 10.9897L22.5632 10.4326C22.345 10.3022 22.139 10.1145 21.9474 9.8612L21.4298 10.2526ZM22.2322 10.9907C22.5408 11.1724 22.8693 11.2681 23.2133 11.2681V10.6192C22.995 10.6192 22.7792 10.5598 22.5615 10.4316L22.2322 10.9907ZM23.2133 11.2681C23.4248 11.2681 23.6255 11.2305 23.8083 11.1465L23.5374 10.5569C23.4534 10.5955 23.3478 10.6192 23.2133 10.6192V11.2681ZM23.8148 11.1435C23.998 11.0543 24.1493 10.9247 24.2618 10.7559L23.7219 10.396C23.6758 10.4651 23.6145 10.5193 23.5309 10.56L23.8148 11.1435ZM24.2642 10.7522C24.382 10.5703 24.4352 10.363 24.4352 10.1434H23.7863C23.7863 10.2554 23.7603 10.3366 23.7194 10.3997L24.2642 10.7522ZM24.4352 10.1434C24.4352 9.91429 24.3746 9.69126 24.2137 9.5175L23.7376 9.95836C23.7569 9.97924 23.7863 10.0265 23.7863 10.1434H24.4352ZM24.2137 9.5175C24.0824 9.37575 23.9037 9.26532 23.7008 9.17603L23.4395 9.76997C23.597 9.83928 23.6886 9.90547 23.7376 9.95836L24.2137 9.5175ZM23.7008 9.17603C23.5154 9.09446 23.2841 8.99907 23.008 8.89007L22.7698 9.49364C23.0415 9.60091 23.2644 9.69295 23.4395 9.76997L23.7008 9.17603ZM23.015 8.89292C22.7956 8.80037 22.5872 8.69784 22.3897 8.58546L22.0688 9.14945C22.2894 9.27496 22.5208 9.3887 22.7628 9.49079L23.015 8.89292ZM22.3897 8.58546C22.2163 8.4868 22.0774 8.36559 21.9685 8.22238L21.4519 8.61502C21.617 8.83226 21.8241 9.01022 22.0688 9.14945L22.3897 8.58546ZM21.9728 8.22818C21.8884 8.11177 21.8346 7.95046 21.8346 7.72124H21.1857C21.1857 8.05431 21.2653 8.35798 21.4476 8.60922L21.9728 8.22818ZM21.8346 7.72124C21.8346 7.46407 21.9041 7.24572 22.0396 7.05484L21.5106 6.67913C21.2929 6.98566 21.1857 7.33682 21.1857 7.72124H21.8346ZM22.0378 7.05736C22.1815 6.85907 22.3801 6.69843 22.6444 6.57855L22.3764 5.98758C22.0208 6.14885 21.7291 6.37749 21.5124 6.67661L22.0378 7.05736ZM22.6431 6.57912C22.9087 6.46009 23.2191 6.39665 23.5809 6.39665V5.74776C23.1425 5.74776 22.7393 5.82489 22.3777 5.98701L22.6431 6.57912ZM23.5809 6.39665C23.8293 6.39665 24.0825 6.44154 24.3421 6.53446L24.5608 5.92354C24.2364 5.8074 23.9093 5.74776 23.5809 5.74776V6.39665ZM24.3454 6.53564C24.608 6.62641 24.8753 6.76095 25.1473 6.9423L25.5073 6.40239C25.1954 6.19446 24.8787 6.03344 24.5574 5.92236L24.3454 6.53564ZM25.0458 6.51099L24.5592 7.35984L25.1222 7.68255L25.6088 6.8337L25.0458 6.51099ZM25.0478 7.27142C24.5873 6.8897 24.1002 6.6723 23.5918 6.6723V7.32119C23.9051 7.32119 24.2506 7.45342 24.6336 7.77096L25.0478 7.27142ZM23.5918 6.6723C23.299 6.6723 23.0276 6.74273 22.8082 6.91399L23.2075 7.42552C23.2836 7.36611 23.4015 7.32119 23.5918 7.32119V6.6723ZM22.8052 6.91641C22.5862 7.09157 22.4671 7.33155 22.4671 7.61311H23.116C23.116 7.53422 23.1411 7.47863 23.2105 7.42311L22.8052 6.91641ZM22.4671 7.61311C22.4671 7.86877 22.5824 8.08281 22.7738 8.2414L23.1878 7.74174C23.1269 7.69128 23.116 7.65301 23.116 7.61311H22.4671ZM22.7738 8.2414C22.9293 8.37028 23.115 8.47735 23.3248 8.56612L23.5776 7.96851C23.4125 7.89868 23.2846 7.82193 23.1878 7.74174L22.7738 8.2414ZM23.3248 8.56612C23.5154 8.64679 23.7062 8.72382 23.897 8.79721L24.1299 8.19158C23.9459 8.12079 23.7618 8.04643 23.5776 7.96851L23.3248 8.56612ZM23.902 8.79909C24.1856 8.90286 24.4297 9.01177 24.636 9.1249L24.948 8.55594C24.7074 8.42397 24.4324 8.3022 24.1249 8.1897L23.902 8.79909ZM24.636 9.1249C24.8172 9.22423 24.9501 9.34745 25.0442 9.49267L25.5887 9.13974C25.4306 8.89569 25.2139 8.70171 24.948 8.55594L24.636 9.1249ZM25.0442 9.49267C25.1253 9.61772 25.1813 9.80901 25.1813 10.0948H25.8302C25.8302 9.73173 25.76 9.40397 25.5887 9.13974L25.0442 9.49267ZM25.1813 10.0948C25.1813 10.4301 25.1013 10.6978 24.9557 10.9134L25.4934 11.2766C25.7227 10.9371 25.8302 10.538 25.8302 10.0948H25.1813ZM24.9541 10.9158C24.8091 11.1347 24.5984 11.3092 24.3066 11.4351L24.5638 12.0309C24.9568 11.8612 25.2724 11.6104 25.4951 11.2742L24.9541 10.9158ZM24.3093 11.434C24.0157 11.5576 23.6549 11.6248 23.2187 11.6248V12.2737C23.7196 12.2737 24.1699 12.1967 24.5611 12.032L24.3093 11.434ZM27.3911 11.6897L27.2484 11.9811L27.2519 11.9828L27.3911 11.6897ZM26.5098 10.9328L26.2414 10.7505L26.1165 10.9346L26.2431 11.1175L26.5098 10.9328ZM27.1046 10.0569L27.3633 9.8612L27.0903 9.50031L26.8362 9.87467L27.1046 10.0569ZM27.8128 10.7111L27.6465 10.9897L27.6482 10.9907L27.8128 10.7111ZM29.0888 10.8517L29.2243 11.1466L29.2308 11.1435L29.0888 10.8517ZM29.4078 10.576L29.6778 10.7559L29.6802 10.7522L29.4078 10.576ZM29.3916 9.73793L29.1535 9.95836V9.95836L29.3916 9.73793ZM28.9861 9.473L29.1168 9.17603L28.9861 9.473ZM28.3048 9.19186L28.1787 9.49087L28.1857 9.49364L28.3048 9.19186ZM27.6452 8.86745L27.8057 8.58546L27.6452 8.86745ZM27.1262 8.4187L26.8635 8.60927L26.8679 8.61502L27.1262 8.4187ZM27.1911 6.86699L26.9283 6.6766L26.9265 6.67913L27.1911 6.86699ZM27.9264 6.28306L27.7937 5.987L27.7924 5.98758L27.9264 6.28306ZM29.8674 6.229L29.758 6.53447L29.7614 6.53564L29.8674 6.229ZM30.7433 6.67235L31.0247 6.8337L31.1756 6.57061L30.9232 6.40239L30.7433 6.67235ZM30.2567 7.52119L30.0496 7.77096L30.3464 8.01703L30.5381 7.68255L30.2567 7.52119ZM28.4238 7.16976L28.2242 6.91398L28.2211 6.91641L28.4238 7.16976ZM28.3968 7.99157L28.6038 7.74174V7.74174L28.3968 7.99157ZM28.8671 8.26731L28.9936 7.96851L28.8671 8.26731ZM29.4294 8.49439L29.313 8.79725L29.318 8.79909L29.4294 8.49439ZM30.208 8.84042L30.364 8.55594L30.208 8.84042ZM30.7324 9.31621L30.4602 9.49267V9.49267L30.7324 9.31621ZM30.6405 11.095L30.3716 10.9134L30.37 10.9158L30.6405 11.095ZM29.8512 11.733L29.9771 12.032L29.9797 12.0309L29.8512 11.733ZM28.6347 11.6248C28.2105 11.6248 27.8447 11.5461 27.5304 11.3967L27.2519 11.9828C27.6656 12.1794 28.1289 12.2737 28.6347 12.2737V11.6248ZM27.5339 11.3984C27.2229 11.246 26.9719 11.0303 26.7766 10.7481L26.2431 11.1175C26.5019 11.4913 26.8385 11.7802 27.2484 11.9811L27.5339 11.3984ZM26.7782 11.1151L27.373 10.2392L26.8362 9.87467L26.2414 10.7505L26.7782 11.1151ZM26.8458 10.2526C27.0795 10.5616 27.3457 10.81 27.6465 10.9897L27.9792 10.4326C27.761 10.3022 27.5549 10.1145 27.3633 9.8612L26.8458 10.2526ZM27.6482 10.9907C27.9568 11.1724 28.2852 11.2681 28.6292 11.2681V10.6192C28.411 10.6192 28.1952 10.5598 27.9775 10.4316L27.6482 10.9907ZM28.6292 11.2681C28.8407 11.2681 29.0415 11.2305 29.2243 11.1465L28.9534 10.5569C28.8694 10.5955 28.7638 10.6192 28.6292 10.6192V11.2681ZM29.2308 11.1435C29.4139 11.0543 29.5653 10.9247 29.6778 10.7559L29.1379 10.396C29.0918 10.4651 29.0304 10.5193 28.9469 10.56L29.2308 11.1435ZM29.6802 10.7522C29.7979 10.5703 29.8512 10.363 29.8512 10.1434H29.2023C29.2023 10.2554 29.1763 10.3366 29.1354 10.3997L29.6802 10.7522ZM29.8512 10.1434C29.8512 9.91429 29.7905 9.69126 29.6297 9.5175L29.1535 9.95836C29.1729 9.97924 29.2023 10.0265 29.2023 10.1434H29.8512ZM29.6297 9.5175C29.4984 9.37575 29.3197 9.26532 29.1168 9.17603L28.8554 9.76997C29.0129 9.83928 29.1046 9.90547 29.1535 9.95836L29.6297 9.5175ZM29.1168 9.17603C28.9314 9.09446 28.7001 8.99907 28.424 8.89007L28.1857 9.49364C28.4575 9.60091 28.6804 9.69295 28.8554 9.76997L29.1168 9.17603ZM28.431 8.89292C28.2116 8.80037 28.0032 8.69784 27.8057 8.58546L27.4848 9.14945C27.7054 9.27496 27.9368 9.3887 28.1787 9.49079L28.431 8.89292ZM27.8057 8.58546C27.6323 8.4868 27.4933 8.36559 27.3845 8.22238L26.8679 8.61502C27.033 8.83226 27.2401 9.01022 27.4848 9.14945L27.8057 8.58546ZM27.3888 8.22818C27.3044 8.11177 27.2506 7.95046 27.2506 7.72124H26.6017C26.6017 8.05431 26.6813 8.35798 26.8636 8.60922L27.3888 8.22818ZM27.2506 7.72124C27.2506 7.46407 27.32 7.24572 27.4556 7.05484L26.9265 6.67913C26.7089 6.98566 26.6017 7.33682 26.6017 7.72124H27.2506ZM27.4538 7.05736C27.5975 6.85907 27.796 6.69843 28.0604 6.57855L27.7924 5.98758C27.4368 6.14885 27.1451 6.37749 26.9284 6.67661L27.4538 7.05736ZM28.0591 6.57912C28.3246 6.46009 28.6351 6.39665 28.9969 6.39665V5.74776C28.5585 5.74776 28.1553 5.82489 27.7937 5.98701L28.0591 6.57912ZM28.9969 6.39665C29.2453 6.39665 29.4985 6.44154 29.758 6.53446L29.9767 5.92354C29.6523 5.8074 29.3253 5.74776 28.9969 5.74776V6.39665ZM29.7614 6.53564C30.024 6.62641 30.2913 6.76095 30.5633 6.9423L30.9232 6.40239C30.6113 6.19446 30.2947 6.03344 29.9734 5.92236L29.7614 6.53564ZM30.4618 6.51099L29.9752 7.35984L30.5381 7.68255L31.0247 6.8337L30.4618 6.51099ZM30.4637 7.27142C30.0033 6.8897 29.5162 6.6723 29.0077 6.6723V7.32119C29.321 7.32119 29.6666 7.45342 30.0496 7.77096L30.4637 7.27142ZM29.0077 6.6723C28.7149 6.6723 28.4436 6.74273 28.2242 6.91399L28.6234 7.42552C28.6995 7.36611 28.8175 7.32119 29.0077 7.32119V6.6723ZM28.2211 6.91641C28.0022 7.09157 27.8831 7.33155 27.8831 7.61311H28.532C28.532 7.53422 28.5571 7.47863 28.6265 7.42311L28.2211 6.91641ZM27.8831 7.61311C27.8831 7.86877 27.9984 8.08281 28.1898 8.2414L28.6038 7.74174C28.5429 7.69128 28.532 7.65301 28.532 7.61311H27.8831ZM28.1898 8.2414C28.3453 8.37028 28.5309 8.47735 28.7407 8.56612L28.9936 7.96851C28.8285 7.89868 28.7005 7.82193 28.6038 7.74174L28.1898 8.2414ZM28.7407 8.56612C28.9314 8.64679 29.1222 8.72382 29.313 8.79721L29.5459 8.19158C29.3619 8.12079 29.1777 8.04643 28.9936 7.96851L28.7407 8.56612ZM29.318 8.79909C29.6016 8.90286 29.8457 9.01177 30.052 9.1249L30.364 8.55594C30.1234 8.42397 29.8484 8.3022 29.5409 8.1897L29.318 8.79909ZM30.052 9.1249C30.2331 9.22423 30.3661 9.34745 30.4602 9.49267L31.0047 9.13974C30.8465 8.89569 30.6298 8.70171 30.364 8.55594L30.052 9.1249ZM30.4602 9.49267C30.5412 9.61772 30.5972 9.80901 30.5972 10.0948H31.2461C31.2461 9.73173 31.176 9.40397 31.0047 9.13974L30.4602 9.49267ZM30.5972 10.0948C30.5972 10.4301 30.5173 10.6978 30.3717 10.9134L30.9094 11.2766C31.1387 10.9371 31.2461 10.538 31.2461 10.0948H30.5972ZM30.37 10.9158C30.2251 11.1347 30.0144 11.3092 29.7226 11.4351L29.9797 12.0309C30.3728 11.8612 30.6883 11.6104 30.911 11.2742L30.37 10.9158ZM29.7253 11.434C29.4316 11.5576 29.0709 11.6248 28.6347 11.6248V12.2737C29.1356 12.2737 29.5858 12.1967 29.9771 12.032L29.7253 11.434ZM36.4041 11.6573L36.2661 11.9509L36.2691 11.9523L36.4041 11.6573ZM35.4039 10.8193L35.1335 10.9986L35.1356 11.0017L35.4039 10.8193ZM35.5769 8.00239L35.3268 7.7957L35.3258 7.79694L35.5769 8.00239ZM37.1935 6.88321L37.3222 7.18103L37.7341 7.00303L37.436 6.66766L37.1935 6.88321ZM36.5717 6.10464L36.3024 6.28559L36.3038 6.28755L36.5717 6.10464ZM36.2365 5.45044L35.9266 5.54662L35.9287 5.55304L36.2365 5.45044ZM36.4636 3.67164L36.197 3.4868L36.1955 3.48887L36.4636 3.67164ZM37.3449 2.94174L37.2102 2.64657L37.2091 2.64707L37.3449 2.94174ZM39.6211 2.86605L39.5012 3.16757L39.5056 3.16924L39.6211 2.86605ZM40.378 3.34724L40.1466 3.57465L40.1507 3.57868L40.378 3.34724ZM40.843 4.03389L40.5427 4.15657L40.5433 4.15807L40.843 4.03389ZM40.5348 6.05598L40.7798 6.26876L40.7808 6.26753L40.5348 6.05598ZM39.1832 7.05081L39.0339 6.76276L38.6542 6.95955L38.946 7.27219L39.1832 7.05081ZM40.9998 8.99722L40.7626 9.21859L40.9727 9.44369L41.2085 9.24564L40.9998 8.99722ZM41.2972 8.71066L41.0641 8.48488L41.0605 8.48876L41.2972 8.71066ZM41.6324 8.35382L41.3929 8.1349L41.3926 8.13522L41.6324 8.35382ZM41.946 7.99698L41.698 7.78775L41.6974 7.78849L41.946 7.99698ZM42.1785 7.72124L42.3989 7.48323L42.1494 7.25206L41.9303 7.51225L42.1785 7.72124ZM43.0597 8.53765L43.315 8.73792L43.4995 8.50277L43.2802 8.29964L43.0597 8.53765ZM42.465 9.26755L42.7116 9.4784L42.7131 9.47664L42.465 9.26755ZM41.8865 9.90013L41.6571 9.67071L41.4351 9.89274L41.6497 10.1219L41.8865 9.90013ZM43.6437 11.7762V12.1007H44.3921L43.8805 11.5545L43.6437 11.7762ZM41.8703 11.7762L41.6329 11.9974L41.7291 12.1007H41.8703V11.7762ZM40.843 10.6733L41.0804 10.4522L40.8572 10.2124L40.6196 10.438L40.843 10.6733ZM39.4427 11.6195L39.5731 11.9165L39.5741 11.9161L39.4427 11.6195ZM39.0047 10.3813L39.1432 10.6747L39.1446 10.6741L39.0047 10.3813ZM39.9239 9.7163L40.1533 9.94572L40.3785 9.72053L40.1575 9.4912L39.9239 9.7163ZM37.9288 7.64555L38.1625 7.42044L38.0073 7.25942L37.8016 7.34707L37.9288 7.64555ZM36.8042 10.0245L36.5335 10.2033L36.5358 10.2068L36.8042 10.0245ZM37.3233 10.4624L37.1861 10.7565L37.1901 10.7583L37.3233 10.4624ZM38.4533 6.26684L38.2278 6.50012L38.3965 6.66322L38.6042 6.55403L38.4533 6.26684ZM39.1669 5.8289L38.9761 5.5665L38.9738 5.56819L39.1669 5.8289ZM39.6103 5.36393L39.3331 5.19521L39.3305 5.1997L39.6103 5.36393ZM39.6103 4.22853L39.3304 4.39278L39.3331 4.39722L39.6103 4.22853ZM39.2102 3.84465L39.0505 4.1272L39.0578 4.1311L39.2102 3.84465ZM38.0856 3.84465L38.2432 4.12831L38.2479 4.12558L38.0856 3.84465ZM37.7017 4.22312L37.9827 4.38543V4.38543L37.7017 4.22312ZM37.6477 5.23417L37.3454 5.35215L37.348 5.35844L37.6477 5.23417ZM37.8531 11.6248C37.3518 11.6248 36.916 11.5347 36.5391 11.3623L36.2691 11.9523C36.7429 12.1691 37.2731 12.2737 37.8531 12.2737V11.6248ZM36.5422 11.3637C36.1693 11.1884 35.8823 10.9459 35.6722 10.6368L35.1356 11.0017C35.4157 11.4135 35.7956 11.7297 36.2661 11.9509L36.5422 11.3637ZM35.6743 10.6399C35.4725 10.3358 35.3661 9.97107 35.3661 9.53248H34.7172C34.7172 10.0815 34.8523 10.5747 35.1335 10.9986L35.6743 10.6399ZM35.3661 9.53248C35.3661 9.02051 35.5204 8.58377 35.828 8.20784L35.3258 7.79694C34.9197 8.29328 34.7172 8.8766 34.7172 9.53248H35.3661ZM35.827 8.20907C36.1447 7.82462 36.6351 7.47799 37.3222 7.18103L37.0648 6.58538C36.3174 6.90838 35.73 7.30787 35.3268 7.7957L35.827 8.20907ZM37.436 6.66766C37.1822 6.38211 36.9844 6.13377 36.8397 5.92174L36.3038 6.28755C36.469 6.52968 36.6858 6.80038 36.951 7.09875L37.436 6.66766ZM36.841 5.92371C36.698 5.7108 36.6014 5.51902 36.5443 5.34784L35.9287 5.55304C36.0086 5.79276 36.1355 6.03712 36.3024 6.28558L36.841 5.92371ZM36.5464 5.35427C36.4911 5.17597 36.4636 4.99571 36.4636 4.81245H35.8148C35.8148 5.06172 35.8522 5.30679 35.9267 5.5466L36.5464 5.35427ZM36.4636 4.81245C36.4636 4.42391 36.5576 4.10974 36.7317 3.85441L36.1955 3.48887C35.9371 3.86793 35.8148 4.31429 35.8148 4.81245H36.4636ZM36.7303 3.85648C36.9155 3.5893 37.163 3.38279 37.4807 3.23641L37.2091 2.64707C36.7915 2.83951 36.4515 3.1196 36.197 3.48681L36.7303 3.85648ZM37.4796 3.23691C37.804 3.08887 38.1701 3.01207 38.583 3.01207V2.36318C38.0877 2.36318 37.6283 2.45579 37.2102 2.64657L37.4796 3.23691ZM38.583 3.01207C38.9436 3.01207 39.2476 3.06669 39.5012 3.16754L39.741 2.56456C39.3963 2.42751 39.0082 2.36318 38.583 2.36318V3.01207ZM39.5056 3.16924C39.7702 3.27003 39.9814 3.40643 40.1466 3.57462L40.6095 3.11986C40.371 2.87715 40.0776 2.69275 39.7366 2.56286L39.5056 3.16924ZM40.1507 3.57868C40.326 3.75094 40.4555 3.9432 40.5427 4.15657L41.1434 3.91121C41.0215 3.61275 40.841 3.34724 40.6054 3.1158L40.1507 3.57868ZM40.5433 4.15807C40.6317 4.37142 40.6754 4.59058 40.6754 4.81786H41.3242C41.3242 4.50446 41.2634 4.20098 41.1427 3.90971L40.5433 4.15807ZM40.6754 4.81786C40.6754 5.20331 40.5494 5.5414 40.2888 5.84443L40.7808 6.26753C41.1402 5.84968 41.3242 5.36235 41.3242 4.81786H40.6754ZM40.2899 5.84321C40.0153 6.1593 39.6024 6.4681 39.0339 6.76276L39.3325 7.33887C39.9462 7.02077 40.4344 6.66635 40.7798 6.26876L40.2899 5.84321ZM38.946 7.27219L40.7626 9.21859L41.237 8.77584L39.4203 6.82944L38.946 7.27219ZM41.2085 9.24564C41.3111 9.15942 41.4197 9.05433 41.5339 8.93256L41.0605 8.48876C40.9584 8.59767 40.8687 8.68363 40.7911 8.74879L41.2085 9.24564ZM41.5302 8.93641C41.6443 8.81864 41.7583 8.69731 41.8721 8.57242L41.3926 8.13522C41.283 8.25544 41.1735 8.372 41.0641 8.48491L41.5302 8.93641ZM41.8718 8.57275C41.9898 8.44374 42.0974 8.32129 42.1946 8.20547L41.6974 7.78849C41.6071 7.89614 41.5057 8.01159 41.3929 8.1349L41.8718 8.57275ZM42.1939 8.20621C42.2913 8.09083 42.3689 7.99883 42.4266 7.93023L41.9303 7.51225C41.8727 7.58062 41.7953 7.67245 41.698 7.78775L42.1939 8.20621ZM41.958 7.95925L42.8393 8.77566L43.2802 8.29964L42.3989 7.48323L41.958 7.95925ZM42.8045 8.33737C42.6232 8.56838 42.4274 8.80873 42.2169 9.05845L42.7131 9.47664C42.9279 9.22174 43.1286 8.97549 43.315 8.73792L42.8045 8.33737ZM42.2184 9.0567C42.0095 9.30098 41.8225 9.50526 41.6571 9.67071L42.1159 10.1295C42.2965 9.94897 42.4952 9.73153 42.7116 9.4784L42.2184 9.0567ZM41.6497 10.1219L43.4069 11.998L43.8805 11.5545L42.1233 9.67834L41.6497 10.1219ZM43.6437 11.4518H41.8703V12.1007H43.6437V11.4518ZM42.1077 11.5551L41.0804 10.4522L40.6056 10.8944L41.6329 11.9974L42.1077 11.5551ZM40.6196 10.438C40.2157 10.8216 39.7796 11.1154 39.3113 11.3228L39.5741 11.9161C40.115 11.6765 40.6125 11.3396 41.0664 10.9086L40.6196 10.438ZM39.3123 11.3224C38.8533 11.5238 38.3679 11.6248 37.8531 11.6248V12.2737C38.4557 12.2737 39.0301 12.1548 39.5731 11.9165L39.3123 11.3224ZM38.0369 10.9328C38.4136 10.9328 38.7832 10.8446 39.1432 10.6747L38.8663 10.0879C38.5847 10.2208 38.3091 10.284 38.0369 10.284V10.9328ZM39.1446 10.6741C39.5064 10.5012 39.8424 10.2567 40.1533 9.94572L39.6945 9.48689C39.4287 9.75266 39.1519 9.95144 38.8649 10.0886L39.1446 10.6741ZM40.1575 9.4912L38.1625 7.42044L37.6952 7.87065L39.6902 9.94141L40.1575 9.4912ZM37.8016 7.34707C37.3467 7.54089 36.9759 7.80738 36.7053 8.1542L37.2168 8.55344C37.4075 8.30913 37.6819 8.10344 38.056 7.94403L37.8016 7.34707ZM36.7053 8.1542C36.4325 8.50368 36.2905 8.89941 36.2905 9.33243H36.9394C36.9394 9.05177 37.0282 8.79509 37.2168 8.55344L36.7053 8.1542ZM36.2905 9.33243C36.2905 9.65462 36.3664 9.95019 36.5335 10.2033L37.075 9.84569C36.9898 9.7167 36.9394 9.55091 36.9394 9.33243H36.2905ZM36.5358 10.2068C36.6996 10.4479 36.9187 10.6316 37.1861 10.7564L37.4605 10.1684C37.2953 10.0914 37.1684 9.98317 37.0726 9.84218L36.5358 10.2068ZM37.1901 10.7583C37.4521 10.8762 37.7359 10.9328 38.0369 10.9328V10.284C37.819 10.284 37.627 10.2433 37.4564 10.1666L37.1901 10.7583ZM38.6042 6.55403C38.8958 6.40075 39.1487 6.24618 39.3601 6.08961L38.9738 5.56819C38.7959 5.69998 38.573 5.83738 38.3023 5.97966L38.6042 6.55403ZM39.3578 6.09129C39.5826 5.92781 39.7649 5.74148 39.8901 5.52816L39.3305 5.1997C39.2611 5.31799 39.1478 5.44164 38.9761 5.56651L39.3578 6.09129ZM39.8874 5.53262C40.0217 5.31207 40.0861 5.06544 40.0861 4.80164H39.4372C39.4372 4.95595 39.4007 5.08418 39.3331 5.19524L39.8874 5.53262ZM40.0861 4.80164C40.0861 4.53285 40.0227 4.28212 39.8874 4.05983L39.3331 4.39722C39.3997 4.50654 39.4372 4.63789 39.4372 4.80164H40.0861ZM39.8901 4.06429C39.7625 3.84686 39.585 3.67655 39.3626 3.55821L39.0578 4.1311C39.1742 4.19298 39.2635 4.27859 39.3305 4.39276L39.8901 4.06429ZM39.3698 3.56221C39.1507 3.43833 38.9073 3.37964 38.6479 3.37964V4.02853C38.8066 4.02853 38.9381 4.06355 39.0506 4.1271L39.3698 3.56221ZM38.6479 3.37964C38.3861 3.37964 38.1412 3.43782 37.9233 3.56373L38.2479 4.12558C38.3544 4.06406 38.4844 4.02853 38.6479 4.02853V3.37964ZM37.928 3.56104C37.714 3.67996 37.5436 3.84827 37.4208 4.06081L37.9827 4.38543C38.0473 4.27358 38.1328 4.18957 38.2432 4.12827L37.928 3.56104ZM37.4208 4.06081C37.2959 4.27704 37.2367 4.51783 37.2367 4.7746H37.8856C37.8856 4.62047 37.9202 4.4936 37.9827 4.38543L37.4208 4.06081ZM37.2367 4.7746C37.2367 4.97356 37.2731 5.16675 37.3454 5.35212L37.9499 5.11622C37.9069 5.00602 37.8856 4.89283 37.8856 4.7746H37.2367ZM37.348 5.35844C37.4234 5.54032 37.5362 5.72242 37.6787 5.90451L38.1897 5.50459C38.0727 5.35507 37.9945 5.22358 37.9474 5.1099L37.348 5.35844ZM37.6787 5.90451C37.8207 6.0859 38.0049 6.28467 38.2278 6.50012L38.6788 6.03357C38.4691 5.83091 38.3073 5.65481 38.1897 5.50459L37.6787 5.90451Z" fill="white" mask="url(#path-1-outside-1_1_1787)"/>
<path d="M52.1316 11.9493C51.5116 11.9493 50.9349 11.8303 50.4014 11.5924C49.8716 11.3545 49.4066 11.0247 49.0065 10.603C48.61 10.1813 48.3 9.69107 48.0765 9.13238C47.8531 8.57009 47.7413 7.96634 47.7413 7.32115C47.7413 6.72641 47.8405 6.1515 48.0387 5.59642C48.2369 5.04133 48.5271 4.54752 48.9092 4.11499C49.2912 3.67885 49.758 3.33282 50.3095 3.07691C50.8646 2.82099 51.4936 2.69303 52.1964 2.69303C52.6578 2.69303 53.0939 2.7507 53.5048 2.86605C53.9158 2.98139 54.2924 3.14179 54.6348 3.34724C54.9809 3.55269 55.2818 3.79419 55.5378 4.07174L55.1106 4.69891C54.7718 4.31323 54.3465 4.00505 53.8347 3.77437C53.3228 3.54008 52.7731 3.42293 52.1856 3.42293C51.6233 3.42293 51.1205 3.52746 50.6772 3.73652C50.2374 3.94558 49.8644 4.23213 49.558 4.59618C49.2516 4.95663 49.0191 5.36934 48.8605 5.83431C48.7019 6.29568 48.6226 6.78228 48.6226 7.29411C48.6226 7.84559 48.7109 8.35923 48.8875 8.83501C49.0678 9.3072 49.3183 9.72171 49.6391 10.0785C49.9599 10.4318 50.3347 10.7075 50.7637 10.9058C51.1926 11.1004 51.654 11.1977 52.1478 11.1977C52.5479 11.1977 52.9407 11.131 53.3264 10.9977C53.7121 10.8643 54.0581 10.6715 54.3645 10.4192C54.6745 10.1669 54.9196 9.86589 55.0998 9.51626C55.2836 9.16302 55.3756 8.76653 55.3756 8.32679V8.01861H52.0883V7.35359H56.219V8.14837C56.219 8.77915 56.1 9.33243 55.8622 9.80822C55.6243 10.284 55.3071 10.6805 54.9106 10.9977C54.5141 11.3113 54.0743 11.5492 53.5914 11.7114C53.1084 11.87 52.6218 11.9493 52.1316 11.9493ZM58.1631 11.7762V2.47677H58.9525V11.7762H58.1631ZM63.5869 11.9493C63.0679 11.9493 62.5993 11.8231 62.1812 11.5708C61.7667 11.3149 61.4369 10.9652 61.1918 10.5219C60.9503 10.0785 60.8295 9.57212 60.8295 9.00262C60.8295 8.44033 60.9485 7.93931 61.1864 7.49957C61.4279 7.05622 61.7559 6.70659 62.1704 6.45067C62.5885 6.19476 63.0607 6.0668 63.5869 6.0668C64.088 6.0668 64.5421 6.18394 64.9494 6.41823C65.3567 6.65252 65.6667 6.97692 65.8794 7.39143V6.23981H66.6687V11.7762H65.8794V10.6084C65.6415 11.0265 65.3225 11.3545 64.9224 11.5924C64.5223 11.8303 64.0771 11.9493 63.5869 11.9493ZM63.7816 11.2626C64.1961 11.2626 64.5619 11.1671 64.8791 10.9761C65.1999 10.7814 65.4522 10.5147 65.6361 10.1759C65.8199 9.83345 65.9118 9.44417 65.9118 9.00803C65.9118 8.56829 65.8199 8.179 65.6361 7.84019C65.4558 7.50137 65.2053 7.23644 64.8845 7.04541C64.5637 6.85077 64.1961 6.75345 63.7816 6.75345C63.3671 6.75345 62.9994 6.85077 62.6786 7.04541C62.3578 7.23644 62.1055 7.50137 61.9217 7.84019C61.7379 8.179 61.6459 8.56829 61.6459 9.00803C61.6459 9.44417 61.7379 9.83345 61.9217 10.1759C62.1055 10.5147 62.3578 10.7814 62.6786 10.9761C62.9994 11.1671 63.3671 11.2626 63.7816 11.2626ZM68.9422 11.7762V6.23981H69.7316V6.99675C69.9515 6.69037 70.2146 6.45968 70.521 6.30469C70.8274 6.1461 71.1698 6.0668 71.5483 6.0668C72.0024 6.0668 72.3971 6.17133 72.7323 6.38038C73.0711 6.58944 73.3054 6.87419 73.4352 7.23464C73.6479 6.8814 73.9182 6.59845 74.2462 6.38579C74.5778 6.17313 74.9707 6.0668 75.4249 6.0668C75.8177 6.0668 76.1674 6.1479 76.4737 6.3101C76.7801 6.46869 77.0198 6.70298 77.1928 7.01297C77.3695 7.31934 77.4578 7.69421 77.4578 8.13755V11.7762H76.6684V8.35923C76.6684 7.8546 76.5368 7.45451 76.2737 7.15895C76.0106 6.86338 75.6591 6.7156 75.2194 6.7156C74.9166 6.7156 74.6427 6.78228 74.3976 6.91565C74.1525 7.04901 73.9578 7.22202 73.8137 7.43469C73.6695 7.64374 73.5974 7.86001 73.5974 8.08349V11.7762H72.808V8.27813C72.808 7.79874 72.6765 7.41847 72.4133 7.13732C72.1538 6.85617 71.8096 6.7156 71.3807 6.7156C71.0779 6.7156 70.8003 6.78048 70.548 6.91024C70.2993 7.03639 70.1011 7.2004 69.9533 7.40225C69.8055 7.6041 69.7316 7.81135 69.7316 8.02401V11.7762H68.9422Z" fill="#CEA561"/>
</svg>
