<svg width="37" height="34" viewBox="0 0 37 34" fill="none" xmlns="http://www.w3.org/2000/svg">
<path d="M17.3203 19.379C17.7164 14.9458 16.2083 14.5407 18.0693 8.45579C17.132 8.37204 16.2349 8.29167 16.2349 8.29167C16.2349 8.29167 15.3366 8.21138 14.3992 8.12807C15.1366 14.9242 13.5966 14.5784 13.2011 19.0114C12.8052 23.4445 13.6872 24.8882 13.5592 26.321C13.4313 27.753 12.1056 28.6259 12.427 30.2111C12.8762 32.4236 15.263 32.6367 16.0965 30.5387C16.6941 29.0362 15.4874 27.9764 15.616 26.5435C15.7432 25.1114 16.9242 23.8124 17.3203 19.379Z" fill="#151515" fill-opacity="0.7"/>
<path d="M23.8395 7.48154L23.475 7.44925C23.4415 7.8264 23.2251 8.14102 22.9197 8.31807C22.7268 8.42919 22.5015 8.48373 22.2628 8.46249L10.272 7.39154C9.8942 7.35777 9.5794 7.14146 9.40245 6.83619C9.2914 6.64304 9.23654 6.41838 9.25803 6.17934L9.25818 6.17879L9.49755 3.49198C9.53152 3.11453 9.74766 2.79983 10.0529 2.62289C10.2459 2.51194 10.4707 2.45725 10.7102 2.47844L22.7012 3.54928C23.0789 3.58287 23.3933 3.79894 23.5704 4.10438C23.6814 4.29708 23.736 4.52257 23.7149 4.76232L23.475 7.44897L23.8395 7.48154L24.2042 7.51401L24.4442 4.82708C24.4789 4.43442 24.3878 4.05622 24.2041 3.73848C23.9144 3.23544 23.3893 2.87558 22.7662 2.82015L10.7754 1.74948C10.3826 1.71407 10.0045 1.80537 9.68702 1.98913C9.18399 2.27885 8.82422 2.80417 8.76831 3.42677L8.52897 6.11403L8.52912 6.11347C8.49336 6.50646 8.58493 6.88463 8.76851 7.2022C9.05852 7.70531 9.58384 8.06507 10.207 8.12068L22.1975 9.19155C22.5896 9.22709 22.9677 9.13579 23.2857 8.952C23.7887 8.66228 24.1487 8.13704 24.2041 7.51384L23.8395 7.48154Z" fill="#CEA561"/>
<path d="M22.4053 6.74107L22.0408 6.70805C22.0369 6.74658 22.0241 6.78247 21.9928 6.82582C21.9614 6.86872 21.9097 6.91638 21.8366 6.95833C21.6856 7.04689 21.4457 7.10448 21.1822 7.07983L11.5798 6.22315C11.3937 6.20636 11.2262 6.15317 11.0971 6.08197C10.9676 6.01107 10.8798 5.9226 10.8385 5.84985C10.8057 5.79184 10.7979 5.74884 10.8014 5.70616L10.8015 5.70488L10.9331 4.23263C10.9369 4.1942 10.9494 4.1587 10.9806 4.11545C11.0115 4.07303 11.0633 4.02537 11.1363 3.98341C11.2871 3.89496 11.5268 3.83729 11.7912 3.86189L21.3922 4.71937C21.5792 4.73583 21.7468 4.78902 21.8757 4.86005C22.0054 4.93067 22.0929 5.01906 22.1342 5.09181C22.1667 5.14975 22.1749 5.19318 22.1715 5.23749L22.0408 6.70878L22.0408 6.70805L22.4053 6.74107L22.7697 6.77347L22.9007 5.30225C22.9196 5.09512 22.8656 4.89337 22.7681 4.72581C22.6426 4.51011 22.4525 4.34231 22.2282 4.21847C22.0032 4.09531 21.741 4.01586 21.4574 3.99014L11.8564 3.13265C11.4546 3.09778 11.0763 3.17421 10.7703 3.34948C10.623 3.43455 10.492 3.54431 10.3907 3.68206C10.2894 3.81918 10.2197 3.98689 10.204 4.16804L10.0724 5.63984L10.0726 5.63856C10.0527 5.84674 10.1073 6.04864 10.2045 6.21586C10.3301 6.43173 10.5202 6.59936 10.7443 6.7233C10.9692 6.84674 11.231 6.92639 11.5143 6.95204L21.117 7.80907C21.5179 7.84399 21.8962 7.76774 22.2026 7.59227C22.3496 7.5074 22.4807 7.39753 22.5823 7.25986C22.6837 7.12273 22.7536 6.9551 22.7697 6.7742L22.7697 6.77347L22.4053 6.74107Z" fill="#CEA561"/>
<path d="M21.8311 5.36298L11.103 4.40527L11.7679 4.03378L21.2842 4.88356L21.8311 5.36298Z" fill="#CEA561"/>
<path d="M21.7601 6.16813L11.0312 5.2101L11.6961 4.8386L21.2128 5.68845L21.7601 6.16813Z" fill="#CEA561"/>
<path d="M21.6861 6.97328L10.9587 6.01489L11.6241 5.64309L21.14 6.49335L21.6861 6.97328Z" fill="#CEA561"/>
<path d="M17.3207 19.3792L17.6852 19.4117C17.7864 18.2826 17.7658 17.4012 17.708 16.6306C17.6647 16.0524 17.6011 15.5381 17.5531 15.0262C17.4808 14.2582 17.4413 13.4962 17.5456 12.4964C17.6504 11.4971 17.901 10.2586 18.4197 8.5631L18.5517 8.13139L18.1022 8.09132C17.6335 8.04966 17.1749 8.00849 16.8336 7.97798C16.4922 7.94729 16.2685 7.92724 16.2679 7.92737C16.2676 7.92729 15.3695 7.84707 14.4319 7.7637L13.9873 7.72433L14.0357 8.16788C14.2186 9.85356 14.2592 11.0877 14.2134 12.0553C14.1434 13.5074 13.8879 14.3578 13.5987 15.3047C13.3092 16.2499 12.987 17.2854 12.837 18.979C12.6361 21.222 12.7593 22.7288 12.9176 23.8429C12.9964 24.3994 13.083 24.856 13.1396 25.2501C13.1966 25.645 13.2231 25.9737 13.1949 26.2887C13.1676 26.5935 13.0765 26.8751 12.9491 27.1612C12.7594 27.5902 12.4834 28.0199 12.2728 28.5202C12.1683 28.7704 12.0815 29.0399 12.0393 29.3342C11.9966 29.628 11.9998 29.9459 12.0686 30.2839C12.1409 30.6404 12.2602 30.9575 12.4178 31.2306C12.7285 31.7707 13.1937 32.1369 13.7125 32.2861C14.2305 32.4368 14.7968 32.3676 15.2884 32.0828C15.7699 31.8051 16.1777 31.3271 16.4369 30.6741C16.6083 30.2454 16.6522 29.8325 16.6204 29.4526C16.5724 28.8813 16.3723 28.3876 16.2158 27.9234C16.0567 27.4575 15.9396 27.029 15.9807 26.5764C16.0084 26.2638 16.0955 25.9436 16.2266 25.5625C16.4225 24.9912 16.7146 24.2907 16.9927 23.3174C17.2711 22.3432 17.5348 21.0957 17.6852 19.4117L17.3207 19.3792L16.9562 19.3466C16.76 21.5353 16.3748 22.9304 16.0212 23.9688C15.844 24.4886 15.6734 24.9204 15.5342 25.3246C15.3959 25.7282 15.2877 26.1076 15.2517 26.5112C15.2144 26.9245 15.2749 27.3057 15.3674 27.6546C15.5074 28.1786 15.7122 28.6399 15.818 29.0792C15.8716 29.2988 15.9024 29.5114 15.8974 29.7267C15.8922 29.942 15.8526 30.1616 15.7566 30.4036C15.5476 30.928 15.2434 31.2631 14.9224 31.4489C14.5927 31.6381 14.243 31.6765 13.9158 31.5829C13.5894 31.4879 13.2798 31.258 13.0516 30.8647C12.9368 30.6658 12.8441 30.4246 12.786 30.1385C12.7175 29.7967 12.7363 29.5076 12.8057 29.224C12.9095 28.8002 13.1431 28.3896 13.3842 27.9335C13.6226 27.4787 13.868 26.9717 13.924 26.3537C13.9598 25.9523 13.924 25.5632 13.8641 25.1459C13.7733 24.5189 13.6272 23.8198 13.5389 22.8611C13.4506 21.9033 13.4194 20.6862 13.566 19.0442C13.6632 17.9568 13.8285 17.1736 14.0124 16.492C14.1506 15.9807 14.3008 15.5247 14.4424 15.0419C14.6548 14.3182 14.844 13.5351 14.9224 12.4596C15.0013 11.3834 14.9724 10.0148 14.7632 8.08882L14.3996 8.12825L14.3671 8.49291C14.8358 8.53456 15.2946 8.57535 15.6364 8.60584C15.9781 8.63632 16.202 8.65628 16.2027 8.65632C16.2025 8.65625 17.0996 8.73679 18.0371 8.82045L18.0697 8.45597L17.7197 8.34885C17.2501 9.8843 16.9901 11.0705 16.8602 12.0588C16.6647 13.5406 16.7677 14.5762 16.8769 15.6173C16.9858 16.6602 17.1013 17.715 16.9562 19.3466L17.3207 19.3792Z" fill="#CEA561"/>
<path d="M16.2945 19.2395L15.93 19.2069C15.859 20.0047 15.7079 20.7286 15.5216 21.2707C15.4287 21.5414 15.3266 21.7664 15.2289 21.9276C15.1328 22.0897 15.0358 22.1817 14.9966 22.2013L14.9801 22.2092L14.9886 22.2434L14.9918 22.2088L14.9801 22.2092L14.9886 22.2434L14.9918 22.2088L14.9889 22.2435L15.0032 22.2111L14.9919 22.2087L14.9889 22.2435L15.0032 22.2111L14.9955 22.2064C14.9797 22.1956 14.9393 22.1551 14.8963 22.0799C14.8388 21.9811 14.7773 21.8268 14.7264 21.6325C14.57 21.0474 14.5071 20.114 14.5999 19.0877C14.671 18.2901 14.8223 17.5661 15.0086 17.024C15.1014 16.7533 15.2033 16.5283 15.3011 16.3672C15.3972 16.2051 15.4941 16.1133 15.5332 16.0936L15.5497 16.086L15.5412 16.0527L15.5384 16.0864L15.5497 16.086L15.5412 16.0527L15.5384 16.0864L15.5416 16.0509L15.5271 16.0838L15.5384 16.0864L15.5416 16.0509L15.5271 16.0838L15.5345 16.0884C15.5503 16.0992 15.5907 16.1397 15.6338 16.2154C15.6911 16.314 15.7528 16.4682 15.8037 16.6625C15.9598 17.2476 16.0226 18.1807 15.93 19.2069L16.2945 19.2395L16.6589 19.2719C16.724 18.5425 16.7186 17.8582 16.654 17.2736C16.6215 16.9811 16.5742 16.7137 16.5113 16.4754C16.4481 16.2373 16.3706 16.0285 16.2677 15.8494C16.1976 15.7285 16.1156 15.6196 16.0075 15.5295C15.9006 15.4401 15.7596 15.3705 15.6035 15.3572C15.4441 15.3424 15.2896 15.388 15.1672 15.4596C14.9588 15.583 14.8112 15.7665 14.6747 15.9884C14.4736 16.3225 14.3062 16.759 14.1686 17.2753C14.0319 17.7911 13.928 18.3853 13.8708 19.0227C13.8059 19.7522 13.8112 20.4367 13.8759 21.0215C13.9084 21.3138 13.9557 21.5814 14.0187 21.8197C14.0819 22.058 14.1593 22.2666 14.2623 22.4459C14.3325 22.5665 14.4146 22.6756 14.5229 22.7655C14.6296 22.855 14.7707 22.9244 14.9266 22.9378C15.0862 22.9525 15.2398 22.9071 15.3626 22.8353C15.5711 22.7119 15.7187 22.5284 15.8551 22.3065C16.0567 21.9724 16.224 21.5357 16.3616 21.0194C16.4983 20.5036 16.6021 19.9092 16.6589 19.2719L16.2945 19.2395Z" fill="#CEA561"/>
<path d="M16.6007 8.32433L15.8808 12.2683L15.8715 8.25912L16.6007 8.32433Z" fill="#CEA561"/>
<path d="M32.6884 14.7024L32.6884 14.7023C32.7417 14.5499 32.706 14.401 32.6449 14.2832C32.5843 14.1661 32.4889 14.0585 32.3796 13.9635C32.1598 13.7725 31.8432 13.5972 31.4828 13.4711L31.4827 13.4711C31.1221 13.3451 30.7652 13.2852 30.4743 13.2978C30.3296 13.3041 30.188 13.329 30.0676 13.3829C29.9465 13.4372 29.8259 13.5315 29.7727 13.6838C29.701 13.889 29.7896 14.0834 29.8912 14.2193C29.9643 14.3172 30.0622 14.4105 30.1756 14.4967L30.0823 14.7639C29.6405 14.8123 29.2282 15.0267 29.0822 15.4447C28.9368 15.861 29.1263 16.2853 29.4416 16.5982L29.3578 16.8379C29.2154 16.8348 29.0807 16.8469 28.9625 16.8778C28.7984 16.9209 28.608 17.0178 28.5363 17.2231C28.4646 17.4283 28.5531 17.6227 28.6547 17.7586C28.7279 17.8564 28.8258 17.9498 28.9392 18.036L28.3539 19.7115C27.9656 19.8885 27.642 20.2408 27.4834 20.6947L27.4788 20.7079L27.4773 20.7145L27.4747 20.7199L27.4703 20.7325C27.3118 21.186 27.3454 21.6631 27.5397 22.0423L26.9537 23.7193C26.8113 23.7161 26.6767 23.7282 26.5585 23.7592C26.3945 23.8022 26.2041 23.8992 26.1324 24.1043C26.1324 24.1044 26.1324 24.1044 26.1324 24.1045L26.3657 24.186C26.3026 24.3663 26.4951 24.6099 26.8306 24.8212L32.6884 14.7024ZM32.6884 14.7024C32.6166 14.9076 32.4262 15.0046 32.2621 15.0476C32.144 15.0786 32.0093 15.0907 31.8669 15.0875M32.6884 14.7024L31.8669 15.0875M31.8669 15.0875L31.7735 15.3546C32.0891 15.6677 32.2782 16.0923 32.1318 16.5102C31.9866 16.9263 31.5742 17.1405 31.1327 17.1889L31.0489 17.4288C31.1623 17.515 31.2601 17.6083 31.3333 17.7061C31.4349 17.8419 31.5234 18.0362 31.4518 18.2414C31.4518 18.2415 31.4518 18.2416 31.4517 18.2417L31.2184 18.1601M31.8669 15.0875L30.045 20.3025M31.2184 18.1601C31.1557 18.3404 30.8532 18.4111 30.4591 18.3678M31.2184 18.1601C31.2815 17.9798 31.0889 17.7362 30.7536 17.5249L31.2184 18.1601ZM30.4591 18.3678L30.6924 18.4493L30.6303 18.6268C30.5656 18.6254 30.4992 18.6208 30.432 18.6134L30.4591 18.3678ZM30.4591 18.3678L29.7749 20.3261M29.7749 20.3261L29.9849 20.1958C30.0064 20.2304 30.0264 20.266 30.045 20.3025M29.7749 20.3261C29.9782 20.6535 30.0315 21.1001 29.8806 21.5321L30.045 20.3025M29.7749 20.3261L30.0083 20.4076L30.045 20.3025M28.5018 26.9014C28.5018 26.9014 28.5018 26.9014 28.5018 26.9014L28.2685 26.8199L28.5018 26.9014ZM28.5018 26.9014C28.3565 27.3173 27.9441 27.5334 27.5018 27.5823M28.5018 26.9014L27.5018 27.5823M27.5018 27.5823L27.4085 27.8494C27.5219 27.9356 27.6198 28.0289 27.6929 28.1268C27.7946 28.2626 27.8832 28.457 27.8115 28.6622C27.7583 28.8147 27.6373 28.9086 27.5164 28.9623C27.3962 29.0158 27.2548 29.0404 27.1102 29.0465C26.8196 29.0588 26.4628 28.9988 26.1022 28.8729C25.7417 28.7469 25.4251 28.5716 25.2053 28.381C25.0961 28.2861 25.0007 28.1789 24.9399 28.0622C24.8789 27.945 24.8426 27.7962 24.8958 27.6438L27.5018 27.5823ZM28.7527 11.4518L29.0124 11.1649L29.7175 10.3857L29.7182 10.3849C29.7995 10.2943 29.8886 10.2831 29.943 10.3021L34.6608 11.9501C34.715 11.969 34.7787 12.0336 34.7874 12.1571C34.7874 12.1574 34.7874 12.1576 34.7874 12.1579L34.8516 13.2045L34.8753 13.5917L35.2162 13.4066L35.724 13.1309L36.5453 13.4178L28.7527 11.4518ZM28.7527 11.4518L28.6016 11.0956L28.376 10.5638M28.7527 11.4518L28.376 10.5638M28.376 10.5638L27.5546 10.2769C27.4998 10.2578 27.3688 10.2854 27.3083 10.4586L20.9592 28.6328L20.9592 28.6328C20.8993 28.8044 20.9847 28.9094 21.0389 28.9283L20.9574 29.1616L21.0389 28.9283L21.8602 29.2152L22.3679 28.9395L22.708 28.7548L22.7324 29.1411L22.7989 30.1901L22.7989 30.1901L22.799 30.1911C22.8061 30.3126 22.8689 30.3769 22.9234 30.396L22.9235 30.396L27.6409 32.0439L28.376 10.5638ZM28.8311 30.8935L28.5715 31.1816L27.8691 31.9609C27.7852 32.052 27.6954 32.0629 27.641 32.044L28.8311 30.8935ZM28.8311 30.8935L28.9826 31.2505M28.8311 30.8935L28.9826 31.2505M28.9826 31.2505L29.2082 31.7823L30.0296 32.0692L30.0297 32.0692M28.9826 31.2505L30.0297 32.0692M30.0297 32.0692C30.0836 32.0881 30.2158 32.0593 30.2759 31.8875C30.2759 31.8875 30.2759 31.8875 30.2759 31.8875L36.6249 13.7133L36.625 13.7133M30.0297 32.0692L36.625 13.7133M36.625 13.7133C36.6854 13.5404 36.6002 13.437 36.5454 13.4178L36.625 13.7133ZM26.4516 25.1567L26.5352 24.9174L26.0982 26.9181C25.7447 26.6298 25.5704 26.2468 25.6854 25.9176L25.4521 25.8361C25.4521 25.8361 25.4521 25.8361 25.4521 25.8361C25.5973 25.4205 26.0095 25.2043 26.4516 25.1567ZM25.7173 27.2586L25.8107 26.9914L24.8958 27.6438C24.9675 27.4385 25.1579 27.3415 25.322 27.2985C25.4402 27.2675 25.5749 27.2554 25.7173 27.2586Z" fill="#1B1B1B" stroke="#CEA561" stroke-width="0.494271"/>
</svg>
